<?xml version="1.0" standalone="no"?>
<!DOCTYPE svg PUBLIC "-//W3C//DTD SVG 1.1//EN" "http://www.w3.org/Graphics/SVG/1.1/DTD/svg11.dtd" >
<svg>
<metadata>
Created by FontForge 20110222 at Tue Oct 23 11:47:04 2012
 By Stefan Warting
Copyright (c) 1986-1992 SWFTE International, Ltd. All rights reserved
</metadata>
<defs>
<font id="FuturiCondensedRegularSWFTE" horiz-adv-x="789" >
  <font-face 
    font-family="Futuri Condensed"
    font-weight="400"
    font-stretch="normal"
    units-per-em="2048"
    panose-1="0 0 0 0 0 0 0 0 0 0"
    ascent="1638"
    descent="-410"
    x-height="982"
    cap-height="1462"
    bbox="-340 -480 3327 1976"
    underline-thickness="70"
    underline-position="-115"
    unicode-range="U+0020-F002"
  />
<missing-glyph horiz-adv-x="766" 
d="M47 0v766h672v-766h-672zM672 47v672h-578v-672h578z" />
    <glyph glyph-name=".notdef" horiz-adv-x="766" 
d="M47 0v766h672v-766h-672zM672 47v672h-578v-672h578z" />
    <glyph glyph-name=".null" horiz-adv-x="0" 
 />
    <glyph glyph-name="nonmarkingreturn" horiz-adv-x="426" 
 />
    <glyph glyph-name="space" unicode=" " horiz-adv-x="426" 
 />
    <glyph glyph-name="exclam" unicode="!" horiz-adv-x="556" 
d="M369 1462v-1105h-180v1105h180zM279 205q50 0 81.5 -29.5t31.5 -79.5q0 -48 -33 -80t-82 -32q-50 0 -81.5 31.5t-31.5 80.5q0 47 32 78t83 31z" />
    <glyph glyph-name="quotedbl" unicode="&#x22;" horiz-adv-x="588" 
d="M496 1433v-551h-119v551h119zM213 1433v-551h-117v551h117z" />
    <glyph glyph-name="numbersign" unicode="#" horiz-adv-x="1579" 
d="M1164 984h310l-45 -119h-312l-96 -277h332l-43 -119h-332l-166 -469h-148l168 469h-264l-168 -469h-140l164 469h-319l43 119h321l95 277h-345l45 119h345l168 474h143l-164 -474h261l168 474h143zM877 588l97 277h-265l-92 -277h260z" />
    <glyph glyph-name="dollar" unicode="$" 
d="M560 1177q-17 60 -51 94q-39 39 -95 39q-85 0 -131 -55q-39 -47 -39 -115q0 -12 -0.5 -24t-0.5 -23q0 -66 43 -121q62 -78 251 -213q84 -49 138.5 -149.5t54.5 -219.5q0 -103 -44 -204q-58 -134 -169 -182v-213h-80v193h-37t-51 -5v-188h-85v205q-73 23 -120 66
q-52 48 -93 139l164 92q20 -63 54 -96q39 -37 94 -37q78 0 125 56t47 147q0 65 -27 128.5t-71 105.5q-243 175 -324 287q-60 83 -60 186q0 150 44 244q33 72 92 112q25 17 75 36v211h80v-195h93v195h80v-207q77 -30 94 -44q46 -38 111 -165z" />
    <glyph glyph-name="percent" unicode="%" horiz-adv-x="1574" 
d="M76 1101q0 197 58.5 286t181.5 89q157 0 214 -84q62 -91 62 -346q0 -231 -45 -319q-54 -106 -209 -106q-119 0 -177 54q-53 49 -71 160q-14 86 -14 266zM1054 1482h123l-660 -1498h-130zM344 752q49 0 75 71t26 227q0 152 -27 221.5t-84 69.5q-59 0 -86 -54t-27 -172
q0 -156 11 -218q26 -145 112 -145zM982 459q0 196 59 285.5t181 89.5q157 0 214 -84q63 -92 63 -348q0 -231 -45 -319q-54 -106 -210 -106q-118 0 -176 54q-53 49 -72 162q-14 85 -14 266zM1253 109q49 0 74.5 70t25.5 229q0 151 -27.5 220t-85.5 69t-85 -53.5t-27 -169.5
q0 -159 11 -220q26 -145 114 -145z" />
    <glyph glyph-name="ampersand" unicode="&#x26;" horiz-adv-x="1046" 
d="M873 609l136 -96l-181 -244l164 -269h-219l-76 125q-83 -79 -147.5 -110t-141.5 -31q-142 0 -234 111t-92 280q0 109 45.5 201t165.5 221q-129 213 -129 382q0 126 87.5 214.5t211.5 88.5q113 0 201 -70q107 -85 107 -233q0 -79 -47 -164q-37 -67 -102 -139
q-51 -52 -101 -103l215 -353zM428 920q98 99 131 154.5t33 118.5q0 59 -32 95t-84 36q-62 0 -96 -38t-34 -107v-15q0 -33 11 -71q17 -58 71 -173zM381 644q-61 -76 -82 -113q-41 -73 -41 -156q0 -88 52.5 -149.5t126.5 -61.5q40 0 80.5 26t91.5 87z" />
    <glyph glyph-name="quotesingle" unicode="'" horiz-adv-x="420" 
d="M201 1554l156 -49l-189 -513l-100 29z" />
    <glyph glyph-name="parenleft" unicode="(" horiz-adv-x="560" 
d="M488 1558q-77 -219 -120 -399q-38 -158 -51.5 -291t-13.5 -273q0 -18 -0.5 -38.5t-0.5 -42.5q0 -103 9 -188q14 -136 51 -290q44 -185 126 -413l-172 -56q-30 80 -59 159q-58 172 -92 353q-48 253 -48 505q0 270 44 492q41 206 155 533z" />
    <glyph glyph-name="parenright" unicode=")" horiz-adv-x="560" 
d="M82 -381q75 217 118 400q37 158 52 308q12 119 12 257v40.5t1 46.5q0 103 -9 187q-14 129 -51 287q-45 189 -123 409l172 55l58 -158q59 -178 92 -353q47 -250 47 -503q0 -273 -42 -487.5t-155 -540.5z" />
    <glyph glyph-name="asterisk" unicode="*" horiz-adv-x="781" 
d="M488 1150l197 -113l-47 -84l-197 113v-225h-97v225l-200 -113l-48 84l197 113l-197 115l48 84l200 -111v224h97v-224l197 111l47 -88z" />
    <glyph glyph-name="plus" unicode="+" horiz-adv-x="1706" 
d="M1453 668v-114h-541v-554h-115v554h-545v114h545v554h115v-554h541z" />
    <glyph glyph-name="comma" unicode="," horiz-adv-x="396" 
d="M189 244l151 -47l-188 -513l-101 31z" />
    <glyph glyph-name="hyphen" unicode="-" horiz-adv-x="560" 
d="M484 572v-164h-408v164h408z" />
    <glyph glyph-name="period" unicode="." horiz-adv-x="396" 
d="M199 203q51 0 82 -30t31 -81q0 -48 -32 -79t-81 -31q-51 0 -83 30t-32 80q0 51 31 81t84 30z" />
    <glyph glyph-name="slash" unicode="/" horiz-adv-x="568" 
d="M420 1482h148l-424 -1671h-144z" />
    <glyph glyph-name="zero" unicode="0" 
d="M726 728q0 -398 -65 -563q-73 -186 -261 -186q-181 0 -251 133q-85 161 -85 616q0 427 76 594q73 160 254 160q190 0 261 -155.5t71 -598.5zM252 732q0 -321 36 -448.5t124 -127.5q76 0 103 149q22 121 22 415q0 377 -27.5 484.5t-119.5 107.5q-76 0 -105 -108
q-33 -125 -33 -472z" />
    <glyph glyph-name="one" unicode="1" 
d="M504 1462v-1462h-184v1285h-181v177h365z" />
    <glyph glyph-name="two" unicode="2" 
d="M68 984q0 205 54 324q45 99 128 142q62 32 146 32q151 0 240.5 -98.5t89.5 -264.5q0 -89 -33 -198t-92 -218l-285 -514h381v-189h-664l387 777q35 70 50 106q26 62 40.5 123t14.5 132q0 81 -37 127.5t-107 46.5q-61 0 -92 -65q-37 -78 -37 -263h-184z" />
    <glyph glyph-name="three" unicode="3" 
d="M248 683v162q159 0 207 41q55 47 55 205q0 229 -133 229q-82 0 -111.5 -60t-29.5 -192h-168q0 219 74 316.5t233 97.5q156 0 239 -99t83 -286q0 -144 -41 -221t-135 -111q124 -31 164 -117q33 -71 33 -256q0 -207 -97 -314q-92 -101 -258 -101q-83 0 -140 24
q-82 34 -126 114q-54 97 -54 266h172v-28q0 -197 150 -197q162 0 162 266q0 143 -50 197q-59 64 -229 64z" />
    <glyph glyph-name="four" unicode="4" 
d="M726 560v-164h-105v-396h-184v396h-396v188l412 878h168v-902h105zM180 560h261v582z" />
    <glyph glyph-name="five" unicode="5" 
d="M277 925q50 6 88 6q158 0 248 -114t90 -315q0 -237 -113 -380t-301 -143q-67 0 -128 16.5t-145 55.5l48 172q58 -37 107 -54t96 -17q111 0 181.5 96.5t70.5 247.5q0 173 -71 233q-64 54 -198 54q-36 0 -74.5 -5t-91.5 -17l96 701h513v-181h-361z" />
    <glyph glyph-name="six" unicode="6" 
d="M281 832q44 38 82.5 55t83.5 17q138 0 202 -83q75 -98 75 -335q0 -281 -90 -400q-78 -104 -240 -104q-328 0 -328 481q0 13 -0.5 27t-0.5 29q0 77 16 154q24 118 90 288q79 204 225 501h217q-71 -90 -149 -237q-58 -109 -117 -242q-33 -76 -66 -151zM248 449
q0 -154 36 -223.5t112 -69.5q81 0 115 68.5t34 232.5q0 138 -17 189q-32 96 -138 96q-142 0 -142 -293z" />
    <glyph glyph-name="seven" unicode="7" 
d="M68 1462h697l-484 -1462h-205l437 1289h-445v173z" />
    <glyph glyph-name="eight" unicode="8" 
d="M537 793q102 -39 139 -120t37 -251q0 -239 -80 -342q-75 -96 -237 -96q-151 0 -227 85q-95 106 -95 355q0 167 39 248t139 121q-81 45 -111 87q-53 74 -53 223q0 109 17 176q24 94 85 145q72 60 200 60q177 0 248 -95q63 -85 63 -278q0 -143 -47 -217q-32 -51 -117 -101z
M387 1320q-77 0 -102 -90q-14 -49 -14 -156q0 -205 123 -205q65 0 96 55.5t31 174.5q0 122 -28.5 171.5t-105.5 49.5zM260 404q0 -137 31 -194.5t105 -57.5q71 0 102 63.5t31 212.5q0 147 -29.5 210t-97.5 63q-78 0 -110 -71.5t-32 -225.5z" />
    <glyph glyph-name="nine" unicode="9" 
d="M508 629q-79 -73 -178 -73q-65 0 -107 19q-68 31 -107 115q-50 109 -50 298q0 271 95 393q80 103 235 103q148 0 237 -123.5t89 -341.5q0 -226 -76 -470q-55 -177 -149 -359q-53 -95 -105 -190h-212q31 44 63 89q62 91 121 205q83 159 144 335zM383 1308q-67 0 -103 -77
t-36 -220q0 -160 32 -224.5t118 -64.5q81 0 114 66t33 229q0 149 -28 212q-35 79 -130 79z" />
    <glyph glyph-name="colon" unicode=":" horiz-adv-x="556" 
d="M279 724q51 0 82 -30t31 -81q0 -50 -31.5 -80.5t-81.5 -30.5q-52 0 -83.5 30.5t-31.5 80.5q0 51 31 81t84 30zM279 203q50 0 81.5 -30.5t31.5 -80.5q0 -49 -31.5 -79.5t-81.5 -30.5q-51 0 -83 30t-32 80q0 48 32.5 79.5t82.5 31.5z" />
    <glyph glyph-name="semicolon" unicode=";" horiz-adv-x="556" 
d="M308 724q51 0 81.5 -30.5t30.5 -80.5q0 -48 -30.5 -79.5t-79.5 -31.5q-47 0 -80 32t-33 79q0 50 30.5 80.5t80.5 30.5zM269 244l151 -47l-184 -513l-101 31z" />
    <glyph glyph-name="less" unicode="&#x3c;" horiz-adv-x="1706" 
d="M1441 205v-129l-1177 484v100l1177 486v-129l-996 -404z" />
    <glyph glyph-name="equal" unicode="=" horiz-adv-x="1706" 
d="M1453 861v-117h-1201v117h1201zM1453 476v-115h-1201v115h1201z" />
    <glyph glyph-name="greater" unicode="&#x3e;" horiz-adv-x="1706" 
d="M1441 660v-100l-1177 -484v129l1001 408l-1001 404v129z" />
    <glyph glyph-name="question" unicode="?" horiz-adv-x="560" 
d="M16 1113q0 197 47 276q56 95 212 95q169 0 220 -94q40 -74 40 -308q0 -237 -51 -332q-42 -78 -131 -78v-307h-173v432q111 0 143 43q42 56 42 253q0 124 -22.5 178.5t-73.5 54.5q-47 0 -65 -35q-24 -46 -24 -178h-164zM262 205q53 0 84 -29t31 -80q0 -48 -33 -80t-84 -32
q-50 0 -81 31t-31 81q0 49 31 79t83 30z" />
    <glyph glyph-name="at" unicode="@" horiz-adv-x="2050" 
d="M1702 -64q-156 -112 -318.5 -166.5t-342.5 -54.5q-412 0 -670 223t-258 581q0 406 286.5 673.5t721.5 267.5q356 0 586 -195t230 -498q0 -258 -164 -453t-383 -195q-106 0 -155.5 42t-49.5 138q-53 -84 -133.5 -132t-169.5 -48q-142 0 -226 91t-84 245q0 222 141 387
t333 165q163 0 248 -162l55 121h113q-107 -440 -128.5 -533.5t-21.5 -112.5q0 -94 98 -94q158 0 279 162t121 373q0 144 -68 272q-78 147 -225 230q-169 96 -414 96q-364 0 -613.5 -242t-249.5 -594q0 -318 216 -515t567 -197q149 0 305 43q177 49 330 146zM1261 718
q-46 186 -207 186q-149 0 -247 -134q-94 -129 -94 -317q0 -111 52.5 -173.5t144.5 -62.5q102 0 186.5 72.5t108.5 182.5z" />
    <glyph glyph-name="A" unicode="A" horiz-adv-x="900" 
d="M545 1462l341 -1462h-197l-72 289h-332l-70 -289h-199l345 1462h184zM320 453h260l-127 631z" />
    <glyph glyph-name="B" unicode="B" horiz-adv-x="890" 
d="M597 752q111 -37 159 -92q62 -71 62 -209q0 -225 -78 -327q-95 -124 -336 -124h-287v1462h270q205 0 294 -70q114 -90 114 -328q0 -122 -48.5 -194.5t-149.5 -117.5zM312 832q162 0 214 33q75 47 75 203q0 144 -63 186q-52 35 -226 35v-457zM312 189q184 0 235 32
q70 44 70 201q0 160 -70 209q-58 41 -235 41v-483z" />
    <glyph glyph-name="C" unicode="C" horiz-adv-x="781" 
d="M736 223v-190q-56 -27 -107 -39t-106 -12q-226 0 -334 195q-103 185 -103 553q0 364 112 554q117 198 349 198q93 0 189 -41v-188q-92 43 -160 43q-75 0 -124 -28q-76 -43 -118 -155q-53 -140 -53 -385q0 -274 61 -409q67 -149 214 -149q40 0 80.5 12t99.5 41z" />
    <glyph glyph-name="D" unicode="D" horiz-adv-x="1013" 
d="M131 1462h261q293 0 414 -156q127 -164 127 -574q0 -403 -117 -565q-120 -167 -424 -167h-261v1462zM328 189q251 0 325 104q79 111 79 490q0 321 -89 415q-75 79 -315 79v-1088z" />
    <glyph glyph-name="E" unicode="E" 
d="M709 185v-185h-584v1462h584v-177h-389v-436h357v-172h-357v-492h389z" />
    <glyph glyph-name="F" unicode="F" 
d="M728 1462v-177h-400v-436h369v-177h-369v-672h-197v1462h597z" />
    <glyph glyph-name="G" unicode="G" horiz-adv-x="1005" 
d="M925 785q0 -344 -45 -515t-143 -235q-81 -53 -237 -53q-213 0 -310 152q-110 173 -110 594q0 411 100 582.5t333 171.5q130 0 213 -48q126 -73 182 -261l-176 -84q-47 213 -213 213q-119 0 -175 -95q-65 -110 -65 -371q0 -43 -0.5 -84.5t-0.5 -82.5q0 -175 11 -255
q17 -121 64 -179q54 -67 160 -67q121 0 172 95q55 102 55 350h-207v172h392z" />
    <glyph glyph-name="H" unicode="H" horiz-adv-x="1009" 
d="M877 1462v-1462h-196v722h-353v-722h-197v1462h197v-558h353v558h196z" />
    <glyph glyph-name="I" unicode="I" horiz-adv-x="461" 
d="M328 1462v-1462h-197v1462h197z" />
    <glyph glyph-name="J" unicode="J" horiz-adv-x="621" 
d="M492 1462v-1085q0 -398 -299 -398h-13q-48 0 -93 15.5t-103 48.5v201q102 -76 178 -76q65 0 100 53t35 152v1089h195z" />
    <glyph glyph-name="K" unicode="K" horiz-adv-x="894" 
d="M521 765l348 -765h-213l-340 748v-748h-195v1462h195v-693l344 693h209z" />
    <glyph glyph-name="L" unicode="L" horiz-adv-x="773" 
d="M748 185v-185h-617v1462h197v-1277h420z" />
    <glyph glyph-name="M" unicode="M" horiz-adv-x="1146" 
d="M949 1462l127 -1462h-182l-62 1025l-190 -1025h-138l-192 1025l-60 -1025h-180l125 1462h180l195 -1013l205 1013h172z" />
    <glyph glyph-name="N" unicode="N" horiz-adv-x="1013" 
d="M886 1462v-1462h-185l-385 1021v-1021h-187v1462h183l385 -1013v1013h189z" />
    <glyph glyph-name="O" unicode="O" horiz-adv-x="1005" 
d="M916 728q0 -388 -85 -557q-97 -192 -339 -192q-209 0 -306.5 179t-97.5 562q0 253 30 400q36 178 123 266q94 96 261 96q203 0 300 -153q114 -179 114 -601zM289 791q0 -343 48.5 -483t168.5 -140q106 0 154 91q64 120 64 438q0 362 -64 498q-50 107 -166 107
q-205 0 -205 -511z" />
    <glyph glyph-name="P" unicode="P" horiz-adv-x="898" 
d="M131 1462h242q253 0 367 -113q101 -100 101 -297q0 -234 -138 -328q-117 -80 -375 -80v-644h-197v1462zM328 820q178 0 229 26q87 44 87 208q0 143 -65 189t-251 46v-469z" />
    <glyph glyph-name="Q" unicode="Q" horiz-adv-x="1005" 
d="M812 135l117 -164l-117 -84l-103 150q-54 -26 -92 -36q-55 -15 -123 -15q-209 0 -306 162q-102 171 -102 551q0 241 19 367q29 194 112 295q99 121 285 121q228 0 321 -174q97 -182 97 -640q0 -212 -41 -371q-16 -55 -26 -80t-41 -82zM689 308q21 78 29 165t8 220
q0 320 -43 452q-50 153 -181 153q-115 0 -168 -124t-53 -395q0 -368 60 -501q47 -104 155 -104q29 0 47 3.5t49 15.5l-127 176l115 84z" />
    <glyph glyph-name="R" unicode="R" horiz-adv-x="894" 
d="M533 722l349 -722h-214l-336 713h-4v-713h-197v1462h238q236 0 338.5 -86.5t102.5 -284.5q0 -151 -50 -232q-65 -106 -227 -137zM328 824q157 0 211 37q70 48 70 199q0 155 -56 195q-47 34 -225 34v-465z" />
    <glyph glyph-name="S" unicode="S" 
d="M677 1218q-80 49 -142 67q-39 11 -86 11q-84 0 -139.5 -56.5t-55.5 -142.5q0 -74 54 -147q40 -54 121 -121q61 -50 122 -99q98 -88 135 -156q44 -81 44 -197q0 -172 -106 -285t-267 -113q-60 0 -119 17t-142 59v201q72 -41 126 -61q67 -25 131 -25q78 0 131 57t53 142
q0 54 -34 111.5t-109 128.5q-110 86 -151 124q-88 81 -131 155q-55 95 -55 201q0 170 102.5 279.5t262.5 109.5q53 0 98 -10q66 -15 157 -56v-194z" />
    <glyph glyph-name="T" unicode="T" horiz-adv-x="781" 
d="M761 1462v-185h-273v-1277h-195v1277h-272v185h740z" />
    <glyph glyph-name="U" unicode="U" horiz-adv-x="1009" 
d="M890 1462v-1075q0 -201 -78 -296q-92 -112 -312 -112q-97 0 -161 20q-98 31 -151 110q-67 100 -67 278v1075h191v-1089q0 -205 194 -205q191 0 191 205v1089h193z" />
    <glyph glyph-name="V" unicode="V" horiz-adv-x="849" 
d="M629 1462h199l-324 -1462h-164l-319 1462h198l205 -993z" />
    <glyph glyph-name="W" unicode="W" horiz-adv-x="1238" 
d="M1009 1462h196l-244 -1462h-159l-181 1037l-184 -1037h-160l-244 1462h190l146 -1001l168 1001h164l172 -1001z" />
    <glyph glyph-name="X" unicode="X" horiz-adv-x="785" 
d="M492 744l269 -744h-205l-164 508l-164 -508h-203l268 744l-256 718h195l160 -480l162 480h194z" />
    <glyph glyph-name="Y" unicode="Y" 
d="M568 1462h205l-281 -841v-621h-199v621l-277 841h203q42 -166 45 -178q11 -42 67 -249q39 -142 61 -215z" />
    <glyph glyph-name="Z" unicode="Z" horiz-adv-x="785" 
d="M88 1462h673l-468 -1277h429v-185h-701l471 1289h-404v173z" />
    <glyph glyph-name="bracketleft" unicode="[" horiz-adv-x="560" 
d="M517 -219v-162h-378v1943h378v-160h-197v-1621h197z" />
    <glyph glyph-name="backslash" unicode="\" horiz-adv-x="568" 
d="M144 1482l420 -1671h-144l-420 1671h144z" />
    <glyph glyph-name="bracketright" unicode="]" horiz-adv-x="560" 
d="M47 -219h199v1621h-199v160h379v-1943h-379v162z" />
    <glyph glyph-name="asciicircum" unicode="^" horiz-adv-x="2050" 
d="M1105 1462l521 -562h-160l-441 441l-445 -441h-160l525 562h160z" />
    <glyph glyph-name="underscore" unicode="_" horiz-adv-x="1025" 
d="M1025 -365v-115h-1025v115h1025z" />
    <glyph glyph-name="grave" unicode="`" horiz-adv-x="1025" 
d="M469 1462l164 -345h-104l-240 345h180z" />
    <glyph glyph-name="a" unicode="a" horiz-adv-x="802" 
d="M701 982v-982h-180v96q-43 -58 -88 -86t-97 -28q-126 0 -184 85q-80 118 -80 433q0 500 258 500q57 0 101 -25t90 -85v92h180zM252 492q0 -182 29.5 -263t105.5 -81q74 0 106 76t32 264q0 187 -35.5 266.5t-112.5 79.5q-64 0 -94.5 -82t-30.5 -260z" />
    <glyph glyph-name="b" unicode="b" horiz-adv-x="802" 
d="M285 886q38 54 88 84t105 30q64 0 104 -22q64 -35 100 -135q46 -128 46 -355q0 -153 -12 -235q-18 -126 -68 -192q-59 -79 -168 -79q-8 -1 -14 -1q-39 0 -75 17q-58 28 -106 98v-96h-180v1554h180v-668zM277 488q0 -189 31.5 -264.5t103.5 -75.5t104.5 68.5t32.5 218.5
q0 244 -45 332q-32 63 -102 63q-64 0 -94.5 -82t-30.5 -260z" />
    <glyph glyph-name="c" unicode="c" horiz-adv-x="525" 
d="M496 201v-185q-53 -21 -88.5 -30t-69.5 -9q-132 0 -203 118q-78 130 -78 399q0 258 71 383t206 125q66 0 162 -41v-172q-60 45 -104 45q-152 0 -152 -352q0 -326 147 -326q29 0 54.5 10t54.5 35z" />
    <glyph glyph-name="d" unicode="d" horiz-adv-x="802" 
d="M701 1554v-1554h-180v96q-41 -53 -93.5 -83.5t-99.5 -30.5q-120 0 -188 118.5t-68 315.5q0 323 55.5 452.5t198.5 129.5q59 0 104 -25.5t91 -86.5v668h180zM252 426q0 -143 33 -210.5t102 -67.5q71 0 104.5 68.5t33.5 228.5q0 195 -35 294q-31 89 -86 89q-84 0 -112 -55
q-40 -80 -40 -347z" />
    <glyph glyph-name="e" unicode="e" horiz-adv-x="740" 
d="M681 457h-449q0 -163 35.5 -244.5t115.5 -81.5q59 0 90 53t31 144h164q0 -174 -74.5 -261.5t-214.5 -87.5q-156 0 -238 125.5t-82 364.5q0 135 20 235q27 134 88 207q75 89 200 89q190 0 256 -128q58 -112 58 -415zM232 601h272q0 140 -28.5 196t-98.5 56q-64 0 -96 -37
q-49 -57 -49 -215z" />
    <glyph glyph-name="f" unicode="f" horiz-adv-x="449" 
d="M453 1550v-164q-33 6 -47.5 8t-22.5 2q-75 0 -75 -94v-320h137v-141h-137v-841h-183v841h-96v141h96v342q0 117 55.5 180.5t157.5 63.5q52 0 115 -18z" />
    <glyph glyph-name="g" unicode="g" horiz-adv-x="802" 
d="M701 982v-1003q0 -202 -74.5 -286.5t-263.5 -84.5q-144 0 -213.5 75.5t-69.5 236.5h172q15 -162 115 -162q69 0 100 43q54 75 54 299q-36 -52 -71 -76q-52 -36 -126 -36q-72 0 -115 27q-64 40 -98 146q-41 129 -41 364q0 130 16 217q22 119 74 182q63 76 174 76
q55 0 98 -25t89 -85v92h180zM252 431q0 -145 33 -212t105 -67q76 0 106.5 72t30.5 274q0 161 -29 241q-35 97 -119 97q-65 0 -96 -92t-31 -313z" />
    <glyph glyph-name="h" unicode="h" horiz-adv-x="816" 
d="M293 886q79 106 207 106q213 0 213 -244v-748h-180v660q0 94 -28 131t-105 37q-48 0 -77.5 -40.5t-29.5 -106.5v-681h-180v1554h180v-668z" />
    <glyph glyph-name="i" unicode="i" horiz-adv-x="408" 
d="M207 1386q50 0 81.5 -30.5t31.5 -80.5t-32.5 -81.5t-82.5 -31.5q-51 0 -82 30t-31 81t31 82t84 31zM297 982v-982h-180v982h180z" />
    <glyph glyph-name="j" unicode="j" horiz-adv-x="408" 
d="M207 1386q50 0 81.5 -30.5t31.5 -80.5t-32.5 -81.5t-82.5 -31.5q-51 0 -82 30t-31 81t31 82t84 31zM297 982v-1374h-180v1374h180z" />
    <glyph glyph-name="k" unicode="k" horiz-adv-x="785" 
d="M480 533l285 -533h-197l-269 517v-517h-178v1554h178v-1009l261 437h192z" />
    <glyph glyph-name="l" unicode="l" horiz-adv-x="408" 
d="M297 1554v-1554h-180v1554h180z" />
    <glyph glyph-name="m" unicode="m" horiz-adv-x="1230" 
d="M693 873q48 59 89 85q54 34 126 34q118 0 169 -68q44 -58 44 -176v-748h-180v660q0 88 -22 123q-28 45 -109 45q-47 0 -76 -40.5t-29 -106.5v-681h-180v660q0 91 -25 129.5t-84 38.5q-60 0 -91.5 -39.5t-31.5 -107.5v-681h-180v982h180v-96q40 51 77 74q52 32 124 32
q62 0 109 -28t90 -91z" />
    <glyph glyph-name="n" unicode="n" horiz-adv-x="816" 
d="M293 886q79 106 205 106q215 0 215 -244v-748h-180v660q0 94 -28 131t-105 37q-48 0 -77.5 -40.5t-29.5 -106.5v-681h-180v982h180v-96z" />
    <glyph glyph-name="o" unicode="o" horiz-adv-x="785" 
d="M379 -18q-151 0 -235.5 135.5t-84.5 378.5q0 239 85.5 370.5t240.5 131.5q163 0 244 -107q93 -123 93 -401q0 -237 -77 -365q-86 -143 -266 -143zM390 146q81 0 116 80t35 266q0 178 -27 251q-35 95 -135 95q-67 0 -97 -63q-38 -79 -38 -283q0 -179 35 -262.5t111 -83.5z
" />
    <glyph glyph-name="p" unicode="p" horiz-adv-x="802" 
d="M285 890q38 55 90 85t107 30q62 0 100 -22q64 -37 100 -137q46 -128 46 -354q0 -137 -7 -201q-15 -134 -62 -207q-62 -96 -181 -96q-64 0 -109 26t-84 86v-492h-180v1374h180v-92zM549 437q0 219 -25 299q-31 98 -120 98q-127 0 -127 -342q0 -203 37 -278q30 -62 100 -62
q71 0 103 67t32 218z" />
    <glyph glyph-name="q" unicode="q" horiz-adv-x="802" 
d="M701 982v-1374h-180v488q-86 -114 -185 -114q-148 0 -210 132q-56 120 -56 386q0 256 63 377t193 121q59 0 104 -25.5t91 -86.5v96h180zM252 492q0 -196 34 -272q30 -68 101 -68q83 0 111.5 73t28.5 271q0 167 -33.5 249.5t-97.5 82.5q-79 0 -105 -46q-39 -68 -39 -290z
" />
    <glyph glyph-name="r" unicode="r" horiz-adv-x="556" 
d="M529 1000v-190q-128 0 -182 -50t-54 -168v-592h-176v982h172v-141q51 83 97.5 115t142.5 44z" />
    <glyph glyph-name="s" unicode="s" horiz-adv-x="560" 
d="M373 533q65 -59 101 -133t36 -150q0 -117 -78.5 -191.5t-201.5 -74.5q-44 0 -83.5 8t-91.5 29v188q90 -68 158 -68q53 0 89 34t36 85q0 52 -47 109l-53 53l-52 48q-52 52 -84 108q-45 79 -45 154q0 114 76 192t189 78q66 0 162 -41v-184q-65 68 -142 68q-50 0 -83 -32
t-33 -83q0 -34 25 -70q32 -45 122 -127z" />
    <glyph glyph-name="t" unicode="t" horiz-adv-x="449" 
d="M441 982v-133h-138v-849h-178v849h-100v133h100v266h178v-266h138z" />
    <glyph glyph-name="u" unicode="u" horiz-adv-x="816" 
d="M709 982v-693q0 -159 -72.5 -234.5t-226.5 -75.5q-156 0 -228.5 74.5t-72.5 235.5v693h180v-701q0 -60 34 -100t87 -40t86 39t33 101v701h180z" />
    <glyph glyph-name="v" unicode="v" horiz-adv-x="672" 
d="M469 982h183l-244 -982h-144l-243 982h184l131 -738q14 96 30.5 188.5t40.5 224.5q31 162 62 325z" />
    <glyph glyph-name="w" unicode="w" horiz-adv-x="1009" 
d="M797 982h181l-234 -982h-123q-16 98 -47 273q-7 39 -45 264q-23 138 -25 156v-4q-4 -40 -41 -258.5t-76 -430.5h-123l-227 982h176l42 -244q39 -227 49 -286q25 -154 28 -183l117 713h115q28 -179 54 -328q36 -209 42 -246q17 -107 17 -139z" />
    <glyph glyph-name="x" unicode="x" horiz-adv-x="668" 
d="M433 521l223 -521h-191l-133 344l-127 -344h-189l224 521l-193 461h189l96 -281l105 281h184z" />
    <glyph glyph-name="y" unicode="y" horiz-adv-x="672" 
d="M484 982h176l-391 -1374h-189l152 480l-203 894h184l115 -646z" />
    <glyph glyph-name="z" unicode="z" horiz-adv-x="677" 
d="M47 982h601l-363 -822h336v-160h-592l363 824h-345v158z" />
    <glyph glyph-name="braceleft" unicode="{" horiz-adv-x="1025" 
d="M861 -289v-123q-236 0 -308 55q-92 71 -92 310v244q0 161 -58.5 216.5t-230.5 55.5v123q168 0 228.5 58.5t60.5 218.5v244q0 228 74 296.5t326 68.5v-125q-159 0 -202 -37q-50 -43 -50 -207v-240q0 -145 -22 -197q-39 -92 -179 -139q116 -42 155 -101q46 -70 46 -235
v-240q0 -157 46.5 -201.5t205.5 -44.5z" />
    <glyph glyph-name="bar" unicode="|" horiz-adv-x="1025" 
d="M576 1566v-2046h-127v2046h127z" />
    <glyph glyph-name="braceright" unicode="}" horiz-adv-x="1025" 
d="M172 -289q159 0 205.5 44.5t46.5 201.5v240q0 165 46 235q39 58 155 101q-140 47 -179 139q-22 52 -22 197v240q0 164 -49 207q-42 37 -203 37v125q253 0 326.5 -67.5t73.5 -297.5v-244q0 -159 61 -218t228 -59v-123q-173 0 -231 -55t-58 -217v-244q0 -239 -91 -309
q-73 -56 -309 -56v123z" />
    <glyph glyph-name="asciitilde" unicode="~" horiz-adv-x="2050" 
d="M1494 1390h132q0 -192 -80 -300q-87 -118 -259 -118q-66 0 -146 38q-97 46 -163 128q-51 64 -72 83q-46 42 -139 42q-89 0 -137 -45q-74 -69 -74 -244h-136q0 208 89 312t260 104q172 0 303 -166q62 -77 98 -100q42 -27 107 -27q92 0 146 55q71 72 71 238z" />
    <glyph glyph-name="quotesinglbase" unicode="&#x201a;" horiz-adv-x="453" 
d="M201 244l156 -47l-189 -513l-100 31z" />
    <glyph glyph-name="florin" unicode="&#x192;" 
d="M336 882l68 407q15 92 71.5 141.5t149.5 49.5q36 0 60.5 -3t75.5 -15l-33 -156q-39 8 -62 8q-43 0 -64 -23t-30 -81l-55 -328h184l-24 -130h-181l-160 -941q-17 -103 -46 -143q-45 -62 -153 -62q-49 0 -129 25l29 156q24 -6 45 -6q67 0 82 88l148 883h-168l24 130h168z
" />
    <glyph glyph-name="quotedblbase" unicode="&#x201e;" horiz-adv-x="672" 
d="M449 244l156 -47l-189 -513l-100 31zM201 244l156 -47l-189 -513l-100 31z" />
    <glyph glyph-name="ellipsis" unicode="&#x2026;" horiz-adv-x="2050" 
d="M1708 203q53 0 83.5 -29.5t30.5 -81.5q0 -50 -31 -80t-83 -30q-53 0 -84 30t-31 80q0 53 30 82t85 29zM1023 203q53 0 84 -30t31 -81q0 -50 -31 -80t-84 -30t-84 30t-31 80q0 53 30 82t85 29zM342 203q53 0 84 -30t31 -81q0 -50 -31 -80t-84 -30q-52 0 -83 30t-31 80
q0 53 30 82t84 29z" />
    <glyph glyph-name="dagger" unicode="&#x2020;" horiz-adv-x="781" 
d="M752 996v-172h-268v-1228h-187v1228h-268v172h268v466h187v-466h268z" />
    <glyph glyph-name="daggerdbl" unicode="&#x2021;" horiz-adv-x="781" 
d="M752 205v-164h-276v-445h-173v445h-274v164h274v656h-274v160h274v441h173v-441h276v-160h-276v-656h276z" />
    <glyph glyph-name="circumflex" unicode="&#x2c6;" horiz-adv-x="1025" 
d="M601 1462l147 -349h-104l-131 211l-132 -211h-104l147 349h177z" />
    <glyph glyph-name="perthousand" unicode="&#x2030;" horiz-adv-x="2210" 
d="M76 1050q0 234 58 330t186 96q120 0 182 -51q56 -46 75 -146q15 -77 15 -233q0 -234 -46 -322q-54 -103 -210 -103q-140 0 -200 95t-60 334zM1054 1482h123l-660 -1498h-130zM974 408q0 232 51 325q55 101 197 101q125 0 187 -57q53 -49 70 -153q11 -67 11 -220
q0 -228 -45 -315q-55 -105 -213 -105q-144 0 -201 92.5t-57 331.5zM223 1050q0 -15 -0.5 -31t-0.5 -34q0 -99 19 -152q29 -81 103 -81q49 0 75 65.5t26 203.5q0 173 -26.5 246.5t-84.5 73.5q-53 0 -75 -37q-36 -62 -36 -254zM1125 408q0 -172 26.5 -233.5t96.5 -61.5
q44 0 69.5 66t25.5 194q0 179 -27 253.5t-86 74.5q-67 0 -86 -57t-19 -236zM1620 408q0 232 51 325q55 101 197 101q125 0 187 -57q53 -49 70 -153q11 -67 11 -220q0 -228 -45 -315q-55 -105 -213 -105q-144 0 -201 92.5t-57 331.5zM1771 408q0 -172 26.5 -233.5t96.5 -61.5
q44 0 69.5 66t25.5 194q0 179 -27 253.5t-86 74.5q-67 0 -86 -57t-19 -236z" />
    <glyph glyph-name="Scaron" unicode="&#x160;" 
d="M533 1941h107l-150 -348h-176l-148 348h105l131 -211zM677 1218q-42 26 -69.5 39.5t-60.5 23.5q-20 5 -50 10t-48 5q-84 0 -139.5 -56.5t-55.5 -142.5q0 -123 119 -218l21 -16l14 -12l37 -29q20 -15 31 -24q36 -30 37 -31l38 -37q45 -42 49 -45q13 -13 23 -24t23 -27.5
t20 -28.5q64 -100 64 -228q0 -172 -106 -285t-267 -113q-45 0 -101 15q-40 9 -71.5 21t-88.5 40v201q37 -22 63.5 -34.5t53.5 -22.5q70 -29 140 -29q78 0 131 57t53 142q0 106 -127 223l-16 17l-19 16l-31 25l-30 27l-33 24q-7 4 -22 18q-23 20 -31 27l-46 47
q-22 24 -39.5 48.5t-33.5 54.5q-52 91 -52 193q0 170 102.5 279.5t262.5 109.5q53 0 109 -12q41 -11 67.5 -20.5t78.5 -33.5v-194z" />
    <glyph glyph-name="guilsinglleft" unicode="&#x2039;" horiz-adv-x="472" 
d="M209 488l199 -371l-111 -62l-238 433l238 437l111 -60z" />
    <glyph glyph-name="OE" unicode="&#x152;" horiz-adv-x="1341" 
d="M1265 185v-185h-539v125q-58 -75 -115 -107t-142 -32q-200 0 -291.5 182t-91.5 572q0 401 99 576q94 166 297 166q59 0 101 -19q74 -34 143 -130v133h539v-177h-388v-440h357v-172h-357v-492h388zM285 732q0 -303 49 -431.5t158 -128.5q90 0 143 135q40 101 56 270
q10 104 10 202q0 172 -13 265q-18 125 -63 187q-52 71 -147 71q-97 0 -145 -136.5t-48 -433.5z" />
    <glyph glyph-name="quoteleft" unicode="&#x2018;" horiz-adv-x="420" 
d="M252 1554l105 -33l-138 -533l-151 49z" />
    <glyph glyph-name="quoteright" unicode="&#x2019;" horiz-adv-x="420" 
d="M201 1554l156 -49l-189 -513l-100 29z" />
    <glyph glyph-name="quotedblleft" unicode="&#x201c;" horiz-adv-x="672" 
d="M500 1554l105 -33l-136 -533l-153 49zM252 1554l105 -33l-138 -533l-151 49z" />
    <glyph glyph-name="quotedblright" unicode="&#x201d;" horiz-adv-x="672" 
d="M449 1554l156 -49l-189 -513l-100 29zM201 1554l156 -49l-189 -513l-100 29z" />
    <glyph glyph-name="bullet" unicode="&#x2022;" horiz-adv-x="396" 
d="M199 843q49 0 81 -32t32 -83q0 -49 -32 -80t-81 -31q-52 0 -83.5 30.5t-31.5 80.5q0 52 31.5 83.5t83.5 31.5z" />
    <glyph glyph-name="endash" unicode="&#x2013;" horiz-adv-x="1025" 
d="M1025 554v-121h-1025v121h1025z" />
    <glyph glyph-name="emdash" unicode="&#x2014;" horiz-adv-x="2050" 
d="M2050 554v-121h-2046h-4v121h2046h4z" />
    <glyph glyph-name="tilde" unicode="&#x2dc;" horiz-adv-x="1025" 
d="M672 1398h80q-24 -119 -60 -171t-93 -52q-30 0 -89 20l-22 8q-48 15 -68 15q-47 0 -67 -68h-80q27 130 65 176q34 41 86 41q17 0 44.5 -5.5t52.5 -14.5l22 -8q35 -15 62 -15q50 0 67 74z" />
    <glyph glyph-name="trademark" unicode="&#x2122;" horiz-adv-x="1706" 
d="M728 1458v-74h-109v-511h-78v511h-108v74h295zM1095 1456l49 -585h-72l-24 410l-76 -410h-56l-78 410l-24 -410h-72l51 585h72l78 -404l82 404h70z" />
    <glyph glyph-name="scaron" unicode="&#x161;" horiz-adv-x="560" 
d="M416 1462h105l-148 -349h-176l-150 349h107l131 -211zM351 554l22 -21q65 -59 101 -133t36 -150q0 -117 -78.5 -191.5t-201.5 -74.5q-44 0 -83.5 8t-91.5 29v188q90 -68 158 -68q53 0 89 34t36 85q0 66 -78 140l-14 14l-8 8l-23 23l-8 10l-12 10q-63 47 -100.5 119.5
t-37.5 147.5q0 114 76 192t189 78q66 0 162 -41v-184q-65 68 -142 68q-50 0 -83 -32t-33 -83q0 -35 20 -74q7 -13 31.5 -38.5t44.5 -41.5z" />
    <glyph glyph-name="guilsinglright" unicode="&#x203a;" horiz-adv-x="472" 
d="M176 925l232 -437l-232 -433l-117 62l205 371l-205 377z" />
    <glyph glyph-name="oe" unicode="&#x153;" horiz-adv-x="1205" 
d="M613 882q80 123 232 123q163 0 232 -117q73 -124 73 -431h-449q0 -126 15 -187q34 -139 139 -139q49 0 84 54.5t35 142.5h168q0 -175 -78 -260.5t-228 -85.5q-75 0 -126 28.5t-93 94.5q-50 -65 -96 -92q-53 -31 -127 -31q-153 0 -234 104q-96 123 -96 398q0 142 23 240
q30 126 97 194q79 80 212 80q55 0 99 -19q63 -27 118 -97zM701 601h277q0 140 -31 198t-106 58q-72 0 -106 -58t-34 -198zM232 502q0 -201 45 -290q37 -73 104 -73q73 0 110 65q42 74 42 268q0 172 -17 239q-34 134 -143 134q-67 0 -98 -58q-43 -79 -43 -285z" />
    <glyph glyph-name="Ydieresis" unicode="&#x178;" 
d="M543 1802q48 0 77.5 -28.5t29.5 -74.5q0 -48 -28 -75t-77 -27q-48 0 -79 28t-31 72q0 48 29.5 76.5t78.5 28.5zM238 1802q48 0 78 -29t30 -76q0 -46 -28 -73t-78 -27q-48 0 -79.5 28.5t-31.5 71.5q0 48 29.5 76.5t79.5 28.5zM568 1462h205l-281 -841v-621h-199v621
l-277 841h203l125 -408q4 -11 14.5 -54.5t16.5 -76.5l17 -103v4q2 8 4 17l6 24l6 33l6 33l4 18l8 35l9 39l4 16l6 15z" />
    <glyph glyph-name="nonbreakingspace" unicode="&#xa0;" horiz-adv-x="1025" 
 />
    <glyph glyph-name="exclamdown" unicode="&#xa1;" horiz-adv-x="556" 
d="M369 0h-180v1105h180v-1105zM279 1242q-52 0 -83.5 30.5t-31.5 80.5t31.5 80.5t81.5 30.5t82.5 -31.5t32.5 -81.5q0 -47 -32 -78t-81 -31z" />
    <glyph glyph-name="cent" unicode="&#xa2;" 
d="M592 437v-185q-40 -16 -49 -20q-34 -13 -59 -13v-190h-92v190q-127 31 -183.5 149t-56.5 350q0 233 46 345q54 131 194 175v191h92v-191q32 -6 53.5 -14t54.5 -27v-168q-53 43 -104 43q-76 0 -114 -87.5t-38 -262.5q0 -171 34 -249.5t110 -78.5q52 0 112 43z" />
    <glyph glyph-name="sterling" unicode="&#xa3;" 
d="M597 228l159 -52q-39 -94 -72 -133q-55 -64 -141 -64q-73 0 -176 62q-24 10 -47 21q-31 12 -49 12q-47 0 -82 -66l-156 51q32 101 74 144t108 43q22 0 49 -6q12 34 16 46q14 47 14 97q0 39 -6 76t-24 95h-172v88h136q-77 187 -103.5 284.5t-26.5 190.5q0 166 96.5 265.5
t256.5 99.5q145 0 225 -79t80 -230l-155 -72q0 113 -36 162t-116 49q-78 0 -120 -52t-42 -147q0 -85 22 -170q26 -102 107 -301h189v-88h-164q17 -87 17 -150q0 -102 -50 -199q46 -25 75 -37t46 -12q21 0 38 17.5t30 54.5z" />
    <glyph glyph-name="currency" unicode="&#xa4;" horiz-adv-x="1240" 
d="M953 629l203 -205l-72 -71l-202 203q-62 -44 -122.5 -65.5t-136.5 -21.5q-90 0 -157 28q-35 15 -101 59l-209 -203l-68 71l205 205q-43 63 -63.5 125.5t-20.5 131.5q0 62 12 108q19 73 72 148l-205 203l68 76l209 -207q76 54 133 71t125 17t130 -20.5t129 -67.5l202 207
l72 -76l-203 -203q44 -61 64 -122.5t20 -131.5v-17q0 -67 -20 -122t-64 -120zM623 572q130 0 222 93t92 225q0 127 -93 219t-219 92q-127 0 -221 -94t-94 -223q0 -126 93 -219t220 -93z" />
    <glyph glyph-name="yen" unicode="&#xa5;" horiz-adv-x="832" 
d="M824 728v-76h-307l-13 -31v-621h-176v621l-12 31h-304v76h281l-57 172h-224v78h201l-162 484h172q26 -101 54 -205t67 -249.5t72 -259.5q21 75 67 248q30 110 74 272q40 144 56 194h172l-160 -484h199v-78h-223l-60 -172h283z" />
    <glyph glyph-name="brokenbar" unicode="&#xa6;" horiz-adv-x="1025" 
d="M576 1433v-761h-127v761h127zM576 408v-757h-127v757h127z" />
    <glyph glyph-name="section" unicode="&#xa7;" horiz-adv-x="781" 
d="M545 908q101 -68 141 -160q32 -73 32 -182q0 -119 -44 -195.5t-141 -126.5q54 -51 70 -69q38 -43 56 -87q22 -55 22 -131q0 -147 -81.5 -237.5t-214.5 -90.5q-137 0 -209 83q-80 92 -80 284h173q0 -104 29.5 -155.5t82.5 -51.5q56 0 90.5 44.5t34.5 115.5q0 63 -36 114
q-39 55 -144 128q-141 85 -198 166q-60 85 -60 207q0 112 44 196t140 148q-70 61 -100 115q-35 64 -35 152q0 135 78 221t201 86q126 0 198 -73q91 -92 91 -296h-172q0 110 -26 159.5t-79 49.5q-115 0 -115 -123q0 -75 29 -121q24 -38 89 -82t134 -88zM398 367q59 0 95 57.5
t36 149.5q0 93 -37 150t-98 57q-59 0 -96.5 -56.5t-37.5 -144.5q0 -93 39 -153t99 -60z" />
    <glyph glyph-name="dieresis" unicode="&#xa8;" horiz-adv-x="1025" 
d="M664 1378q47 0 78 -29t31 -74q0 -48 -29 -75t-78 -27q-48 0 -79 28t-31 72q0 48 29.5 76.5t78.5 28.5zM361 1378q47 0 77.5 -28.5t30.5 -74.5q0 -48 -29 -75t-79 -27q-47 0 -78 28t-31 72q0 47 30 76t79 29z" />
    <glyph glyph-name="copyright" unicode="&#xa9;" horiz-adv-x="1706" 
d="M849 1462q308 0 524 -215t216 -521q0 -303 -215.5 -518.5t-518.5 -215.5q-298 0 -517 217t-219 513q0 301 216.5 520.5t513.5 219.5zM849 80q269 0 460.5 189.5t191.5 456.5t-190.5 457.5t-457.5 190.5q-264 0 -456 -192t-192 -456q0 -260 192 -453t452 -193zM990 426
v-112q-35 -17 -65 -24t-64 -7q-133 0 -196.5 114.5t-63.5 334.5q0 219 66 332q70 119 210 119q53 0 113 -25v-115q-27 14 -50 20.5t-44 6.5q-73 0 -113 -50q-65 -81 -65 -290q0 -165 36 -245q40 -89 128 -89q44 0 108 30z" />
    <glyph glyph-name="ordfeminine" unicode="&#xaa;" horiz-adv-x="601" 
d="M508 1460v-689h-127v67q-38 -51 -80 -69q-23 -10 -49 -10q-89 0 -129 59q-55 81 -55 303q0 351 180 351q39 0 70.5 -18t62.5 -60v66h127zM193 1115q0 -129 20 -184.5t76 -55.5q51 0 73.5 53t22.5 185q0 131 -25.5 186.5t-78.5 55.5q-45 0 -66.5 -58t-21.5 -182z" />
    <glyph glyph-name="guillemotleft" unicode="&#xab;" horiz-adv-x="722" 
d="M480 488l201 -371l-113 -62l-236 433l236 437l113 -60zM185 488l202 -371l-110 -62l-236 433l236 437l110 -60z" />
    <glyph glyph-name="logicalnot" unicode="&#xac;" horiz-adv-x="1706" 
d="M1453 861v-504h-116v387h-1085v117h1201z" />
    <glyph glyph-name="minus" unicode="&#xad;" horiz-adv-x="560" 
d="M484 572v-164h-408v164h408z" />
    <glyph glyph-name="registered" unicode="&#xae;" horiz-adv-x="1706" 
d="M849 1462q308 0 524 -215t216 -523q0 -303 -216.5 -517.5t-521.5 -214.5q-296 0 -514 216t-218 510q0 304 215 524t515 220zM933 84l14 2q26 3 58 12t63 21l21 8q21 8 26.5 10.5t12.5 6.5l20 8q4 4 19 11.5t24 12.5q2 1 9.5 7t19.5 14q38 28 48 36q26 21 44 40l23 26
l24 29q37 44 66 98q39 75 57.5 148t18.5 154q0 266 -191 456t-457 190q-268 0 -457 -190t-189 -460q0 -260 193 -452t455 -192q11 0 34 2t44 2zM900 740l211 -432h-129l-201 428h-4v-428h-117v877h144q140 0 202 -52t62 -172q0 -89 -31 -138q-39 -63 -137 -83zM777 802
q95 0 127 22q41 28 41 119q0 93 -33 117q-28 20 -135 20v-278z" />
    <glyph glyph-name="macron" unicode="&#xaf;" horiz-adv-x="1025" 
d="M1025 1566v-121h-1025v121h1025z" />
    <glyph glyph-name="degree" unicode="&#xb0;" horiz-adv-x="820" 
d="M406 1492q116 0 196.5 -80.5t80.5 -195.5q0 -117 -80 -198t-197 -81t-198 80t-81 197q0 116 81 197t198 81zM408 1046q69 0 117.5 49.5t48.5 120.5q0 69 -48.5 118.5t-119.5 49.5t-119.5 -48.5t-48.5 -119.5q0 -72 49 -121t121 -49z" />
    <glyph glyph-name="plusminus" unicode="&#xb1;" horiz-adv-x="1706" 
d="M1453 836v-114h-541v-345h-115v345h-545v114h545v345h115v-345h541zM1453 156v-115h-1201v115h1201z" />
    <glyph glyph-name="twosuperior" unicode="&#xb2;" horiz-adv-x="521" 
d="M43 1169q0 89 8 134t31 77q57 88 178 88q100 0 158 -59t58 -163q0 -70 -25 -131q-10 -25 -29.5 -63.5t-40.5 -73.5l-172 -285h248v-113h-436l256 466q36 65 51.5 115t15.5 100q0 102 -86 102h-4h-6q-32 0 -55 -29.5t-23 -72.5l-2 -27l-2 -33l-2 -32h-121z" />
    <glyph glyph-name="threesuperior" unicode="&#xb3;" horiz-adv-x="521" 
d="M340 1037q34 -8 58.5 -20.5t38.5 -32.5q20 -25 26 -53.5t6 -96.5q0 -111 -20 -151q-26 -53 -83.5 -84t-131.5 -31q-108 0 -156.5 56.5t-48.5 185.5h110q0 -136 97 -136q110 0 110 156q0 91 -33.5 124.5t-127.5 33.5h-21v96h37q81 0 107 30t26 124q0 129 -82 129l-20 -2
q-49 -6 -58.5 -36.5t-17.5 -106.5h-113q0 79 14 125.5t43 73.5q25 21 64.5 34t81.5 13q99 0 156 -61t57 -169q0 -87 -28 -134.5t-91 -66.5z" />
    <glyph glyph-name="acute" unicode="&#xb4;" horiz-adv-x="1025" 
d="M556 1462h180l-240 -345h-104z" />
    <glyph glyph-name="mu" unicode="&#xb5;" horiz-adv-x="1130" 
d="M898 1068h156q-7 -35 -63 -294q-79 -369 -83 -387q-41 -195 -41 -205q0 -33 24.5 -49t82.5 -16l-25 -125q-41 -6 -61 -8t-33 -2q-66 0 -99.5 33.5t-46.5 113.5q-49 -73 -127 -111.5t-166 -38.5q-76 0 -139.5 33t-120.5 109l-113 -545h-152l314 1492h160
q-47 -215 -97 -456q-28 -134 -36.5 -184t-8.5 -67q0 -122 54 -186t156 -64q39 0 72 11q80 26 142 102q87 106 130 297z" />
    <glyph glyph-name="paragraph" unicode="&#xb6;" horiz-adv-x="1025" 
d="M949 1482v-80h-125v-1402h-96v1402h-179v-1402h-96v785q-187 21 -279 102q-98 87 -98 249q0 152 110 249t283 97h480z" />
    <glyph glyph-name="periodcentered" unicode="&#xb7;" horiz-adv-x="426" 
d="M57 779q0 67 45.5 115.5t110.5 48.5q67 0 115.5 -45.5t48.5 -110.5q0 -68 -44.5 -116t-111.5 -48t-115.5 45.5t-48.5 110.5z" />
    <glyph glyph-name="periodcentered" unicode="&#x2219;" horiz-adv-x="426" 
d="M57 779q0 67 45.5 115.5t110.5 48.5q67 0 115.5 -45.5t48.5 -110.5q0 -68 -44.5 -116t-111.5 -48t-115.5 45.5t-48.5 110.5z" />
    <glyph glyph-name="cedilla" unicode="&#xb8;" horiz-adv-x="1025" 
d="M508 -92q106 0 155.5 -47.5t49.5 -143.5q0 -92 -54.5 -143.5t-152.5 -51.5q-86 0 -221 45v121q69 -24 115 -35.5t78 -11.5q46 0 71 22t25 62q0 42 -25.5 58t-89.5 16h-35v201h84v-92z" />
    <glyph glyph-name="onesuperior" unicode="&#xb9;" horiz-adv-x="521" 
d="M332 1453v-873h-123v769h-117v104h240z" />
    <glyph glyph-name="ordmasculine" unicode="&#xba;" horiz-adv-x="588" 
d="M285 759q-106 0 -166 95t-60 263q0 169 60 261t170 92q113 0 170 -75q66 -87 66 -282q0 -166 -54 -255q-60 -99 -186 -99zM291 873q59 0 83 55.5t24 186.5q0 125 -19 177q-25 67 -94 67q-47 0 -68 -45q-26 -55 -26 -199q0 -126 23.5 -184t76.5 -58z" />
    <glyph glyph-name="guillemotright" unicode="&#xbb;" horiz-adv-x="722" 
d="M449 925l232 -437l-232 -433l-117 62l205 371l-205 377zM152 925l235 -437l-235 -433l-111 62l199 371l-199 377z" />
    <glyph glyph-name="onequarter" unicode="&#xbc;" horiz-adv-x="1337" 
d="M316 1458v-816h-115v715h-113v101h228zM1041 1482h136l-880 -1498h-141zM1294 312v-93h-68v-219h-113v219h-252v109l260 488h105v-504h68zM949 312h164v326z" />
    <glyph glyph-name="onehalf" unicode="&#xbd;" horiz-adv-x="1337" 
d="M316 1458v-816h-115v715h-113v101h228zM1041 1482h136l-880 -1498h-141zM882 554v45q0 227 202 227q98 0 154 -53t56 -148q0 -51 -25 -121q-11 -28 -32.5 -70.5t-35.5 -64.5l-164 -264h236v-105h-416l244 433q33 58 48 107.5t15 99.5q0 88 -63 88h-19q-45 0 -65.5 -32.5
t-20.5 -105.5v-36h-114z" />
    <glyph glyph-name="threequarters" unicode="&#xbe;" horiz-adv-x="1337" 
d="M328 1068q53 -9 78 -39l12 -12l10 -15l11 -28l6 -17l2 -37q2 -4 2 -10v-12l2 -21q0 -7 -0.5 -14.5t-3.5 -30.5v-18q-9 -90 -64.5 -136.5t-152.5 -46.5h-7h-14h-12l-31 5h-6l-4 2q-29 8 -40 12.5t-30 17.5q-7 7 -14 16t-18 29.5t-18 53t-7 61.5v25h106l-2 -2v-8v-7
q0 -29 8 -54t19 -32l33 -18q2 -2 5 -3t5 -1h8h15q55 0 79.5 36.5t24.5 117.5q0 33 -4 57l-6 20l-4 15q-2 8 -7 13.5t-18 14.5l-12 7l-12 6l-33 4l-27 4h-25q-6 2 -26 2v88h41q47 0 70.5 9t35.5 34q17 32 17 99q0 123 -94 123h-9l-8 -7l-10 -4l-14 -8l-7 -4q-7 -7 -12 -22
l-4 -9l-4 -10l-2 -4l-2 -18l-2 -11l-2 -8v-6v-8v-4l-2 -17h-105v23q0 74 25 123q16 35 49 54.5t86 25.5l14 2l33 2q41 0 87.5 -22.5t60.5 -49.5l12 -22l12 -23q3 -4 5.5 -18.5t4 -26t3.5 -23.5l4 -39q0 -155 -111 -176zM1041 1482h136l-880 -1498h-141zM1294 312v-95h-68
v-217h-113v217h-252v111l260 488h105v-504h68zM949 312h164v326z" />
    <glyph glyph-name="questiondown" unicode="&#xbf;" horiz-adv-x="560" 
d="M535 357q0 -197 -47 -276q-57 -95 -213 -95q-169 0 -220 94q-41 75 -41 307q0 240 51 333q42 77 134 77v308h172v-433q-110 0 -143 -43q-43 -57 -43 -252q0 -124 22.5 -178.5t73.5 -54.5q46 0 65 35q25 46 25 178h164zM289 1265q-53 0 -85 29t-32 77q0 51 33 83t84 32
t83 -31t32 -81q0 -49 -32 -79t-83 -30z" />
    <glyph glyph-name="Agrave" unicode="&#xc0;" horiz-adv-x="900" 
d="M545 1462l341 -1462h-197l-72 289h-332l-70 -289h-199l345 1462h184zM320 453h260l-127 631zM408 1937l164 -344h-105l-239 344h180z" />
    <glyph glyph-name="Aacute" unicode="&#xc1;" horiz-adv-x="900" 
d="M545 1462l341 -1462h-197l-72 289h-332l-70 -289h-199l345 1462h184zM320 453h260l-127 631zM496 1937h181l-240 -344h-105z" />
    <glyph glyph-name="Acircumflex" unicode="&#xc2;" horiz-adv-x="900" 
d="M541 1937l148 -348h-105l-131 213l-133 -213h-105l150 348h176zM545 1462l341 -1462h-197l-72 289h-332l-70 -289h-199l345 1462h184zM320 453h260l-127 631z" />
    <glyph glyph-name="Atilde" unicode="&#xc3;" horiz-adv-x="900" 
d="M545 1462l341 -1462h-197l-72 289h-332l-70 -289h-199l345 1462h184zM320 453h260l-127 631zM613 1874h80q-25 -121 -60 -172.5t-92 -51.5q-19 0 -36.5 4t-53.5 17l-23 8q-21 6 -29 8q-24 6 -38 6q-47 0 -68 -67h-80q13 61 22 88.5t25 58.5q42 70 105 70q17 0 45.5 -6
t50.5 -15l23 -8q35 -14 61 -14q51 0 68 74z" />
    <glyph glyph-name="Adieresis" unicode="&#xc4;" horiz-adv-x="900" 
d="M605 1855q48 0 78 -29t30 -75q0 -47 -29 -75t-79 -28q-47 0 -78 29t-31 74t30.5 74.5t78.5 29.5zM299 1855q50 0 79.5 -28.5t29.5 -75.5t-29 -75t-80 -28q-46 0 -76 29t-30 74q0 44 30 74t76 30zM545 1462l341 -1462h-197l-72 289h-332l-70 -289h-199l345 1462h184z
M320 453h260l-127 631z" />
    <glyph glyph-name="Aring" unicode="&#xc5;" horiz-adv-x="900" 
d="M480 1974q75 0 136 -70t61 -153q0 -97 -62.5 -161.5t-157.5 -64.5q-97 0 -163 64t-66 160q0 91 66 159t155 68h4q6 -2 8 -2h8h11zM453 1644q47 0 77 30t30 77q0 46 -30 75t-77 29t-78 -29t-31 -75q0 -47 31 -77t78 -30zM545 1462l341 -1462h-197l-72 289h-332l-70 -289
h-199l345 1462h184zM320 453h260l-127 631z" />
    <glyph glyph-name="AE" unicode="&#xc6;" horiz-adv-x="1205" 
d="M1177 189l37 -189h-525l-60 289h-344l-70 -289h-199l349 1462h547l41 -177h-344l92 -436h308l37 -172h-314l100 -488h345zM320 453h277l-132 689z" />
    <glyph glyph-name="Ccedilla" unicode="&#xc7;" horiz-adv-x="781" 
d="M736 223v-190q-56 -27 -107 -39t-106 -12q-198 0 -314 155q-119 159 -119 439l-2 53l-2 29v72q0 231 41 383t129 246q56 59 131 91t160 32q93 0 189 -41v-188q-92 43 -160 43q-76 0 -140.5 -46.5t-99.5 -128.5q-26 -60 -33 -85q-12 -42 -12 -93q-6 -66 -8 -110t-2 -105
q0 -130 11 -227.5t50 -178.5q34 -74 89 -113t125 -39q40 0 80.5 12t99.5 41zM480 -92q106 0 155.5 -47.5t49.5 -143.5q0 -91 -56 -143t-153 -52q-86 0 -220 45v121q67 -23 114 -35t79 -12q46 0 71 22t25 62q0 42 -25 58t-89 16h-35v201h84v-92z" />
    <glyph glyph-name="Egrave" unicode="&#xc8;" 
d="M709 185v-185h-584v1462h584v-177h-389v-436h357v-172h-357v-492h389zM373 1937l164 -344h-104l-240 344h180z" />
    <glyph glyph-name="Eacute" unicode="&#xc9;" 
d="M709 185v-185h-584v1462h584v-177h-389v-436h357v-172h-357v-492h389zM461 1937h181l-240 -344h-105z" />
    <glyph glyph-name="Ecircumflex" unicode="&#xca;" 
d="M709 185v-185h-584v1462h584v-177h-389v-436h357v-172h-357v-492h389zM504 1937l148 -348h-105l-131 211l-131 -211h-105l148 348h176z" />
    <glyph glyph-name="Edieresis" unicode="&#xcb;" 
d="M568 1855q49 0 79 -29t30 -75q0 -47 -30 -75t-79 -28q-48 0 -77.5 28.5t-29.5 74.5t30 75t77 29zM264 1855q47 0 78 -29t31 -75q0 -47 -29 -75t-80 -28q-47 0 -77.5 28.5t-30.5 74.5q0 45 30.5 74.5t77.5 29.5zM709 185v-185h-584v1462h584v-177h-389v-436h357v-172h-357
v-492h389z" />
    <glyph glyph-name="Igrave" unicode="&#xcc;" horiz-adv-x="461" 
d="M328 1462v-1462h-197v1462h197zM189 1937l164 -344h-105l-240 344h181z" />
    <glyph glyph-name="Iacute" unicode="&#xcd;" horiz-adv-x="461" 
d="M328 1462v-1462h-197v1462h197zM277 1937h180l-240 -344h-104z" />
    <glyph glyph-name="Icircumflex" unicode="&#xce;" horiz-adv-x="461" 
d="M320 1937l149 -348h-104l-133 213l-132 -213h-104l148 348h176zM328 1462v-1462h-197v1462h197z" />
    <glyph glyph-name="Idieresis" unicode="&#xcf;" horiz-adv-x="461" 
d="M385 1855q47 0 77 -29t30 -75q0 -48 -28.5 -75.5t-78.5 -27.5q-48 0 -78 28t-30 75q0 46 30 75t78 29zM80 1855q47 0 78 -29t31 -75q0 -45 -30 -74t-79 -29t-79 28t-30 75q0 46 30 75t79 29zM328 1462v-1462h-197v1462h197z" />
    <glyph glyph-name="Eth" unicode="&#xd0;" horiz-adv-x="1021" 
d="M139 1462h261q184 0 293 -54t168 -174q17 -34 33 -82.5t27 -102t17.5 -139t6.5 -186.5q0 -71 -3 -127t-9 -117q-12 -95 -44 -182.5t-77 -147.5q-65 -83 -157 -116.5t-255 -33.5h-261v732h-139v162h139v568zM336 189h70q101 0 152 15t86 56q66 79 82 224l4 45l6 63l4 46
l2 71l2 56q0 64 -5.5 128.5t-16.5 126.5t-34 113.5t-50 80.5q-32 33 -82.5 49t-127.5 16h-49h-12l-16 -2h-9h-6v-383h185v-162h-185v-543z" />
    <glyph glyph-name="Ntilde" unicode="&#xd1;" horiz-adv-x="1013" 
d="M672 1874h80q-24 -121 -59.5 -172.5t-93.5 -51.5q-24 0 -47 6q-3 1 -42 15l-22 8q-22 8 -38 11t-30 3q-47 0 -67 -67h-80q21 113 57 165t96 52q22 0 41 -4t56 -17l22 -8q16 -6 34 -9t28 -3q25 0 40.5 17.5t24.5 54.5zM886 1462v-1462h-185l-385 1021v-1021h-187v1462h183
l385 -1013v1013h189z" />
    <glyph glyph-name="Ograve" unicode="&#xd2;" horiz-adv-x="1005" 
d="M914 830q0 -12 1 -46.5t1 -55.5q0 -94 -5 -183.5t-13 -152.5q-22 -150 -98 -265q-100 -148 -308 -148q-209 0 -306.5 179t-97.5 562q0 183 17 311t51 209q54 129 134.5 185.5t211.5 56.5q200 0 305 -143.5t105 -430.5zM289 732v-86q0 -103 10 -184t33 -154
q42 -140 174 -140q70 0 112.5 39.5t72.5 130.5q6 17 10.5 38.5t7.5 43t6 57.5t3 66l2 52l2 53v6v10l2 19v14v68q0 151 -20 273t-52 178q-52 86 -158 86q-205 0 -205 -511v-59zM461 1937l164 -344h-104l-240 344h180z" />
    <glyph glyph-name="Oacute" unicode="&#xd3;" horiz-adv-x="1005" 
d="M549 1937h179l-240 -344h-103zM914 830q0 -12 1 -46.5t1 -55.5q0 -94 -5 -183.5t-13 -152.5q-22 -150 -98 -265q-100 -148 -308 -148q-209 0 -306.5 179t-97.5 562q0 183 17 311t51 209q54 129 134.5 185.5t211.5 56.5q200 0 305 -143.5t105 -430.5zM289 732v-86
q0 -103 10 -184t33 -154q42 -140 174 -140q70 0 112.5 39.5t72.5 130.5q6 17 10.5 38.5t7.5 43t6 57.5t3 66l2 52l2 53v6v10l2 19v14v68q0 151 -20 273t-52 178q-52 86 -158 86q-205 0 -205 -511v-59z" />
    <glyph glyph-name="Ocircumflex" unicode="&#xd4;" horiz-adv-x="1005" 
d="M914 830q0 -12 1 -46.5t1 -55.5q0 -94 -5 -183.5t-13 -152.5q-22 -150 -98 -265q-100 -148 -308 -148q-209 0 -306.5 179t-97.5 562q0 183 17 311t51 209q54 129 134.5 185.5t211.5 56.5q200 0 305 -143.5t105 -430.5zM289 732v-86q0 -103 10 -184t33 -154
q42 -140 174 -140q70 0 112.5 39.5t72.5 130.5q6 17 10.5 38.5t7.5 43t6 57.5t3 66l2 52l2 53v6v10l2 19v14v68q0 151 -20 273t-52 178q-52 86 -158 86q-205 0 -205 -511v-59zM592 1937l148 -348h-104l-132 211l-131 -211h-104l147 348h176z" />
    <glyph glyph-name="Otilde" unicode="&#xd5;" horiz-adv-x="1005" 
d="M914 830q0 -12 1 -46.5t1 -55.5q0 -94 -5 -183.5t-13 -152.5q-22 -150 -98 -265q-100 -148 -308 -148q-209 0 -306.5 179t-97.5 562q0 183 17 311t51 209q54 129 134.5 185.5t211.5 56.5q200 0 305 -143.5t105 -430.5zM289 732v-86q0 -103 10 -184t33 -154
q42 -140 174 -140q70 0 112.5 39.5t72.5 130.5q6 17 10.5 38.5t7.5 43t6 57.5t3 66l2 52l2 53v6v10l2 19v14v68q0 151 -20 273t-52 178q-52 86 -158 86q-205 0 -205 -511v-59zM664 1874h80q-25 -121 -60 -172.5t-92 -51.5q-19 0 -36.5 4t-53.5 17l-22 8q-23 6 -41 10t-27 4
q-47 0 -68 -67h-80q14 63 22.5 89.5t25.5 57.5q40 70 104 70q18 0 45.5 -6t51.5 -15l22 -8q37 -14 62 -14q50 0 67 74z" />
    <glyph glyph-name="Odieresis" unicode="&#xd6;" horiz-adv-x="1005" 
d="M656 1855q49 0 79 -29t30 -75q0 -48 -29.5 -75.5t-79.5 -27.5q-48 0 -77.5 28.5t-29.5 74.5t30 75t77 29zM353 1855q48 0 78 -29t30 -75q0 -47 -29 -75t-79 -28q-47 0 -78 29t-31 74t30.5 74.5t78.5 29.5zM914 830q0 -12 1 -46.5t1 -55.5q0 -94 -5 -183.5t-13 -152.5
q-22 -150 -98 -265q-100 -148 -308 -148q-209 0 -306.5 179t-97.5 562q0 183 17 311t51 209q54 129 134.5 185.5t211.5 56.5q200 0 305 -143.5t105 -430.5zM289 732v-86q0 -103 10 -184t33 -154q42 -140 174 -140q70 0 112.5 39.5t72.5 130.5q6 17 10.5 38.5t7.5 43t6 57.5
t3 66l2 52l2 53v6v10l2 19v14v68q0 151 -20 273t-52 178q-52 86 -158 86q-205 0 -205 -511v-59z" />
    <glyph glyph-name="multiply" unicode="&#xd7;" horiz-adv-x="1706" 
d="M937 611l389 -392l-80 -80l-391 392l-386 -385l-82 80l386 385l-390 391l80 82l392 -391l383 383l80 -82z" />
    <glyph glyph-name="Oslash" unicode="&#xd8;" horiz-adv-x="1005" 
d="M877 1474l76 -45l-104 -181q36 -118 55 -252t19 -278q0 -221 -30 -362q-38 -176 -125 -268q-99 -104 -268 -104q-92 0 -157 32.5t-138 114.5l-88 -152l-76 46l111 194q-36 145 -51 267.5t-15 288.5q0 366 100.5 536.5t317.5 170.5q88 0 137 -21q68 -29 161 -124zM299 469
l382 669q-28 84 -72.5 122t-106.5 38q-115 0 -166 -123.5t-51 -405.5q5 -63 9.5 -142.5t4.5 -157.5zM324 340q34 -95 74.5 -131.5t114.5 -36.5q111 0 161 126.5t50 410.5v37q0 57 -2.5 108.5t-12.5 154.5z" />
    <glyph glyph-name="Ugrave" unicode="&#xd9;" horiz-adv-x="1009" 
d="M890 1462v-1075q0 -112 -18 -178t-62 -117q-52 -58 -131 -84q-12 -4 -35 -9t-47.5 -8.5t-57 -7.5t-39.5 -4q-16 0 -29 2t-48.5 7.5t-56.5 10.5t-34 9q-39 13 -72.5 34t-58.5 50q-41 48 -60.5 119t-19.5 176v1075h191v-1089q0 -205 194 -205q191 0 191 205v1089h193z
M461 1937l164 -344h-104l-240 344h180z" />
    <glyph glyph-name="Uacute" unicode="&#xda;" horiz-adv-x="1009" 
d="M549 1937h179l-240 -344h-103zM890 1462v-1075q0 -112 -18 -178t-62 -117q-52 -58 -131 -84q-12 -4 -35 -9t-47.5 -8.5t-57 -7.5t-39.5 -4q-16 0 -29 2t-48.5 7.5t-56.5 10.5t-34 9q-39 13 -72.5 34t-58.5 50q-41 48 -60.5 119t-19.5 176v1075h191v-1089q0 -205 194 -205
q191 0 191 205v1089h193z" />
    <glyph glyph-name="Ucircumflex" unicode="&#xdb;" horiz-adv-x="1009" 
d="M890 1462v-1075q0 -112 -18 -178t-62 -117q-52 -58 -131 -84q-12 -4 -35 -9t-47.5 -8.5t-57 -7.5t-39.5 -4q-16 0 -29 2t-48.5 7.5t-56.5 10.5t-34 9q-39 13 -72.5 34t-58.5 50q-41 48 -60.5 119t-19.5 176v1075h191v-1089q0 -205 194 -205q191 0 191 205v1089h193z
M592 1937l148 -348h-104l-132 211l-131 -211h-104l147 348h176z" />
    <glyph glyph-name="Udieresis" unicode="&#xdc;" horiz-adv-x="1009" 
d="M656 1855q49 0 79 -29t30 -75q0 -48 -29.5 -75.5t-79.5 -27.5q-48 0 -77.5 28.5t-29.5 74.5t30 75t77 29zM353 1855q48 0 78 -29t30 -75q0 -47 -29 -75t-79 -28q-47 0 -78 29t-31 74t30.5 74.5t78.5 29.5zM890 1462v-1075q0 -112 -18 -178t-62 -117q-52 -58 -131 -84
q-12 -4 -35 -9t-47.5 -8.5t-57 -7.5t-39.5 -4q-16 0 -29 2t-48.5 7.5t-56.5 10.5t-34 9q-39 13 -72.5 34t-58.5 50q-41 48 -60.5 119t-19.5 176v1075h191v-1089q0 -205 194 -205q191 0 191 205v1089h193z" />
    <glyph glyph-name="Yacute" unicode="&#xdd;" 
d="M568 1462h205l-281 -841v-621h-199v621l-277 841h203l125 -408q4 -11 14.5 -54.5t16.5 -76.5l17 -103v4q2 8 4 17l6 24l6 33l6 33l4 18l8 35l9 39l4 16l6 15zM441 1937h180l-240 -344h-104z" />
    <glyph glyph-name="Thorn" unicode="&#xde;" horiz-adv-x="898" 
d="M328 1164h14q18 3 38 4t38 1q206 0 316.5 -108.5t110.5 -310.5q0 -123 -56 -219t-151 -135q-27 -12 -64.5 -21t-71.5 -13.5t-75.5 -6.5t-94.5 -2h-4v-353h-197v1462h197v-298zM328 529q153 0 209 18q107 37 107 214q0 88 -26.5 139.5t-82.5 75.5q-28 9 -80 14.5t-127 5.5
v-467z" />
    <glyph glyph-name="germandbls" unicode="&#xdf;" horiz-adv-x="781" 
d="M709 562q0 -272 -34.5 -393t-109.5 -155q-48 -22 -178 -22v160q72 8 93 35q20 21 32.5 80t12.5 131q0 302 -26.5 372.5t-133.5 70.5v147q90 0 110.5 39t20.5 201q0 89 -24 130.5t-76 41.5q-53 0 -82 -37t-29 -106v-1257h-176v1261q0 123 49 195q71 104 238 104
q142 0 203 -74q69 -84 69 -291q0 -120 -26 -173q-31 -63 -121 -97q108 -27 146 -95q42 -76 42 -268z" />
    <glyph glyph-name="agrave" unicode="&#xe0;" horiz-adv-x="802" 
d="M392 1462l164 -345h-103l-240 345h179zM701 982v-982h-180v96q-30 -40 -49 -58.5t-46 -33.5q-17 -8 -46 -15t-44 -7h-8l-6 2h-8h-9h-8q-12 0 -41 12q-60 21 -88 59q-24 30 -42.5 77.5t-33.5 113.5q-8 49 -14 97.5t-6 76.5v80q0 500 258 500q57 0 101 -25t90 -85v92h180z
M252 492v-64q0 -65 6 -111t21 -88.5t40 -61.5t68 -19q72 0 105 66t33 210v37v27v31v43q0 272 -148 272q-125 0 -125 -313v-29z" />
    <glyph glyph-name="aacute" unicode="&#xe1;" horiz-adv-x="802" 
d="M701 982v-982h-180v96q-30 -40 -49 -58.5t-46 -33.5q-17 -8 -46 -15t-44 -7h-8l-6 2h-8h-9h-8q-12 0 -41 12q-60 21 -88 59q-24 30 -42.5 77.5t-33.5 113.5q-8 49 -14 97.5t-6 76.5v80q0 500 258 500q57 0 101 -25t90 -85v92h180zM252 492v-64q0 -65 6 -111t21 -88.5
t40 -61.5t68 -19q72 0 105 66t33 210v37v27v31v43q0 272 -148 272q-125 0 -125 -313v-29zM480 1462h180l-240 -345h-104z" />
    <glyph glyph-name="acircumflex" unicode="&#xe2;" horiz-adv-x="802" 
d="M701 982v-982h-180v96q-30 -40 -49 -58.5t-46 -33.5q-17 -8 -46 -15t-44 -7h-8l-6 2h-8h-9h-8q-12 0 -41 12q-60 21 -88 59q-24 30 -42.5 77.5t-33.5 113.5q-8 49 -14 97.5t-6 76.5v80q0 500 258 500q57 0 101 -25t90 -85v92h180zM252 492v-64q0 -65 6 -111t21 -88.5
t40 -61.5t68 -19q72 0 105 66t33 210v37v27v31v43q0 272 -148 272q-125 0 -125 -313v-29zM525 1462l147 -349h-104l-131 211l-132 -211h-104l148 349h176z" />
    <glyph glyph-name="atilde" unicode="&#xe3;" horiz-adv-x="802" 
d="M701 982v-982h-180v96q-30 -40 -49 -58.5t-46 -33.5q-17 -8 -46 -15t-44 -7h-8l-6 2h-8h-9h-8q-12 0 -41 12q-60 21 -88 59q-24 30 -42.5 77.5t-33.5 113.5q-8 49 -14 97.5t-6 76.5v80q0 500 258 500q57 0 101 -25t90 -85v92h180zM252 492v-64q0 -65 6 -111t21 -88.5
t40 -61.5t68 -19q72 0 105 66t33 210v37v27v31v43q0 272 -148 272q-125 0 -125 -313v-29zM597 1398h80q-26 -120 -61.5 -171.5t-92.5 -51.5q-29 0 -88 20l-23 8q-48 15 -68 15q-47 0 -67 -68h-80q12 59 21.5 90t25.5 58q41 69 105 69q16 0 43.5 -5.5t52.5 -14.5l22 -8
q35 -15 62 -15q49 0 68 74z" />
    <glyph glyph-name="adieresis" unicode="&#xe4;" horiz-adv-x="802" 
d="M674 1339q23 -23 23 -66q0 -45 -29.5 -72.5t-77.5 -27.5t-79 27t-31 71q0 48 30.5 77.5t79.5 29.5q22 0 43.5 -8t32.5 -21zM285 1378q47 0 77 -29t30 -76q0 -46 -29 -73t-78 -27q-48 0 -78.5 27.5t-30.5 70.5q0 48 29.5 77.5t79.5 29.5zM701 982v-982h-180v96
q-30 -40 -49 -58.5t-46 -33.5q-17 -8 -46 -15t-44 -7h-8l-6 2h-8h-9h-8q-12 0 -41 12q-60 21 -88 59q-24 30 -42.5 77.5t-33.5 113.5q-8 49 -14 97.5t-6 76.5v80q0 500 258 500q57 0 101 -25t90 -85v92h180zM252 492v-64q0 -65 6 -111t21 -88.5t40 -61.5t68 -19q72 0 105 66
t33 210v37v27v31v43q0 272 -148 272q-125 0 -125 -313v-29z" />
    <glyph glyph-name="aring" unicode="&#xe5;" horiz-adv-x="802" 
d="M461 1505q79 0 136 -67t57 -157q0 -93 -61 -154t-156 -61q-100 0 -164 61t-64 156q0 90 64 157t151 67h4zM433 1181q48 0 78 28t30 74q0 50 -29.5 78.5t-80.5 28.5t-81 -28t-30 -75q0 -48 31 -77t82 -29zM701 982v-982h-180v96q-30 -40 -49 -58.5t-46 -33.5
q-17 -8 -46 -15t-44 -7h-8l-6 2h-8h-9h-8q-12 0 -41 12q-60 21 -88 59q-24 30 -42.5 77.5t-33.5 113.5q-8 49 -14 97.5t-6 76.5v80q0 500 258 500q57 0 101 -25t90 -85v92h180zM252 492v-64q0 -65 6 -111t21 -88.5t40 -61.5t68 -19q72 0 105 66t33 210v37v27v31v43
q0 272 -148 272q-125 0 -125 -313v-29z" />
    <glyph glyph-name="ae" unicode="&#xe6;" horiz-adv-x="1134" 
d="M545 877q49 69 100 97t128 28q148 0 212 -91q87 -123 87 -454h-447q0 -170 34 -248t116 -78q55 0 89 52.5t34 144.5h168q0 -171 -77 -260t-216 -89q-85 0 -144.5 39.5t-103.5 125.5q-39 -78 -81 -112q-55 -44 -141 -44q-114 0 -183 88t-69 234q0 159 63.5 245.5
t182.5 86.5q48 0 84 -12t84 -46q0 148 -36 205.5t-124 57.5q-35 0 -75.5 -14t-104.5 -48v172q55 23 110 34t99 11q67 0 117 -29t94 -96zM625 601h275q0 139 -30 195.5t-101 56.5q-75 0 -108 -55q-36 -60 -36 -197zM349 139q57 0 90 48t33 131q0 82 -35 137t-88 55
q-54 0 -90 -52t-36 -132q0 -86 34 -136.5t92 -50.5z" />
    <glyph glyph-name="ccedilla" unicode="&#xe7;" horiz-adv-x="525" 
d="M324 -92q106 0 155.5 -47.5t49.5 -141.5q0 -91 -55 -144t-150 -53q-27 0 -40.5 1.5t-39.5 7.5q-31 4 -61 11.5t-83 24.5v121l27 -10l35 -10q42 -14 72.5 -20.5t58.5 -6.5q66 0 92 47v7l2 4v14l3 6v6q0 40 -26 57t-89 17h-35v201h84v-92zM496 201v-185q-53 -21 -88.5 -30
t-69.5 -9q-116 0 -196 106.5t-80 269.5l-3 67v8q-1 10 -1.5 20t-0.5 28v18q0 63 4.5 112.5t16.5 118.5t28 108t48 79q67 90 180 90q66 0 162 -41v-172q-60 45 -104 45q-152 0 -152 -352q0 -326 147 -326q29 0 54.5 10t54.5 35z" />
    <glyph glyph-name="egrave" unicode="&#xe8;" horiz-adv-x="740" 
d="M437 996q143 -26 199 -155q3 -7 11 -37q13 -46 19 -82l8 -41q3 -24 5 -53t2 -85v-35v-26v-25h-449q-1 -8 -1.5 -16.5t-0.5 -22.5v-16q0 -119 31 -189t88 -78l28 -4h6q13 0 31.5 7.5t30.5 17.5q25 24 38.5 62t20.5 110h164q0 -169 -75.5 -259t-213.5 -90
q-156 0 -238 125.5t-82 364.5l5 126l4 49q19 174 96 265t203 91l41 -2zM232 601h272q0 140 -28.5 196t-98.5 56q-46 0 -78.5 -27t-48.5 -78q-7 -23 -12.5 -62.5t-5.5 -84.5zM328 1462l164 -345h-105l-239 345h180z" />
    <glyph glyph-name="eacute" unicode="&#xe9;" horiz-adv-x="740" 
d="M437 996q143 -26 199 -155q3 -7 11 -37q13 -46 19 -82l8 -41q3 -24 5 -53t2 -85v-35v-26v-25h-449q-1 -8 -1.5 -16.5t-0.5 -22.5v-16q0 -119 31 -189t88 -78l28 -4h6q13 0 31.5 7.5t30.5 17.5q25 24 38.5 62t20.5 110h164q0 -169 -75.5 -259t-213.5 -90
q-156 0 -238 125.5t-82 364.5l5 126l4 49q19 174 96 265t203 91l41 -2zM232 601h272q0 140 -28.5 196t-98.5 56q-46 0 -78.5 -27t-48.5 -78q-7 -23 -12.5 -62.5t-5.5 -84.5zM416 1462h181l-240 -345h-105z" />
    <glyph glyph-name="ecircumflex" unicode="&#xea;" horiz-adv-x="740" 
d="M437 996q143 -26 199 -155q3 -7 11 -37q13 -46 19 -82l8 -41q3 -24 5 -53t2 -85v-35v-26v-25h-449q-1 -8 -1.5 -16.5t-0.5 -22.5v-16q0 -119 31 -189t88 -78l28 -4h6q13 0 31.5 7.5t30.5 17.5q25 24 38.5 62t20.5 110h164q0 -169 -75.5 -259t-213.5 -90
q-156 0 -238 125.5t-82 364.5l5 126l4 49q19 174 96 265t203 91l41 -2zM232 601h272q0 140 -28.5 196t-98.5 56q-46 0 -78.5 -27t-48.5 -78q-7 -23 -12.5 -62.5t-5.5 -84.5zM459 1462l148 -349h-105l-131 211l-131 -211h-105l148 349h176z" />
    <glyph glyph-name="edieresis" unicode="&#xeb;" horiz-adv-x="740" 
d="M525 1378q48 0 78 -29t30 -78q0 -45 -29.5 -71.5t-78.5 -26.5q-48 0 -78.5 27.5t-30.5 70.5q0 48 30.5 77.5t78.5 29.5zM170 1185q-19 9 -26.5 14.5t-14.5 18.5q-16 27 -16 53q0 47 30 77t76 30q49 0 79 -29t30 -78q0 -44 -29 -71t-78 -27q-22 0 -39 6zM437 996
q143 -26 199 -155q3 -7 11 -37q13 -46 19 -82l8 -41q3 -24 5 -53t2 -85v-35v-26v-25h-449q-1 -8 -1.5 -16.5t-0.5 -22.5v-16q0 -119 31 -189t88 -78l28 -4h6q13 0 31.5 7.5t30.5 17.5q25 24 38.5 62t20.5 110h164q0 -169 -75.5 -259t-213.5 -90q-156 0 -238 125.5t-82 364.5
l5 126l4 49q19 174 96 265t203 91l41 -2zM232 601h272q0 140 -28.5 196t-98.5 56q-46 0 -78.5 -27t-48.5 -78q-7 -23 -12.5 -62.5t-5.5 -84.5z" />
    <glyph glyph-name="igrave" unicode="&#xec;" horiz-adv-x="408" 
d="M297 982v-982h-180v982h180zM160 1462l164 -345h-105l-240 345h181z" />
    <glyph glyph-name="iacute" unicode="&#xed;" horiz-adv-x="408" 
d="M297 982v-982h-180v982h180zM248 1462h180l-239 -345h-105z" />
    <glyph glyph-name="icircumflex" unicode="&#xee;" horiz-adv-x="408" 
d="M293 1462l148 -349h-105l-131 211l-133 -211h-105l150 349h176zM297 982v-982h-180v982h180z" />
    <glyph glyph-name="idieresis" unicode="&#xef;" horiz-adv-x="408" 
d="M357 1378q47 0 77.5 -28.5t30.5 -74.5q0 -48 -28 -75t-78 -27q-48 0 -79.5 28.5t-31.5 71.5q0 47 30 76t79 29zM51 1378q49 0 79 -29t30 -74q0 -48 -28 -75t-79 -27q-46 0 -77 28t-31 72q0 45 30 75t76 30zM297 982v-982h-180v982h180z" />
    <glyph glyph-name="eth" unicode="&#xf0;" horiz-adv-x="783" 
d="M484 1242l31 -55q82 -146 110.5 -215t57.5 -191q8 -30 13 -56t9 -59l8 -61l7 -105l2 -61v-39q0 -70 -24.5 -154.5t-59.5 -136.5q-21 -32 -54 -62q-16 -14 -28 -22q-25 -18 -47.5 -25t-56.5 -12.5t-58 -5.5q-61 0 -113 18.5t-88 52.5q-57 56 -96.5 167.5t-39.5 222.5
q0 10 2 14l3 70q1 14 1.5 23.5t2.5 15.5l10 53l16 80l11 29l10 24q31 82 98.5 134.5t143.5 52.5q34 0 69 -11.5t68 -33.5l-6 14l-6 17l-13 28l-12 33l-24 43l-7 17q-7 20 -11 28.5t-9 14.5l-2 2l-6 10l-11 14l-6 17q-2 3 -4 6.5t-6 7.5l-12 20l-6 15l-2 4l-173 -76l-51 86
l164 80l-6 6l-25 29l-2 4l-6 10l-4 6l-10 15l-4 8l-2 2l-17 21q-26 32 -37 41l-10 12l-8 8l-6 8l129 76l31 -37q38 -48 71 -91q20 -26 45 -60l169 79l55 -88zM246 410l2 -57l2 -17l2 -14l2 -27q2 -16 13 -44t26 -50q21 -31 42 -42t59 -11q78 0 108 61q25 51 31 123
q2 21 5 75.5t3 61.5v54l-2 33q0 34 -3 53t-11 45l-8 29q-3 12 -5 18.5t-7 16.5t-22 27t-29 23t-42 11l-10 2l-19 2q-49 0 -80 -37q-24 -29 -40.5 -92t-16.5 -129l-2 -60v-37z" />
    <glyph glyph-name="ntilde" unicode="&#xf1;" horiz-adv-x="816" 
d="M293 886q79 106 205 106q215 0 215 -244v-748h-180v660q0 93 -24.5 130.5t-86.5 37.5h-22q-48 0 -77.5 -40.5t-29.5 -106.5v-681h-180v982h180v-96zM568 1398h80q-26 -120 -61.5 -171.5t-92.5 -51.5q-17 0 -34.5 4t-53.5 16l-23 8q-50 15 -67 15q-48 0 -68 -68h-80
q10 58 19.5 87t27.5 61q41 69 105 69q16 0 43.5 -5.5t52.5 -14.5l23 -8q33 -15 61 -15q51 0 68 74z" />
    <glyph glyph-name="ograve" unicode="&#xf2;" horiz-adv-x="785" 
d="M379 -18q-151 0 -235.5 135.5t-84.5 378.5q0 239 85.5 370.5t240.5 131.5q75 0 127 -18.5t89 -59.5q55 -56 88 -172.5t33 -257.5q0 -231 -78.5 -368.5t-210.5 -137.5h-15h-14l-12 -2h-13zM390 146q81 0 116 80t35 266q0 89 -9 162t-26 113q-32 71 -112 71h-4h-11
q-83 0 -109 -104t-26 -242q0 -179 35 -262.5t111 -83.5zM349 1462l164 -345h-105l-240 345h181z" />
    <glyph glyph-name="oacute" unicode="&#xf3;" horiz-adv-x="785" 
d="M379 -18q-151 0 -235.5 135.5t-84.5 378.5q0 239 85.5 370.5t240.5 131.5q75 0 127 -18.5t89 -59.5q55 -56 88 -172.5t33 -257.5q0 -231 -78.5 -368.5t-210.5 -137.5h-15h-14l-12 -2h-13zM390 146q81 0 116 80t35 266q0 89 -9 162t-26 113q-32 71 -112 71h-4h-11
q-83 0 -109 -104t-26 -242q0 -179 35 -262.5t111 -83.5zM437 1462h180l-240 -345h-104z" />
    <glyph glyph-name="ocircumflex" unicode="&#xf4;" horiz-adv-x="785" 
d="M480 1462l149 -349h-104l-133 211l-132 -211h-104l147 349h177zM379 -18q-151 0 -235.5 135.5t-84.5 378.5q0 239 85.5 370.5t240.5 131.5q75 0 127 -18.5t89 -59.5q55 -56 88 -172.5t33 -257.5q0 -231 -78.5 -368.5t-210.5 -137.5h-15h-14l-12 -2h-13zM390 146
q81 0 116 80t35 266q0 89 -9 162t-26 113q-32 71 -112 71h-4h-11q-83 0 -109 -104t-26 -242q0 -179 35 -262.5t111 -83.5z" />
    <glyph glyph-name="otilde" unicode="&#xf5;" horiz-adv-x="785" 
d="M554 1398h79q-25 -119 -61 -171t-94 -52q-25 0 -88 20l-23 8q-48 15 -68 15q-47 0 -67 -68h-80q13 63 21.5 90t25.5 58q41 69 104 69q18 0 47 -6t52 -14l22 -8q35 -15 62 -15q49 0 68 74zM379 -18q-151 0 -235.5 135.5t-84.5 378.5q0 239 85.5 370.5t240.5 131.5
q75 0 127 -18.5t89 -59.5q55 -56 88 -172.5t33 -257.5q0 -231 -78.5 -368.5t-210.5 -137.5h-15h-14l-12 -2h-13zM390 146q81 0 116 80t35 266q0 89 -9 162t-26 113q-32 71 -112 71h-4h-11q-83 0 -109 -104t-26 -242q0 -179 35 -262.5t111 -83.5z" />
    <glyph glyph-name="odieresis" unicode="&#xf6;" horiz-adv-x="785" 
d="M545 1378q47 0 77 -29t30 -76q0 -44 -29 -72t-76 -28q-48 0 -79 28t-31 72q0 48 29.5 76.5t78.5 28.5zM240 1378q47 0 78 -29t31 -76q0 -45 -29.5 -72.5t-77.5 -27.5q-49 0 -80 28t-31 72q0 48 29.5 76.5t79.5 28.5zM379 -18q-151 0 -235.5 135.5t-84.5 378.5
q0 239 85.5 370.5t240.5 131.5q75 0 127 -18.5t89 -59.5q55 -56 88 -172.5t33 -257.5q0 -231 -78.5 -368.5t-210.5 -137.5h-15h-14l-12 -2h-13zM390 146q81 0 116 80t35 266q0 89 -9 162t-26 113q-32 71 -112 71h-4h-11q-83 0 -109 -104t-26 -242q0 -179 35 -262.5
t111 -83.5z" />
    <glyph glyph-name="divide" unicode="&#xf7;" horiz-adv-x="1706" 
d="M853 873q30 0 52 -21t22 -52t-21.5 -52.5t-52.5 -21.5t-52.5 21.5t-21.5 52.5t21 52t53 21zM1456 668v-114h-1206v114h1206zM855 496q31 0 52.5 -21.5t21.5 -52.5t-21 -52t-53 -21q-30 0 -52 21t-22 52t21.5 52.5t52.5 21.5z" />
    <glyph glyph-name="oslash" unicode="&#xf8;" horiz-adv-x="785" 
d="M613 904q64 -88 91 -216q20 -93 20 -204q0 -240 -87 -372.5t-245 -132.5q-79 0 -173 50l-34 -80l-68 30l43 109q-55 92 -69 133q-34 102 -34 287q0 233 92 366t253 133q74 0 152 -46l38 93l68 -33zM260 297l220 500q-40 46 -84 46q-72 0 -113 -87.5t-41 -245.5
q0 -90 18 -213zM297 201q22 -28 44 -40.5t51 -12.5q83 0 121 106q30 85 30 226q0 58 -5 109.5t-17 115.5z" />
    <glyph glyph-name="ugrave" unicode="&#xf9;" horiz-adv-x="816" 
d="M709 982v-693q0 -159 -72.5 -234.5t-226.5 -75.5q-156 0 -228.5 74.5t-72.5 235.5v693h180v-701q0 -60 34 -100t87 -40t86 39t33 101v701h180zM365 1462l164 -345h-105l-239 345h180z" />
    <glyph glyph-name="uacute" unicode="&#xfa;" horiz-adv-x="816" 
d="M709 982v-693q0 -159 -72.5 -234.5t-226.5 -75.5q-156 0 -228.5 74.5t-72.5 235.5v693h180v-701q0 -60 34 -100t87 -40t86 39t33 101v701h180zM453 1462h180l-239 -345h-105z" />
    <glyph glyph-name="ucircumflex" unicode="&#xfb;" horiz-adv-x="816" 
d="M709 982v-693q0 -159 -72.5 -234.5t-226.5 -75.5q-156 0 -228.5 74.5t-72.5 235.5v693h180v-701q0 -60 34 -100t87 -40t86 39t33 101v701h180zM496 1462l148 -349h-105l-131 211l-131 -211h-105l148 349h176z" />
    <glyph glyph-name="udieresis" unicode="&#xfc;" horiz-adv-x="816" 
d="M560 1378q48 0 78 -29t30 -74q0 -48 -28 -75t-78 -27q-47 0 -78 28t-31 72q0 45 30 75t77 30zM256 1378q49 0 79 -28t30 -75t-29.5 -74.5t-79.5 -27.5q-48 0 -78 28t-30 72q0 48 29.5 76.5t78.5 28.5zM709 982v-693q0 -159 -72.5 -234.5t-226.5 -75.5q-156 0 -228.5 74.5
t-72.5 235.5v693h180v-701q0 -60 34 -100t87 -40t86 39t33 101v701h180z" />
    <glyph glyph-name="yacute" unicode="&#xfd;" horiz-adv-x="672" 
d="M484 982h176l-391 -1374h-189l152 480l-203 894h184l115 -646zM379 1462h181l-240 -345h-105z" />
    <glyph glyph-name="thorn" unicode="&#xfe;" horiz-adv-x="802" 
d="M285 890q79 110 187 110q45 0 91.5 -20.5t76.5 -54.5q37 -45 55 -111q15 -57 25 -135t10 -144v-16v-6l-2 -19v-25v-28v-25q0 -210 -65 -321t-187 -111q-61 0 -104.5 26t-86.5 90v-492h-180v1946h180v-664zM549 492v49q0 153 -34 223t-109 70q-129 0 -129 -342v-61
q0 -120 26 -197q16 -44 41 -63t68 -19q73 0 101 55q36 74 36 230v55z" />
    <glyph glyph-name="ydieresis" unicode="&#xff;" horiz-adv-x="672" 
d="M488 1378q49 0 79 -29t30 -74q0 -48 -28 -75t-79 -27q-47 0 -78 28t-31 72q0 47 30 76t77 29zM182 1378q49 0 80 -29t31 -74q0 -48 -28 -75t-78 -27q-48 0 -79.5 28.5t-31.5 71.5q0 47 30 76t76 29zM484 982h176l-391 -1374h-189l152 480l-203 894h184l115 -646z" />
    <glyph glyph-name="breve" unicode="&#x2d8;" horiz-adv-x="1025" 
d="M652 1433h96q-13 -158 -67 -224.5t-168 -66.5q-118 0 -175 67q-61 71 -61 224h96q0 -75 34.5 -109.5t105.5 -34.5q73 0 106 33t33 111z" />
    <glyph glyph-name="dotaccent" unicode="&#x2d9;" horiz-adv-x="1025" 
d="M513 1378q48 0 79 -29t31 -74q0 -48 -29 -75t-77 -27q-49 0 -80 28t-31 72q0 47 29 76t78 29z" />
    <glyph glyph-name="dotlessi" unicode="&#x131;" horiz-adv-x="408" 
d="M297 982v-982h-180v982h180z" />
    <glyph glyph-name="ring" unicode="&#x2da;" horiz-adv-x="672" 
d="M334 1458q119 0 203 -84t84 -203q0 -114 -84.5 -197.5t-200.5 -83.5q-111 0 -196 81t-85 187q0 124 81 212t198 88zM334 970q88 0 145.5 57.5t57.5 145.5q0 86 -56.5 143.5t-144.5 57.5q-87 0 -143 -57t-56 -146q0 -87 56 -144t141 -57z" />
    <glyph glyph-name="ogonek" unicode="&#x2db;" horiz-adv-x="1025" 
d="M664 2q-61 -27 -130 -113q-55 -69 -55 -129q0 -6 0.5 -12t6 -26.5t43 -37.5t86.5 -17q58 0 109 23q60 27 102 82q0 -122 -78 -185q-67 -54 -174 -54q-79 0 -146.5 29t-91.5 75q-17 34 -17 74q0 71 55 141q64 81 192 150h98z" />
    <glyph glyph-name="caron" unicode="&#x2c7;" horiz-adv-x="1025" 
d="M644 1462h104l-147 -349h-177l-147 349h104l132 -211z" />
    <glyph glyph-name="Lslash" unicode="&#x141;" horiz-adv-x="773" 
d="M131 851v611h197v-496l82 47l78 -140l-160 -92v-596h420v-185h-617v666l-92 -53l-80 139z" />
    <glyph glyph-name="lslash" unicode="&#x142;" horiz-adv-x="408" 
d="M117 851v703h180v-599l99 58l78 -140l-177 -102v-771h-180v666l-92 -53l-80 139z" />
    <glyph glyph-name="fraction" unicode="&#x2215;" horiz-adv-x="344" 
d="M545 1482h136l-882 -1498h-139z" />
    <glyph glyph-name="fi" unicode="&#xf001;" horiz-adv-x="841" 
d="M453 1550v-164q-33 6 -47.5 8t-22.5 2q-75 0 -75 -94v-320h137v-141h-137v-841h-183v841h-96v141h96v342q0 117 55.5 180.5t157.5 63.5q52 0 115 -18zM636 1386q49 0 80.5 -30.5t31.5 -80.5t-32.5 -81.5t-82.5 -31.5t-81 30t-31 81t31 82t84 31zM726 982v-982h-181v982
h181z" />
    <glyph glyph-name="fl" unicode="&#xf002;" horiz-adv-x="841" 
d="M453 1550v-164q-33 6 -47.5 8t-22.5 2q-75 0 -75 -94v-320h137v-141h-137v-841h-183v841h-96v141h96v342q0 117 55.5 180.5t157.5 63.5q52 0 115 -18zM726 1554v-1554h-181v1554h181z" />
    <glyph glyph-name="Zcaron" unicode="&#x17d;" horiz-adv-x="785" 
d="M88 1462h673l-468 -1277h429v-185h-701l471 1289h-404v173zM549 1941h107l-150 -348h-176l-148 348h105l131 -211z" />
    <glyph glyph-name="zcaron" unicode="&#x17e;" horiz-adv-x="677" 
d="M47 982h601l-363 -822h336v-160h-592l363 824h-345v158zM467 1462h105l-148 -349h-176l-150 349h107l131 -211z" />
    <glyph glyph-name="c274" unicode="&#x112;" horiz-adv-x="3360" 
d="M3327 312h-508q0 -74 35 -106q27 -24 73 -24q41 0 82 28t48 28h237q-81 -121 -166 -169t-223 -48q-140 0 -206 37q-58 32 -128 137q-8 -19 -15 -39q-13 -37 -13 -61q0 -17 4 -31t16 -31h-228q-65 0 -89 22q-30 28 -30 107q0 21 18.5 153t34.5 212h-129
q-11 -22 -32.5 -130.5t-40.5 -219t-23 -144.5h-269l74 430h-20l-216 -430h-258v344h-55l-140 -344h-258q-15 71 -24 141.5t-9 106.5h-33q-38 -140 -179 -211q-119 -60 -284 -60q-152 0 -242 68q-68 51 -96 138q-17 52 -17 108h292q13 -54 48 -78q30 -20 81 -20q36 0 74 20
q43 23 43 55q0 46 -117 75q-171 43 -217 68q-117 63 -117 192q0 171 148 265q125 79 303 79q152 0 238 -66q98 -75 98 -225h-281q-21 44 -47.5 60t-71.5 16q-33 0 -59.5 -18t-26.5 -46q0 -34 54 -52q73 -21 147 -42q114 -37 213 -101v55q-1 8 -1 16q0 14 7 48h228
q0 -26 19.5 -136.5t33.5 -154.5l119 291h268v-301h44q10 40 40 109t46 94h354q16 29 24.5 72.5t8.5 89.5h-119q60 167 61 169q32 61 101.5 81t257.5 20v-172h-33.5t-29.5 1q-37 0 -52 -14.5t-34 -72.5h149q7 47 11 74q13 78 24 119h259q-10 -45 -18 -94q-2 -14 -15 -111h129
l-12 -64q99 57 126 67q77 30 187 30q175 0 247 -86q77 -92 77 -324zM3069 453q0 56 -29 79q-21 17 -57 17q-51 0 -81 -34q-27 -44 -40 -62h207zM2606 517h-56q-8 -46 -16 -97q-17 -108 -17 -148q0 -14 2 -24h31q0 20 -0.5 37t-0.5 32q0 36 9 64q22 60 48 136z" />
  </font>
</defs>
</svg>
