<?xml version="1.0" standalone="no"?>
<!DOCTYPE svg PUBLIC "-//W3C//DTD SVG 1.1//EN" "http://www.w3.org/Graphics/SVG/1.1/DTD/svg11.dtd" >
<svg>
<metadata>
Created by FontForge 20110222 at Fri Jun 22 11:13:11 2012
 By Stefan Warting
Copyright (c) 1988, 1990, 1993, 2003 Linotype Library GmbH, www.linotype.com. All rights reserved. Copyright (c) 1988, 1990, 1993 Adobe Systems Incorporated. All Rights Reserved.
</metadata>
<defs>
<font id="HelveticaNeueLTPro-Cn" horiz-adv-x="463" >
  <font-face 
    font-family="Helvetica Neue LT Pro"
    font-weight="400"
    font-stretch="normal"
    units-per-em="1000"
    panose-1="2 11 5 6 3 5 2 3 2 4"
    ascent="714"
    descent="-286"
    x-height="536"
    cap-height="714"
    bbox="-164 -214 1000 943"
    underline-thickness="50"
    underline-position="-50"
    stemh="66"
    stemv="84"
    unicode-range="U+000D-FB02"
  />
<missing-glyph horiz-adv-x="512" 
d="M222 117h56v67h-56v-67zM225 234h46c0 35 2 59 6 72s18 30 43 52c51 47 63 77 63 120c0 79 -53 131 -124 131c-72 0 -126 -42 -135 -137l50 -8c8 68 41 95 82 95s76 -37 76 -85c0 -25 -7 -42 -50 -83c-22 -22 -37 -42 -46 -59s-13 -44 -13 -81zM462 50h-412v617h412v-617
zM512 718h-512v-718h512v718z" />
    <glyph glyph-name="fi" unicode="fi" 
d="M319 618v96h84v-96h-84zM319 0v536h84v-536h-84zM80 0v470h-78v66h78v63c0 81 35 123 116 123h61v-72h-39c-36 0 -54 -14 -54 -51v-63h92v-66h-92v-470h-84z" />
    <glyph glyph-name="fl" unicode="fl" 
d="M319 0v714h84v-714h-84zM80 0v470h-78v66h78v63c0 81 35 123 116 123h61v-72h-39c-36 0 -54 -14 -54 -51v-63h92v-66h-92v-470h-84z" />
    <glyph glyph-name="napostrophe" unicode="&#x22;n" 
d="M55 0v536h80v-63h2c23 49 78 77 130 77c141 0 141 -106 141 -170v-380h-84v370c0 41 -3 108 -79 108c-45 0 -106 -31 -106 -108v-370h-84zM12 714v91h83v-80c0 -54 -26 -76 -78 -80v26c17 5 31 10 34 43h-39z" />
    <glyph glyph-name="IJ" unicode="IJ" horiz-adv-x="622" 
d="M58 0v714h88v-714h-88zM564 714v-509c0 -127 -32 -219 -179 -219c-119 0 -167 78 -167 163v59h84v-52c0 -59 22 -98 82 -98c80 0 92 51 92 150v506h88z" />
    <glyph glyph-name="ij" unicode="ij" horiz-adv-x="410" 
d="M60 618v96h84v-96h-84zM60 0v536h84v-536h-84zM350 714v-96h-84v96h84zM350 536v-588c0 -88 -36 -132 -128 -132c-13 0 -26 2 -39 3v72c11 -1 20 -3 31 -3c52 0 52 39 52 90v558h84z" />
    <glyph glyph-name=".notdef" horiz-adv-x="512" 
d="M222 117h56v67h-56v-67zM225 234h46c0 35 2 59 6 72s18 30 43 52c51 47 63 77 63 120c0 79 -53 131 -124 131c-72 0 -126 -42 -135 -137l50 -8c8 68 41 95 82 95s76 -37 76 -85c0 -25 -7 -42 -50 -83c-22 -22 -37 -42 -46 -59s-13 -44 -13 -81zM462 50h-412v617h412v-617
zM512 718h-512v-718h512v718z" />
    <glyph glyph-name="space" unicode=" " horiz-adv-x="240" 
 />
    <glyph glyph-name="exclam" unicode="!" horiz-adv-x="258" 
d="M83 0v96h92v-96h-92zM99 186l-16 528h92l-16 -528h-60z" />
    <glyph glyph-name="quotedbl" unicode="&#x22;" horiz-adv-x="407" 
d="M254 460v254h66v-254h-66zM87 460v254h66v-254h-66z" />
    <glyph glyph-name="numbersign" unicode="#" horiz-adv-x="480" 
d="M198 425l-19 -154h106l19 154h-106zM79 0l26 205h-82v66h90l19 154h-87v66h96l25 203h66l-25 -203h106l25 203h66l-25 -203h78v-66h-87l-19 -154h83v-66h-91l-26 -205h-66l26 205h-106l-26 -205h-66z" />
    <glyph glyph-name="dollar" unicode="$" horiz-adv-x="480" 
d="M217 708v58h42v-58c123 -7 177 -71 180 -194h-88c0 65 -23 115 -92 122v-245c92 -32 200 -53 200 -198c0 -149 -105 -202 -200 -207v-94h-42v94c-151 5 -196 89 -196 232h88c0 -73 3 -149 108 -160v262c-91 29 -187 59 -187 196c0 64 26 181 187 192zM217 405v231
c-61 -8 -95 -46 -95 -111c0 -68 40 -99 95 -120zM259 306v-248c63 5 108 52 108 121c0 74 -48 105 -108 127z" />
    <glyph glyph-name="percent" unicode="%" horiz-adv-x="759" 
d="M582 -14c-120 0 -131 92 -131 192s11 192 131 192s131 -92 131 -192s-11 -192 -131 -192zM177 324c-120 0 -131 92 -131 192s11 192 131 192s131 -92 131 -192s-11 -192 -131 -192zM582 40c56 0 59 55 59 138s-3 138 -59 138s-59 -55 -59 -138s3 -138 59 -138zM186 -14
l310 722h70l-310 -722h-70zM177 378c56 0 59 55 59 138s-3 138 -59 138s-59 -55 -59 -138s3 -138 59 -138z" />
    <glyph glyph-name="ampersand" unicode="&#x26;" horiz-adv-x="556" 
d="M275 400l141 -202c15 36 23 75 28 139h78c0 -53 -31 -173 -58 -208l92 -129h-95l-48 67c-55 -53 -98 -81 -176 -81c-174 0 -212 134 -212 198c0 75 38 140 97 185l52 39l-22 36c-27 40 -52 79 -52 130c0 84 67 140 148 140c91 0 151 -39 151 -136
c0 -70 -49 -115 -98 -156zM372 127l-157 227c-57 -35 -102 -87 -102 -163c0 -87 61 -133 131 -133c56 0 93 30 128 69zM238 453l19 18c32 31 64 59 64 107c0 41 -29 70 -72 70s-71 -29 -71 -70c0 -32 20 -68 43 -101z" />
    <glyph glyph-name="quoteright" unicode="&#x2019;" horiz-adv-x="240" 
d="M74 608v106h92v-87c0 -76 -7 -143 -92 -167v47c35 17 44 37 44 77v24h-44z" />
    <glyph glyph-name="parenleft" unicode="(" horiz-adv-x="241" 
d="M189 714h48c-81 -133 -110 -293 -110 -449c0 -163 35 -305 110 -449h-48c-95 129 -146 290 -146 449c0 160 50 318 146 449z" />
    <glyph glyph-name="parenright" unicode=")" horiz-adv-x="241" 
d="M52 -184h-48c81 133 110 293 110 449c0 163 -35 305 -110 449h48c95 -129 146 -290 146 -449c0 -160 -50 -318 -146 -449z" />
    <glyph glyph-name="asterisk" unicode="*" horiz-adv-x="352" 
d="M146 595v119h60v-119l107 41l22 -58l-113 -34l76 -94l-50 -37l-72 102l-72 -102l-50 37l76 94l-113 34l22 58z" />
    <glyph glyph-name="plus" unicode="+" horiz-adv-x="600" 
d="M267 0v220h-220v66h220v220h66v-220h220v-66h-220v-220h-66z" />
    <glyph glyph-name="comma" unicode="," horiz-adv-x="240" 
d="M74 0v106h92v-87c0 -76 -7 -143 -92 -167v47c35 17 44 37 44 77v24h-44z" />
    <glyph glyph-name="hyphen" unicode="-" horiz-adv-x="352" 
d="M54 245v78h244v-78h-244z" />
    <glyph glyph-name="period" unicode="." horiz-adv-x="240" 
d="M74 0v106h92v-106h-92z" />
    <glyph glyph-name="slash" unicode="/" horiz-adv-x="278" 
d="M-10 -14l232 742h66l-232 -742h-66z" />
    <glyph glyph-name="zero" unicode="0" horiz-adv-x="480" 
d="M126 344c0 -149 6 -292 114 -292s114 143 114 292c0 156 -6 298 -114 298s-114 -142 -114 -298zM240 -14c-192 0 -202 190 -202 358c0 156 10 364 202 364s202 -191 202 -364c0 -149 -10 -358 -202 -358z" />
    <glyph glyph-name="one" unicode="1" horiz-adv-x="480" 
d="M67 532v60c89 5 170 15 175 116h60v-708h-84v532h-151z" />
    <glyph glyph-name="two" unicode="2" horiz-adv-x="480" 
d="M438 78v-78h-396c0 132 74 222 153 290l58 49c57 49 94 92 94 170c0 60 -27 127 -103 127c-109 0 -112 -113 -112 -153h-88c0 133 56 225 201 225c164 0 190 -128 190 -189c0 -107 -45 -167 -124 -233l-100 -87c-39 -33 -66 -74 -77 -121h304z" />
    <glyph glyph-name="three" unicode="3" horiz-adv-x="480" 
d="M180 333v66h44c75 0 108 54 108 125c0 64 -24 118 -92 118c-92 0 -102 -87 -102 -138h-88c0 120 57 204 188 204c148 0 182 -104 182 -184c0 -72 -35 -133 -110 -152v-2c80 -16 131 -66 131 -165c0 -129 -65 -219 -201 -219c-190 0 -201 165 -201 197v9h88
c0 -65 33 -140 113 -140c52 0 113 26 113 146c0 84 -40 135 -128 135h-45z" />
    <glyph glyph-name="four" unicode="4" horiz-adv-x="480" 
d="M30 250l256 458h84v-465h80v-72h-80v-171h-84v171h-256v79zM284 570l-178 -327h180v327h-2z" />
    <glyph glyph-name="five" unicode="5" horiz-adv-x="480" 
d="M58 331l39 363h316v-78h-249l-28 -205l2 -2c29 35 76 53 124 53c107 0 178 -84 178 -233c0 -132 -58 -243 -206 -243c-168 0 -194 139 -194 196h88c0 -37 14 -130 108 -130c100 0 116 112 116 184c0 78 -29 160 -118 160c-61 0 -100 -52 -100 -69z" />
    <glyph glyph-name="six" unicode="6" horiz-adv-x="480" 
d="M133 216c0 -75 24 -164 112 -164s112 89 112 164s-19 164 -112 164s-112 -89 -112 -164zM429 538h-88c0 60 -33 104 -93 104c-117 0 -125 -176 -125 -213v-56h2c13 27 58 79 135 79c123 0 185 -92 185 -224c0 -137 -68 -242 -200 -242c-196 0 -210 189 -210 336
c0 162 10 386 215 386c164 0 179 -137 179 -170z" />
    <glyph glyph-name="seven" unicode="7" horiz-adv-x="480" 
d="M38 616v78h404v-73c-39 -51 -95 -136 -139 -243c-45 -109 -84 -233 -97 -378h-98c13 108 42 217 86 322c43 105 99 203 168 294h-324z" />
    <glyph glyph-name="eight" unicode="8" horiz-adv-x="480" 
d="M125 198c0 -84 33 -146 115 -146s115 62 115 146s-33 146 -115 146s-115 -62 -115 -146zM240 642c-65 0 -93 -48 -93 -116c0 -67 28 -116 93 -116c64 0 93 49 93 116c0 68 -29 116 -93 116zM37 195c0 94 42 155 125 182c-72 29 -103 75 -103 151c0 115 68 180 181 180
s181 -65 181 -180c0 -76 -31 -122 -103 -151c83 -27 125 -88 125 -182c0 -93 -44 -209 -203 -209s-203 116 -203 209z" />
    <glyph glyph-name="nine" unicode="9" horiz-adv-x="480" 
d="M347 478c0 75 -24 164 -112 164s-112 -89 -112 -164s19 -164 112 -164s112 89 112 164zM51 156h88c0 -59 33 -104 93 -104c117 0 125 177 125 213v56h-2c-13 -27 -58 -79 -135 -79c-123 0 -185 92 -185 224c0 137 68 242 200 242c196 0 210 -190 210 -336
c0 -162 -10 -386 -215 -386c-164 0 -179 137 -179 170z" />
    <glyph glyph-name="colon" unicode=":" horiz-adv-x="240" 
d="M74 0v106h92v-106h-92zM74 400v106h92v-106h-92z" />
    <glyph glyph-name="semicolon" unicode=";" horiz-adv-x="240" 
d="M74 400v106h92v-106h-92zM74 0v106h92v-87c0 -76 -7 -143 -92 -167v47c35 17 44 37 44 77v24h-44z" />
    <glyph glyph-name="semicolon" unicode="&#x37e;" horiz-adv-x="240" 
d="M74 400v106h92v-106h-92zM74 0v106h92v-87c0 -76 -7 -143 -92 -167v47c35 17 44 37 44 77v24h-44z" />
    <glyph glyph-name="less" unicode="&#x3c;" horiz-adv-x="600" 
d="M47 223v60l506 231v-66l-428 -195l428 -195v-66z" />
    <glyph glyph-name="equal" unicode="=" horiz-adv-x="600" 
d="M47 118v66h506v-66h-506zM47 322v66h506v-66h-506z" />
    <glyph glyph-name="greater" unicode="&#x3e;" horiz-adv-x="600" 
d="M47 -8v66l428 195l-428 195v66l506 -231v-60z" />
    <glyph glyph-name="question" unicode="?" horiz-adv-x="444" 
d="M165 0v96h92v-96h-92zM119 504h-84c0 117 57 218 186 218c120 0 188 -81 188 -188c0 -51 -18 -102 -50 -141c-10 -13 -70 -77 -78 -88c-25 -32 -32 -69 -32 -100v-19h-78c0 40 0 87 19 123c24 43 77 98 101 128c23 31 30 57 30 102c0 59 -32 111 -97 111
c-96 0 -105 -97 -105 -146z" />
    <glyph glyph-name="at" unicode="@" horiz-adv-x="800" 
d="M524 487l22 63h56l-84 -282c-5 -17 -9 -30 -9 -45s10 -26 29 -26c91 0 167 107 167 218c0 151 -134 253 -305 253c-172 0 -305 -136 -305 -311c0 -179 133 -311 305 -311c124 0 216 38 271 111h63c-64 -111 -179 -171 -334 -171c-205 0 -371 166 -371 371
s166 371 371 371c216 0 371 -129 371 -309c0 -173 -140 -282 -258 -282c-40 0 -65 18 -70 59h-2c-31 -32 -66 -59 -125 -59c-73 0 -142 61 -142 150c0 139 93 282 234 282c49 0 93 -21 114 -82h2zM240 293c0 -56 39 -96 94 -96c93 0 155 136 155 212c0 44 -30 100 -81 100
c-97 0 -168 -123 -168 -216z" />
    <glyph glyph-name="A" unicode="A" horiz-adv-x="500" 
d="M254 613l-99 -345h192l-91 345h-2zM-8 0l206 714h118l192 -714h-92l-51 196h-228l-53 -196h-92z" />
    <glyph glyph-name="B" unicode="B" horiz-adv-x="519" 
d="M146 642v-236h101c37 0 121 9 121 119c0 75 -36 117 -123 117h-99zM58 0v714h219c93 0 183 -44 183 -183c0 -65 -39 -130 -104 -149v-2c88 -21 127 -88 127 -176c0 -145 -82 -204 -231 -204h-194zM146 340v-268h120c93 0 125 63 125 132c0 98 -63 136 -140 136h-105z" />
    <glyph glyph-name="C" unicode="C" horiz-adv-x="519" 
d="M403 245h92c-8 -135 -61 -259 -217 -259c-203 0 -230 191 -230 371s33 371 230 371c145 0 207 -82 211 -222h-92c-3 81 -28 150 -119 150c-122 0 -138 -134 -138 -299s16 -299 138 -299c107 0 122 100 125 187z" />
    <glyph glyph-name="D" unicode="D" horiz-adv-x="556" 
d="M67 0v714h191c221 0 250 -160 250 -357c0 -180 -45 -357 -241 -357h-200zM155 642v-570h92c152 0 169 156 169 284c0 138 -9 286 -169 286h-92z" />
    <glyph glyph-name="E" unicode="E" 
d="M58 0v714h369v-78h-281v-224h265v-78h-265v-256h293v-78h-381z" />
    <glyph glyph-name="F" unicode="F" horiz-adv-x="444" 
d="M58 0v714h369v-78h-281v-224h265v-78h-265v-334h-88z" />
    <glyph glyph-name="G" unicode="G" horiz-adv-x="537" 
d="M489 516h-92c-5 75 -31 140 -119 140c-122 0 -138 -134 -138 -299s16 -299 138 -299s131 146 131 241h-141v72h221v-371h-66v97h-2c-19 -61 -75 -111 -154 -111c-187 0 -219 179 -219 371c0 180 33 371 230 371c204 0 211 -175 211 -212z" />
    <glyph glyph-name="H" unicode="H" horiz-adv-x="537" 
d="M479 714v-714h-88v344h-245v-344h-88v714h88v-292h245v292h88z" />
    <glyph glyph-name="I" unicode="I" horiz-adv-x="204" 
d="M58 0v714h88v-714h-88z" />
    <glyph glyph-name="J" unicode="J" horiz-adv-x="426" 
d="M368 714v-509c0 -127 -32 -219 -179 -219c-119 0 -167 78 -167 163v59h84v-52c0 -59 22 -98 82 -98c80 0 92 51 92 150v506h88z" />
    <glyph glyph-name="K" unicode="K" horiz-adv-x="500" 
d="M58 0v714h88v-346h2l247 346h98l-216 -298l234 -416h-98l-193 344l-74 -101v-243h-88z" />
    <glyph glyph-name="L" unicode="L" horiz-adv-x="444" 
d="M58 0v714h88v-636h290v-78h-378z" />
    <glyph glyph-name="M" unicode="M" horiz-adv-x="704" 
d="M60 0v714h148l143 -566h2l143 566h148v-714h-88v624h-2l-158 -624h-88l-158 624h-2v-624h-88z" />
    <glyph glyph-name="N" unicode="N" horiz-adv-x="556" 
d="M58 0v714h114l236 -596h2v596h88v-714h-121l-229 578h-2v-578h-88z" />
    <glyph glyph-name="O" unicode="O" horiz-adv-x="556" 
d="M278 656c-122 0 -138 -134 -138 -299s16 -299 138 -299s138 134 138 299s-16 299 -138 299zM278 728c197 0 230 -191 230 -371s-33 -371 -230 -371s-230 191 -230 371s33 371 230 371z" />
    <glyph glyph-name="P" unicode="P" horiz-adv-x="481" 
d="M146 642v-268h105c64 0 118 44 118 139c0 79 -36 129 -124 129h-99zM58 0v714h182c61 0 221 0 221 -205c0 -133 -85 -207 -206 -207h-109v-302h-88z" />
    <glyph glyph-name="Q" unicode="Q" horiz-adv-x="556" 
d="M343 75l-69 62l49 54l66 -60c23 55 27 134 27 226c0 165 -16 299 -138 299s-138 -134 -138 -299s16 -299 138 -299c26 0 48 6 65 17zM473 -43l-72 65c-31 -23 -72 -36 -123 -36c-197 0 -230 191 -230 371s33 371 230 371s230 -191 230 -371c0 -102 -10 -211 -58 -282
l72 -66z" />
    <glyph glyph-name="R" unicode="R" horiz-adv-x="519" 
d="M146 642v-252h87c52 0 147 -1 147 138c0 71 -46 114 -129 114h-105zM58 0v714h231c113 0 183 -66 183 -179c0 -76 -27 -161 -110 -180v-2c63 -7 97 -58 101 -119l6 -122c3 -79 17 -99 38 -112h-106c-16 16 -21 68 -24 103l-6 111c-8 98 -61 104 -106 104h-119v-318h-88z
" />
    <glyph glyph-name="S" unicode="S" horiz-adv-x="500" 
d="M449 529h-88c0 75 -27 127 -111 127c-75 0 -118 -40 -118 -116c0 -201 337 -81 337 -342c0 -165 -121 -212 -222 -212c-167 0 -216 86 -216 238h88c0 -80 6 -166 134 -166c70 0 124 50 124 126c0 202 -337 85 -337 347c0 66 28 197 209 197c137 0 197 -67 200 -199z" />
    <glyph glyph-name="T" unicode="T" 
d="M275 636v-636h-88v636h-179v78h447v-78h-180z" />
    <glyph glyph-name="U" unicode="U" horiz-adv-x="519" 
d="M50 212v502h88v-502c0 -105 33 -154 121 -154c93 0 122 54 122 154v502h88v-502c0 -137 -70 -226 -210 -226c-144 0 -209 78 -209 226z" />
    <glyph glyph-name="V" unicode="V" horiz-adv-x="462" 
d="M172 0l-174 714h92l140 -613h2l140 613h92l-180 -714h-112z" />
    <glyph glyph-name="W" unicode="W" horiz-adv-x="722" 
d="M150 0l-142 714h88l109 -584h2l101 584h106l101 -584h2l109 584h88l-147 -714h-107l-98 578h-2l-103 -578h-107z" />
    <glyph glyph-name="X" unicode="X" horiz-adv-x="481" 
d="M192 363l-176 351h98l130 -267l131 267h92l-178 -351l190 -363h-98l-142 286l-145 -286h-92z" />
    <glyph glyph-name="Y" unicode="Y" horiz-adv-x="462" 
d="M187 280l-189 434h97l136 -334l141 334h92l-189 -434v-280h-88v280z" />
    <glyph glyph-name="Z" unicode="Z" 
d="M23 0v74l321 562h-303v78h395v-81l-321 -555h325v-78h-417z" />
    <glyph glyph-name="bracketleft" unicode="[" horiz-adv-x="259" 
d="M78 -184v898h179v-66h-101v-766h101v-66h-179z" />
    <glyph glyph-name="backslash" unicode="\" horiz-adv-x="278" 
d="M222 -14l-232 742h66l232 -742h-66z" />
    <glyph glyph-name="bracketright" unicode="]" horiz-adv-x="259" 
d="M181 714v-898h-179v66h101v766h-101v66h179z" />
    <glyph glyph-name="asciicircum" unicode="^" horiz-adv-x="600" 
d="M47 261l229 433h48l229 -433h-66l-187 361l-187 -361h-66z" />
    <glyph glyph-name="underscore" unicode="_" horiz-adv-x="500" 
d="M0 -125v50h500v-50h-500z" />
    <glyph glyph-name="quoteleft" unicode="&#x2018;" horiz-adv-x="240" 
d="M166 566v-106h-92v87c0 76 7 143 92 167v-47c-35 -17 -44 -37 -44 -77v-24h44z" />
    <glyph glyph-name="a" unicode="a" horiz-adv-x="444" 
d="M301 154v138c-33 -33 -105 -38 -143 -63c-27 -17 -41 -38 -41 -85c0 -55 19 -92 76 -92c56 0 108 46 108 102zM126 374h-84c0 121 52 176 180 176c163 0 163 -98 163 -154v-299c0 -23 -1 -43 26 -43c11 0 16 2 20 5v-60c-7 -1 -28 -5 -49 -5c-31 0 -73 0 -76 69h-2
c-27 -48 -78 -77 -129 -77c-100 0 -146 60 -146 156c0 76 32 127 101 148l113 34c62 19 61 37 61 81c0 51 -30 79 -86 79c-92 0 -92 -85 -92 -105v-5z" />
    <glyph glyph-name="b" unicode="b" 
d="M55 0v714h84v-239h2c19 47 69 75 124 75c145 0 163 -170 163 -282c0 -151 -51 -282 -175 -282c-58 0 -105 40 -116 80h-2v-66h-80zM134 268c0 -109 17 -210 108 -210c77 0 98 87 98 210c0 128 -21 210 -98 210c-91 0 -108 -106 -108 -210z" />
    <glyph glyph-name="c" unicode="c" horiz-adv-x="426" 
d="M394 373h-84c0 52 -21 111 -85 111c-52 0 -105 -26 -105 -222c0 -69 1 -210 102 -210c72 0 88 76 88 134h84c0 -84 -42 -200 -176 -200c-132 0 -186 90 -186 275c0 133 26 289 191 289c147 0 171 -116 171 -177z" />
    <glyph glyph-name="d" unicode="d" 
d="M408 714v-714h-80v66h-2c-11 -40 -58 -80 -116 -80c-127 0 -175 114 -175 282c0 112 17 282 169 282c48 0 99 -28 118 -75h2v239h84zM123 268c0 -128 21 -210 98 -210c92 0 108 87 108 210c0 104 -17 210 -108 210c-77 0 -98 -82 -98 -210z" />
    <glyph glyph-name="e" unicode="e" horiz-adv-x="444" 
d="M407 258h-282c0 -83 0 -206 103 -206c80 0 91 83 91 124h84c0 -57 -33 -190 -180 -190c-132 0 -186 90 -186 275c0 133 26 289 191 289c164 0 179 -142 179 -258v-34zM128 324h191v29c0 60 -18 131 -93 131c-88 0 -98 -108 -98 -140v-20z" />
    <glyph glyph-name="f" unicode="f" horiz-adv-x="259" 
d="M80 0v470h-78v66h78v63c0 81 35 123 116 123h61v-72h-39c-36 0 -54 -14 -54 -51v-63h92v-66h-92v-470h-84z" />
    <glyph glyph-name="g" unicode="g" 
d="M408 536v-502c0 -160 -75 -218 -182 -218c-33 0 -163 0 -176 134h84c4 -49 42 -68 86 -68c108 0 104 83 104 120v70h-2c-19 -45 -68 -72 -121 -72c-156 0 -166 197 -166 268c0 145 39 282 175 282c59 0 105 -39 116 -82h2v68h80zM221 478c-77 0 -98 -82 -98 -210
c0 -87 13 -196 97 -196c92 0 109 86 109 196c0 104 -17 210 -108 210z" />
    <glyph glyph-name="h" unicode="h" 
d="M55 0v714h84v-239h2c22 44 81 75 129 75c139 0 138 -106 138 -170v-380h-84v370c0 41 -3 108 -79 108c-45 0 -106 -31 -106 -108v-370h-84z" />
    <glyph glyph-name="i" unicode="i" horiz-adv-x="204" 
d="M60 618v96h84v-96h-84zM60 0v536h84v-536h-84z" />
    <glyph glyph-name="j" unicode="j" horiz-adv-x="204" 
d="M144 714v-96h-84v96h84zM144 536v-588c0 -88 -36 -132 -128 -132c-13 0 -26 2 -39 3v72c11 -1 20 -3 31 -3c52 0 52 39 52 90v558h84z" />
    <glyph glyph-name="k" unicode="k" horiz-adv-x="444" 
d="M264 334l191 -334h-98l-149 265l-69 -84v-181h-84v714h84v-425h2l188 247h98z" />
    <glyph glyph-name="l" unicode="l" horiz-adv-x="204" 
d="M60 0v714h84v-714h-84z" />
    <glyph glyph-name="m" unicode="m" horiz-adv-x="722" 
d="M63 0v536h80v-63h2c23 49 78 77 130 77c63 0 99 -24 116 -85c24 47 71 85 127 85c141 0 141 -106 141 -170v-380h-84v370c0 41 -3 108 -72 108c-40 0 -100 -24 -100 -108v-370h-84v370c0 41 -3 108 -72 108c-40 0 -100 -24 -100 -108v-370h-84z" />
    <glyph glyph-name="n" unicode="n" 
d="M55 0v536h80v-63h2c23 49 78 77 130 77c141 0 141 -106 141 -170v-380h-84v370c0 41 -3 108 -79 108c-45 0 -106 -31 -106 -108v-370h-84z" />
    <glyph glyph-name="o" unicode="o" horiz-adv-x="444" 
d="M29 268c0 151 38 282 193 282s193 -131 193 -282s-39 -282 -193 -282c-155 0 -193 131 -193 282zM220 52c89 0 107 100 107 216s-16 216 -107 216c-85 0 -103 -100 -103 -216s17 -216 103 -216z" />
    <glyph glyph-name="p" unicode="p" 
d="M55 -176v712h80v-66h2c11 40 58 80 116 80c127 0 175 -112 175 -272c0 -122 -36 -292 -175 -292c-48 0 -93 28 -112 75h-2v-237h-84zM134 268c0 -104 17 -210 108 -210c77 0 98 81 98 220c0 118 -21 200 -98 200c-92 0 -108 -87 -108 -210z" />
    <glyph glyph-name="q" unicode="q" 
d="M329 268c0 123 -16 210 -108 210c-77 0 -98 -82 -98 -200c0 -138 21 -220 98 -220c91 0 108 106 108 210zM324 -176v237h-2c-19 -47 -64 -75 -112 -75c-139 0 -175 145 -175 292c0 160 48 272 175 272c58 0 105 -40 116 -80h2v66h80v-712h-84z" />
    <glyph glyph-name="r" unicode="r" horiz-adv-x="296" 
d="M55 0v536h84v-80h2c24 51 55 94 116 94c17 0 29 -2 37 -6v-82c-8 1 -18 4 -45 4c-42 0 -110 -39 -110 -127v-339h-84z" />
    <glyph glyph-name="s" unicode="s" horiz-adv-x="407" 
d="M369 379h-84c0 68 -18 105 -79 105c-27 0 -87 -7 -87 -82c0 -64 66 -76 132 -97c64 -21 131 -44 131 -151c0 -112 -73 -168 -173 -168c-182 0 -184 135 -184 190h84c0 -65 17 -124 100 -124c27 0 89 13 89 89c0 72 -67 88 -131 109c-65 22 -132 42 -132 152
c0 100 78 148 171 148c156 0 163 -108 163 -171z" />
    <glyph glyph-name="t" unicode="t" horiz-adv-x="259" 
d="M80 536v156h84v-156h93v-66h-93v-344c0 -43 11 -60 55 -60c19 0 28 2 37 3v-69c-11 -3 -33 -6 -68 -6c-88 0 -108 36 -108 106v370h-78v66h78z" />
    <glyph glyph-name="u" unicode="u" 
d="M408 536v-536h-80v63h-2c-23 -49 -78 -77 -130 -77c-141 0 -141 106 -141 170v380h84v-370c0 -41 3 -108 79 -108c45 0 106 31 106 108v370h84z" />
    <glyph glyph-name="v" unicode="v" horiz-adv-x="406" 
d="M155 0l-145 536h92l100 -430h2l100 430h92l-145 -536h-96z" />
    <glyph glyph-name="w" unicode="w" horiz-adv-x="648" 
d="M135 0l-125 536h88l86 -438h2l91 438h99l89 -438h2l83 438h88l-127 -536h-92l-94 438h-2l-90 -438h-98z" />
    <glyph glyph-name="x" unicode="x" horiz-adv-x="406" 
d="M153 279l-137 257h92l97 -191l98 191h92l-140 -257l145 -279h-92l-107 212l-103 -212h-92z" />
    <glyph glyph-name="y" unicode="y" horiz-adv-x="406" 
d="M168 -11l-158 547h92l106 -430h2l94 430h92l-155 -572c-21 -74 -42 -140 -143 -140c-33 0 -46 2 -61 3v66c12 -2 28 -3 49 -3c39 0 55 23 66 52z" />
    <glyph glyph-name="z" unicode="z" horiz-adv-x="389" 
d="M39 464v72h323v-70l-240 -394h238v-72h-333v66l243 398h-231z" />
    <glyph glyph-name="braceleft" unicode="{" horiz-adv-x="259" 
d="M2 235v60c44 0 76 40 76 111v178c0 99 52 130 108 130h71v-66h-51c-49 0 -50 -45 -50 -82v-172c0 -97 -66 -125 -88 -128v-2c22 -3 88 -31 88 -128v-172c0 -37 1 -82 50 -82h51v-66h-71c-56 0 -108 31 -108 130v178c0 71 -32 111 -76 111z" />
    <glyph glyph-name="bar" unicode="|" horiz-adv-x="222" 
d="M78 -14v742h66v-742h-66z" />
    <glyph glyph-name="braceright" unicode="}" horiz-adv-x="259" 
d="M257 295v-60c-44 0 -76 -40 -76 -111v-178c0 -99 -52 -130 -108 -130h-71v66h51c49 0 50 45 50 82v172c0 97 66 125 88 128v2c-22 3 -88 31 -88 128v172c0 37 -1 82 -50 82h-51v66h71c56 0 108 -31 108 -130v-178c0 -71 32 -111 76 -111z" />
    <glyph glyph-name="asciitilde" unicode="~" horiz-adv-x="600" 
d="M98 185l-42 46c29 43 71 93 136 93c36 0 55 -2 104 -29c33 -19 70 -47 107 -47c46 0 81 47 99 73l42 -45c-30 -43 -70 -94 -136 -94c-37 0 -55 2 -104 29c-33 19 -70 47 -107 47c-46 0 -81 -47 -99 -73z" />
    <glyph glyph-name="exclamdown" unicode="&#xa1;" horiz-adv-x="258" 
d="M175 538v-96h-92v96h92zM159 352l16 -528h-92l16 528h60z" />
    <glyph glyph-name="cent" unicode="&#xa2;" horiz-adv-x="480" 
d="M227 -99v85c-119 7 -168 96 -168 275c0 127 24 276 168 289v70h42v-70c129 -8 152 -116 152 -177h-84c0 48 -17 103 -68 111v-432c55 13 68 78 68 134h84c0 -82 -37 -189 -152 -200v-85h-42zM227 52v432c-43 -11 -80 -56 -80 -222c0 -68 1 -192 80 -210z" />
    <glyph glyph-name="sterling" unicode="&#xa3;" horiz-adv-x="480" 
d="M447 505h-84c0 74 -30 137 -114 137c-86 0 -113 -60 -113 -105c0 -44 29 -104 56 -155h164v-60h-142c11 -20 17 -44 17 -68c0 -80 -67 -136 -127 -187l2 -2c27 13 57 28 85 28c27 0 42 -7 61 -14c19 -8 37 -15 65 -15c32 0 52 7 107 39l37 -67c-41 -29 -87 -50 -138 -50
c-67 0 -113 41 -170 41c-17 0 -33 -4 -49 -11l-47 -22l-38 65c59 48 124 102 124 186c0 28 -6 56 -21 77h-95v60h70l-16 31c-19 37 -33 76 -33 115c0 115 89 180 201 180c117 0 198 -63 198 -203z" />
    <glyph glyph-name="fraction" unicode="&#x2044;" horiz-adv-x="167" 
d="M-164 -31l435 756h60l-435 -756h-60z" />
    <glyph glyph-name="yen" unicode="&#xa5;" horiz-adv-x="480" 
d="M200 0v153h-147v60h147v60l-10 22h-137v60h110l-154 339h97l136 -324l141 324h88l-150 -339h110v-60h-137l-10 -22v-60h147v-60h-147v-153h-84z" />
    <glyph glyph-name="florin" unicode="&#x192;" horiz-adv-x="480" 
d="M-17 -172l14 66c8 -3 28 -4 49 -4c45 0 65 20 79 90l79 400h-104l11 60h104l33 156c19 89 77 118 166 118c20 0 35 -1 48 -4l-14 -66c-7 3 -20 4 -35 4c-74 0 -83 -46 -99 -130l-15 -78h109l-11 -60h-109l-80 -411c-19 -96 -68 -145 -168 -145c-20 0 -38 1 -57 4z" />
    <glyph glyph-name="section" unicode="&#xa7;" horiz-adv-x="482" 
d="M184 245l66 -42l60 -41c19 11 58 41 58 95c0 45 -37 78 -77 102l-110 68c-27 -22 -67 -47 -67 -96c0 -39 35 -65 70 -86zM413 578h-88c0 55 -40 84 -88 84c-59 0 -85 -42 -85 -75c0 -44 41 -71 80 -95l100 -60c65 -40 120 -80 120 -160c0 -65 -41 -114 -89 -147
c41 -27 58 -76 58 -124c0 -101 -83 -155 -174 -155c-149 0 -183 107 -183 174h84c0 -61 31 -108 99 -108c73 0 86 58 86 85c0 48 -42 80 -83 107l-113 70c-55 34 -107 82 -107 146c0 73 42 105 98 142c-39 25 -64 73 -64 120c0 97 86 146 173 146c164 0 171 -110 176 -150z
" />
    <glyph glyph-name="currency" unicode="&#xa4;" horiz-adv-x="480" 
d="M18 167l47 47c-28 37 -45 82 -45 133s17 95 45 132l-47 47l43 43l47 -47c38 30 82 45 132 45c51 0 96 -17 132 -45l47 47l43 -43l-47 -47c30 -38 45 -82 45 -132c0 -51 -17 -96 -46 -132l48 -48l-42 -42l-48 48c-36 -29 -81 -46 -132 -46s-96 17 -133 45l-47 -47zM92 347
c0 -87 65 -154 148 -154s148 67 148 154s-65 154 -148 154s-148 -67 -148 -154z" />
    <glyph glyph-name="quotesingle" unicode="'" horiz-adv-x="240" 
d="M87 460v254h66v-254h-66z" />
    <glyph glyph-name="quotedblleft" unicode="&#x201c;" horiz-adv-x="407" 
d="M171 566v-106h-92v87c0 76 7 143 92 167v-47c-35 -17 -44 -37 -44 -77v-24h44zM328 566v-106h-92v87c0 76 7 143 92 167v-47c-35 -17 -44 -37 -44 -77v-24h44z" />
    <glyph glyph-name="guillemotleft" unicode="&#xab;" horiz-adv-x="389" 
d="M49 245v78l142 143v-88l-94 -94l94 -94v-88zM198 245v78l142 143v-88l-94 -94l94 -94v-88z" />
    <glyph glyph-name="guilsinglleft" unicode="&#x2039;" horiz-adv-x="240" 
d="M49 245v78l142 143v-88l-94 -94l94 -94v-88z" />
    <glyph glyph-name="guilsinglright" unicode="&#x203a;" horiz-adv-x="240" 
d="M191 323v-78l-142 -143v88l94 94l-94 94v88z" />
    <glyph glyph-name="endash" unicode="&#x2013;" horiz-adv-x="500" 
d="M0 248v72h500v-72h-500z" />
    <glyph glyph-name="dagger" unicode="&#x2020;" horiz-adv-x="482" 
d="M199 508v206h84v-206h172v-72h-172v-576h-84v576h-172v72h172z" />
    <glyph glyph-name="daggerdbl" unicode="&#x2021;" horiz-adv-x="482" 
d="M199 521v193h84v-193h172v-72h-172v-317h172v-72h-172v-200h-84v200h-172v72h172v317h-172v72h172z" />
    <glyph glyph-name="periodcentered" unicode="&#xb7;" horiz-adv-x="240" 
d="M64 327c0 31 25 56 56 56s56 -25 56 -56s-25 -56 -56 -56s-56 25 -56 56z" />
    <glyph glyph-name="paragraph" unicode="&#xb6;" horiz-adv-x="556" 
d="M411 -140v800h-100v-800h-66v462c-123 0 -209 82 -209 186c0 130 96 206 236 206h205v-854h-66z" />
    <glyph glyph-name="bullet" unicode="&#x2022;" horiz-adv-x="500" 
d="M72 357c0 99 79 178 178 178s178 -79 178 -178s-79 -178 -178 -178s-178 79 -178 178z" />
    <glyph glyph-name="quotesinglbase" unicode="&#x201a;" horiz-adv-x="240" 
d="M74 0v106h92v-87c0 -76 -7 -143 -92 -167v47c35 17 44 37 44 77v24h-44z" />
    <glyph glyph-name="quotedblbase" unicode="&#x201e;" horiz-adv-x="407" 
d="M171 106v-87c0 -76 -7 -143 -92 -167v47c35 17 44 37 44 77v24h-44v106h92zM328 106v-87c0 -76 -7 -143 -92 -167v47c35 17 44 37 44 77v24h-44v106h92z" />
    <glyph glyph-name="quotedblright" unicode="&#x201d;" horiz-adv-x="407" 
d="M171 714v-87c0 -76 -7 -143 -92 -167v47c35 17 44 37 44 77v24h-44v106h92zM328 714v-87c0 -76 -7 -143 -92 -167v47c35 17 44 37 44 77v24h-44v106h92z" />
    <glyph glyph-name="guillemotright" unicode="&#xbb;" horiz-adv-x="389" 
d="M191 323v-78l-142 -143v88l94 94l-94 94v88zM340 323v-78l-142 -143v88l94 94l-94 94v88z" />
    <glyph glyph-name="ellipsis" unicode="&#x2026;" horiz-adv-x="1000" 
d="M787 0v106h92v-106h-92zM454 0v106h92v-106h-92zM121 0v106h92v-106h-92z" />
    <glyph glyph-name="perthousand" unicode="&#x2030;" horiz-adv-x="1037" 
d="M551 -14c-120 0 -131 92 -131 192s11 192 131 192s131 -92 131 -192s-11 -192 -131 -192zM551 40c56 0 59 55 59 138s-3 138 -59 138s-59 -55 -59 -138s3 -138 59 -138zM177 324c-120 0 -131 92 -131 192s11 192 131 192s131 -92 131 -192s-11 -192 -131 -192zM860 -14
c-120 0 -131 92 -131 192s11 192 131 192s131 -92 131 -192s-11 -192 -131 -192zM177 378c56 0 59 55 59 138s-3 138 -59 138s-59 -55 -59 -138s3 -138 59 -138zM169 -14l310 722h70l-310 -722h-70zM860 40c56 0 59 55 59 138s-3 138 -59 138s-59 -55 -59 -138
s3 -138 59 -138z" />
    <glyph glyph-name="questiondown" unicode="&#xbf;" horiz-adv-x="444" 
d="M279 538v-96h-92v96h92zM325 34h84c0 -117 -57 -218 -186 -218c-120 0 -188 81 -188 188c0 51 18 102 50 141c11 11 70 77 78 88c25 32 32 69 32 100v19h78c0 -40 0 -87 -19 -123c-24 -43 -77 -98 -101 -128c-23 -31 -30 -57 -30 -102c0 -59 32 -111 97 -111
c96 0 105 97 105 146z" />
    <glyph glyph-name="grave" unicode="`" horiz-adv-x="204" 
d="M-16 751h98l70 -142h-60z" />
    <glyph glyph-name="acute" unicode="&#xb4;" horiz-adv-x="204" 
d="M52 609l70 142h98l-108 -142h-60z" />
    <glyph glyph-name="circumflex" unicode="&#x2c6;" horiz-adv-x="204" 
d="M-37 609l101 142h77l100 -142h-78l-61 88l-61 -88h-78z" />
    <glyph glyph-name="tilde" unicode="&#x2dc;" horiz-adv-x="204" 
d="M195 739h54c0 -50 -29 -111 -86 -111c-43 0 -94 38 -115 38c-27 0 -36 -27 -39 -45h-54c0 59 40 111 93 111c19 0 40 -8 60 -19c20 -9 39 -19 52 -19c25 0 31 26 35 45z" />
    <glyph glyph-name="macron" unicode="&#xaf;" horiz-adv-x="204" 
d="M-30 653v54h264v-54h-264z" />
    <glyph glyph-name="breve" unicode="&#x2d8;" horiz-adv-x="204" 
d="M-23 744h48c0 -36 41 -67 77 -67s77 31 77 67h48c0 -41 -25 -127 -125 -127s-125 86 -125 127z" />
    <glyph glyph-name="dotaccent" unicode="&#x2d9;" horiz-adv-x="204" 
d="M63 630v101h78v-101h-78z" />
    <glyph glyph-name="dieresis" unicode="&#xa8;" horiz-adv-x="204" 
d="M144 630v101h78v-101h-78zM-18 630v101h78v-101h-78z" />
    <glyph glyph-name="ring" unicode="&#x2da;" horiz-adv-x="204" 
d="M45 690c0 -31 26 -57 57 -57s57 26 57 57s-26 57 -57 57s-57 -26 -57 -57zM3 690c0 56 43 99 99 99s99 -43 99 -99s-43 -99 -99 -99s-99 43 -99 99z" />
    <glyph glyph-name="cedilla" unicode="&#xb8;" horiz-adv-x="204" 
d="M-1 -190l15 34c2 0 46 -12 64 -12c41 0 55 19 55 39c0 23 -23 37 -47 37c-17 0 -32 -4 -40 -7l-15 18l59 81h42l-39 -54l2 -2c11 3 17 4 30 4c35 0 80 -16 80 -74c0 -47 -51 -84 -107 -84c-37 0 -76 9 -99 20z" />
    <glyph glyph-name="hungarumlaut" unicode="&#x2dd;" horiz-adv-x="204" 
d="M114 609l70 142h98l-108 -142h-60zM-50 609l70 142h98l-108 -142h-60z" />
    <glyph glyph-name="ogonek" unicode="&#x2db;" horiz-adv-x="204" 
d="M127 0h53c-87 -64 -104 -96 -104 -125c0 -24 13 -38 40 -38s43 5 66 16l18 -35c-33 -20 -73 -28 -102 -28c-65 0 -94 30 -94 78c0 49 41 93 123 132z" />
    <glyph glyph-name="caron" unicode="&#x2c7;" horiz-adv-x="204" 
d="M241 751l-101 -142h-77l-100 142h78l61 -88l61 88h78z" />
    <glyph glyph-name="emdash" unicode="&#x2014;" horiz-adv-x="1000" 
d="M0 248v72h1000v-72h-1000z" />
    <glyph glyph-name="AE" unicode="&#xc6;" horiz-adv-x="722" 
d="M-8 0l276 714h418v-78h-266v-224h250v-78h-250v-256h278v-78h-366v196h-175l-73 -196h-92zM322 642l-140 -374h150v374h-10z" />
    <glyph glyph-name="ordfeminine" unicode="&#xaa;" horiz-adv-x="289" 
d="M191 470v77c-21 -21 -69 -22 -93 -38c-15 -11 -24 -18 -24 -45s11 -49 46 -49c36 0 71 28 71 55zM251 612v-176c0 -13 0 -27 17 -27c7 0 10 2 13 3v-42c-4 -1 -18 -3 -38 -3c-27 0 -49 11 -50 46h-2c-16 -29 -49 -46 -88 -46c-63 0 -95 38 -95 93c0 48 21 77 72 92l73 20
c37 11 38 22 38 45c0 31 -19 43 -54 43c-59 0 -59 -47 -59 -58v-4h-60c0 79 34 110 127 110c107 0 106 -61 106 -96z" />
    <glyph glyph-name="Lslash" unicode="&#x141;" horiz-adv-x="444" 
d="M-8 197v72l66 47v398h88v-335l194 139v-72l-194 -139v-229h290v-78h-378v244z" />
    <glyph glyph-name="Oslash" unicode="&#xd8;" horiz-adv-x="556" 
d="M88 -24l33 80c-61 71 -73 189 -73 301c0 180 33 371 230 371c47 0 82 -9 111 -28l24 59l54 -22l-32 -77c59 -73 73 -188 73 -303c0 -180 -33 -371 -230 -371c-43 0 -80 9 -110 28l-26 -62zM395 562l-196 -474c20 -20 46 -30 79 -30c122 0 138 134 138 299
c0 80 -4 152 -21 205zM161 153l197 473c-20 20 -47 30 -80 30c-122 0 -138 -134 -138 -299c0 -80 4 -149 21 -204z" />
    <glyph glyph-name="OE" unicode="&#x152;" horiz-adv-x="796" 
d="M412 232v231c0 101 -3 193 -134 193c-125 0 -142 -134 -142 -299s17 -299 142 -299c114 0 134 81 134 174zM500 334v-256h272v-78h-358v63h-2c-19 -48 -74 -77 -134 -77c-197 0 -230 179 -230 371c0 180 33 371 230 371c52 0 114 -24 138 -69h2v55h342v-78h-260v-224h244
v-78h-244z" />
    <glyph glyph-name="ordmasculine" unicode="&#xba;" horiz-adv-x="289" 
d="M143 415c52 0 64 64 64 124c0 58 -11 121 -64 121c-49 0 -61 -63 -61 -121c0 -60 10 -124 61 -124zM143 708c105 0 130 -81 130 -169c0 -91 -26 -172 -130 -172c-102 0 -127 81 -127 172c0 88 25 169 127 169z" />
    <glyph glyph-name="ae" unicode="&#xe6;" horiz-adv-x="667" 
d="M290 174v94v11h-2c-9 -15 -110 -40 -130 -49c-28 -11 -44 -34 -44 -85c0 -49 22 -93 75 -93c96 0 101 96 101 122zM553 176h84c0 -57 -34 -190 -169 -190c-112 0 -141 78 -144 98h-2c-27 -57 -69 -98 -149 -98c-89 0 -147 60 -147 156c0 76 37 128 102 148l125 38
c32 11 37 32 37 77c0 51 -24 79 -80 79c-85 0 -86 -85 -86 -105v-5h-84c0 123 55 176 176 176c71 0 116 -29 128 -74h2c19 45 75 74 126 74c154 0 169 -142 169 -258v-34h-273c0 -83 1 -206 94 -206c80 0 91 83 91 124zM371 324h182v29c0 60 -19 131 -89 131
c-83 0 -93 -108 -93 -140v-20z" />
    <glyph glyph-name="dotlessi" unicode="&#x131;" horiz-adv-x="204" 
d="M60 0v536h84v-536h-84z" />
    <glyph glyph-name="lslash" unicode="&#x142;" horiz-adv-x="204" 
d="M60 0v276l-60 -64v78l60 64v360h84v-271l60 63v-78l-60 -63v-365h-84z" />
    <glyph glyph-name="oslash" unicode="&#xf8;" horiz-adv-x="444" 
d="M64 -40l32 76c-51 51 -67 132 -67 232c0 151 38 282 193 282c33 0 61 -6 84 -18l26 61l48 -21l-30 -71c51 -56 65 -136 65 -233c0 -151 -39 -282 -193 -282c-33 0 -61 6 -84 18l-27 -63zM134 126l143 337c-16 14 -35 21 -57 21c-85 0 -103 -100 -103 -216
c0 -52 4 -102 17 -142zM310 407l-143 -336c14 -13 32 -19 53 -19c89 0 107 100 107 216c0 51 -4 100 -17 139z" />
    <glyph glyph-name="oe" unicode="&#x153;" horiz-adv-x="722" 
d="M413 344v-20h182v29c0 60 -19 131 -89 131c-83 0 -93 -108 -93 -140zM332 268c0 109 -17 216 -105 216c-83 0 -100 -107 -100 -216s17 -216 100 -216c88 0 105 107 105 216zM683 292v-34h-273c0 -83 1 -206 94 -206c80 0 91 83 91 124h84c0 -57 -34 -190 -169 -190
c-113 0 -139 83 -142 92c-25 -57 -77 -92 -141 -92c-149 0 -188 137 -188 282s39 282 188 282c75 0 114 -28 147 -91c25 56 80 91 140 91c154 0 169 -142 169 -258z" />
    <glyph glyph-name="germandbls" unicode="&#xdf;" 
d="M48 0v511c0 124 37 211 177 211c95 0 172 -50 172 -163c0 -64 -34 -134 -106 -147v-2c95 0 143 -86 143 -186c0 -107 -52 -224 -179 -224h-59v72h58c75 0 92 95 92 152c0 91 -40 150 -107 150c-11 0 -29 0 -40 -3v69h20c51 0 94 36 94 105c0 50 -17 111 -88 111
c-87 0 -93 -67 -93 -131v-525h-84z" />
    <glyph glyph-name="onesuperior" unicode="&#xb9;" horiz-adv-x="312" 
d="M128 280v313h-96v48c57 0 110 7 113 67h49v-428h-66z" />
    <glyph glyph-name="logicalnot" unicode="&#xac;" horiz-adv-x="600" 
d="M487 106v216h-440v66h506v-282h-66z" />
    <glyph glyph-name="mu" unicode="&#xb5;" 
d="M408 536v-536h-80v63h-2c-23 -49 -78 -77 -130 -77c-23 0 -42 3 -57 14v-176h-84v712h84v-370c0 -41 3 -108 79 -108c45 0 106 31 106 108v370h84z" />
    <glyph glyph-name="trademark" unicode="&#x2122;" horiz-adv-x="990" 
d="M848 302v340h-2l-139 -340h-39l-139 340h-2v-340h-66v412h98l130 -316l127 316h98v-412h-66zM185 302v352h-133v60h329v-60h-130v-352h-66z" />
    <glyph glyph-name="Eth" unicode="&#xd0;" horiz-adv-x="556" 
d="M155 72h92c152 0 169 156 169 284c0 138 -9 286 -169 286h-92v-236h134v-66h-134v-268zM67 0v340h-58v66h58v308h191c221 0 250 -160 250 -357c0 -180 -45 -357 -241 -357h-200z" />
    <glyph glyph-name="onehalf" unicode="&#xbd;" horiz-adv-x="721" 
d="M681 0h-261c0 80 49 132 100 175l37 30c39 31 62 56 62 103c0 35 -18 60 -66 60c-57 0 -62 -52 -62 -76h-72c0 77 35 136 139 136c77 0 133 -38 133 -114c0 -65 -29 -100 -81 -141l-62 -50c-27 -21 -40 -43 -47 -63h180v-60zM30 593v48c57 0 110 7 113 67h49v-428h-66
v313h-96zM74 -31l434 756h60l-434 -756h-60z" />
    <glyph glyph-name="plusminus" unicode="&#xb1;" horiz-adv-x="600" 
d="M47 0v66h506v-66h-506zM47 295v66h220v145h66v-145h220v-66h-220v-145h-66v145h-220z" />
    <glyph glyph-name="Thorn" unicode="&#xde;" horiz-adv-x="481" 
d="M146 502v-268h105c64 0 118 44 118 139c0 79 -36 129 -124 129h-99zM58 0v714h88v-140h94c61 0 221 0 221 -205c0 -133 -85 -207 -206 -207h-109v-162h-88z" />
    <glyph glyph-name="onequarter" unicode="&#xbc;" horiz-adv-x="721" 
d="M32 593v48c57 0 110 7 113 67h49v-428h-66v313h-96zM93 -31l434 756h60l-434 -756h-60zM400 159l160 269h72v-275h47v-54h-47v-99h-66v99h-166v60zM454 153h112v185h-2z" />
    <glyph glyph-name="divide" unicode="&#xf7;" horiz-adv-x="600" 
d="M244 42c0 31 25 56 56 56s56 -25 56 -56s-25 -56 -56 -56s-56 25 -56 56zM244 464c0 31 25 56 56 56s56 -25 56 -56s-25 -56 -56 -56s-56 25 -56 56zM47 220v66h506v-66h-506z" />
    <glyph glyph-name="brokenbar" unicode="&#xa6;" horiz-adv-x="222" 
d="M78 434v294h66v-294h-66zM78 -14v294h66v-294h-66z" />
    <glyph glyph-name="degree" unicode="&#xb0;" horiz-adv-x="400" 
d="M105 559c0 -52 43 -95 95 -95s95 43 95 95s-43 95 -95 95s-95 -43 -95 -95zM51 559c0 86 63 149 149 149s149 -63 149 -149s-63 -149 -149 -149s-149 63 -149 149z" />
    <glyph glyph-name="thorn" unicode="&#xfe;" 
d="M55 -176v890h84v-239h2c13 45 67 75 112 75c127 0 175 -112 175 -272c0 -122 -36 -292 -175 -292c-48 0 -93 28 -112 75h-2v-237h-84zM134 268c0 -104 17 -210 108 -210c77 0 98 81 98 220c0 118 -21 200 -98 200c-92 0 -108 -87 -108 -210z" />
    <glyph glyph-name="threequarters" unicode="&#xbe;" horiz-adv-x="721" 
d="M120 474v54h24c48 0 72 30 72 69c0 31 -18 57 -55 57c-56 0 -62 -46 -62 -69h-72c0 73 37 123 136 123c103 0 125 -63 125 -111c0 -43 -28 -81 -84 -92v-2c57 -9 96 -39 96 -99c0 -79 -43 -131 -136 -131c-132 0 -144 99 -144 118v5h72c0 -31 20 -69 70 -69
c27 0 66 16 66 73c0 45 -25 74 -80 74h-28zM145 -31l434 756h60l-434 -756h-60zM422 159l160 269h72v-275h47v-54h-47v-99h-66v99h-166v60zM476 153h112v185h-2z" />
    <glyph glyph-name="twosuperior" unicode="&#xb2;" horiz-adv-x="312" 
d="M282 280h-261c0 80 49 132 100 175l37 30c39 31 62 56 62 103c0 35 -18 60 -66 60c-57 0 -62 -52 -62 -76h-72c0 77 35 136 139 136c77 0 133 -38 133 -114c0 -65 -29 -100 -81 -141l-62 -50c-27 -21 -40 -43 -47 -63h180v-60z" />
    <glyph glyph-name="registered" unicode="&#xae;" horiz-adv-x="800" 
d="M400 46c169 0 305 139 305 311s-136 311 -305 311s-305 -139 -305 -311s136 -311 305 -311zM29 357c0 205 166 371 371 371s371 -166 371 -371s-166 -371 -371 -371s-371 166 -371 371zM318 380h71c60 0 113 3 113 68c0 57 -48 64 -94 64h-90v-132zM252 138v434h168
c96 0 148 -40 148 -127c0 -77 -50 -113 -117 -120l124 -187h-66l-120 182h-71v-182h-66z" />
    <glyph glyph-name="minus" unicode="&#x2212;" horiz-adv-x="600" 
d="M47 220v66h506v-66h-506z" />
    <glyph glyph-name="eth" unicode="&#xf0;" horiz-adv-x="444" 
d="M120 595l-38 42l71 40c-23 23 -49 44 -77 67l64 28c27 -21 49 -41 72 -61l74 42l38 -42l-70 -40c101 -101 161 -216 161 -403c0 -151 -39 -282 -193 -282c-155 0 -193 131 -193 282c0 145 38 268 193 268c19 0 40 -5 59 -17h2c-27 41 -55 80 -90 117zM220 470
c-85 0 -103 -106 -103 -202c0 -116 17 -216 103 -216c89 0 107 100 107 216c0 96 -16 202 -107 202z" />
    <glyph glyph-name="multiply" unicode="&#xd7;" horiz-adv-x="600" 
d="M480 30l-180 180l-181 -180l-42 42l181 181l-181 181l42 42l181 -180l180 180l43 -42l-181 -181l181 -181z" />
    <glyph glyph-name="threesuperior" unicode="&#xb3;" horiz-adv-x="312" 
d="M116 474v54h24c48 0 72 30 72 69c0 31 -18 57 -55 57c-56 0 -62 -46 -62 -69h-72c0 73 37 123 136 123c103 0 125 -63 125 -111c0 -43 -28 -81 -84 -92v-2c57 -9 96 -39 96 -99c0 -79 -43 -131 -136 -131c-132 0 -144 99 -144 118v5h72c0 -31 20 -69 70 -69
c27 0 66 16 66 73c0 45 -25 74 -80 74h-28z" />
    <glyph glyph-name="copyright" unicode="&#xa9;" horiz-adv-x="800" 
d="M400 46c169 0 305 139 305 311s-136 311 -305 311s-305 -139 -305 -311s136 -311 305 -311zM29 357c0 205 166 371 371 371s371 -166 371 -371s-166 -371 -371 -371s-371 166 -371 371zM543 279h60c-13 -101 -98 -155 -197 -155c-136 0 -219 95 -219 230s83 230 219 230
c99 0 184 -51 197 -155h-60c-11 53 -62 95 -137 95c-94 0 -153 -77 -153 -170s59 -170 153 -170c75 0 126 42 137 95z" />
    <glyph glyph-name="Aacute" unicode="&#xc1;" horiz-adv-x="500" 
d="M254 613l-99 -345h192l-91 345h-2zM-8 0l206 714h118l192 -714h-92l-51 196h-228l-53 -196h-92zM200 773l70 142h98l-108 -142h-60z" />
    <glyph glyph-name="Acircumflex" unicode="&#xc2;" horiz-adv-x="500" 
d="M254 613l-99 -345h192l-91 345h-2zM-8 0l206 714h118l192 -714h-92l-51 196h-228l-53 -196h-92zM118 773l101 142h77l100 -142h-78l-61 88l-61 -88h-78z" />
    <glyph glyph-name="Adieresis" unicode="&#xc4;" horiz-adv-x="500" 
d="M254 613l-99 -345h192l-91 345h-2zM-8 0l206 714h118l192 -714h-92l-51 196h-228l-53 -196h-92zM298 794v101h78v-101h-78zM136 794v101h78v-101h-78z" />
    <glyph glyph-name="Agrave" unicode="&#xc0;" horiz-adv-x="500" 
d="M254 613l-99 -345h192l-91 345h-2zM-8 0l206 714h118l192 -714h-92l-51 196h-228l-53 -196h-92zM145 915h98l70 -142h-60z" />
    <glyph glyph-name="Aring" unicode="&#xc5;" horiz-adv-x="500" 
d="M254 613l-99 -345h192l-91 345h-2zM-8 0l206 714h118l192 -714h-92l-51 196h-228l-53 -196h-92zM200 844c0 -31 26 -57 57 -57s57 26 57 57s-26 57 -57 57s-57 -26 -57 -57zM158 844c0 56 43 99 99 99s99 -43 99 -99s-43 -99 -99 -99s-99 43 -99 99z" />
    <glyph glyph-name="Atilde" unicode="&#xc3;" horiz-adv-x="500" 
d="M254 613l-99 -345h192l-91 345h-2zM-8 0l206 714h118l192 -714h-92l-51 196h-228l-53 -196h-92zM351 903h54c0 -50 -29 -111 -86 -111c-43 0 -94 38 -115 38c-27 0 -36 -27 -39 -45h-54c0 59 40 111 93 111c19 0 40 -8 60 -19c20 -9 39 -19 52 -19c25 0 31 26 35 45z" />
    <glyph glyph-name="Ccedilla" unicode="&#xc7;" horiz-adv-x="519" 
d="M161 -190l15 34c2 0 46 -12 64 -12c41 0 55 19 55 39c0 23 -23 37 -47 37c-17 0 -32 -4 -40 -7l-15 18l50 69c-35 4 -64 14 -87 30c-91 67 -108 201 -108 339c0 180 33 371 230 371c145 0 207 -82 211 -222h-92c-3 81 -28 150 -119 150c-122 0 -138 -134 -138 -299
s16 -299 138 -299c107 0 122 100 125 187h92c-6 -103 -37 -194 -119 -238c-25 -13 -56 -20 -92 -21l-29 -40l2 -2c11 3 17 4 30 4c35 0 80 -16 80 -74c0 -47 -51 -84 -107 -84c-37 0 -76 9 -99 20z" />
    <glyph glyph-name="Eacute" unicode="&#xc9;" 
d="M58 0v714h369v-78h-281v-224h265v-78h-265v-256h293v-78h-381zM217 773l70 142h98l-108 -142h-60z" />
    <glyph glyph-name="Ecircumflex" unicode="&#xca;" 
d="M58 0v714h369v-78h-281v-224h265v-78h-265v-256h293v-78h-381zM105 773l101 142h77l100 -142h-78l-61 88l-61 -88h-78z" />
    <glyph glyph-name="Edieresis" unicode="&#xcb;" 
d="M58 0v714h369v-78h-281v-224h265v-78h-265v-256h293v-78h-381zM289 794v101h78v-101h-78zM127 794v101h78v-101h-78z" />
    <glyph glyph-name="Egrave" unicode="&#xc8;" 
d="M58 0v714h369v-78h-281v-224h265v-78h-265v-256h293v-78h-381zM137 915h98l70 -142h-60z" />
    <glyph glyph-name="Iacute" unicode="&#xcd;" horiz-adv-x="204" 
d="M58 0v714h88v-714h-88zM59 773l70 142h98l-108 -142h-60z" />
    <glyph glyph-name="Icircumflex" unicode="&#xce;" horiz-adv-x="204" 
d="M58 0v714h88v-714h-88zM-38 773l101 142h77l100 -142h-78l-61 88l-61 -88h-78z" />
    <glyph glyph-name="Idieresis" unicode="&#xcf;" horiz-adv-x="204" 
d="M58 0v714h88v-714h-88zM143 794v101h78v-101h-78zM-19 794v101h78v-101h-78z" />
    <glyph glyph-name="Igrave" unicode="&#xcc;" horiz-adv-x="204" 
d="M58 0v714h88v-714h-88zM-23 915h98l70 -142h-60z" />
    <glyph glyph-name="Ntilde" unicode="&#xd1;" horiz-adv-x="556" 
d="M58 0v714h114l236 -596h2v596h88v-714h-121l-229 578h-2v-578h-88zM369 903h54c0 -50 -29 -111 -86 -111c-43 0 -94 38 -115 38c-27 0 -36 -27 -39 -45h-54c0 59 40 111 93 111c19 0 40 -8 60 -19c20 -9 39 -19 52 -19c25 0 31 26 35 45z" />
    <glyph glyph-name="Oacute" unicode="&#xd3;" horiz-adv-x="556" 
d="M278 656c-122 0 -138 -134 -138 -299s16 -299 138 -299s138 134 138 299s-16 299 -138 299zM278 728c197 0 230 -191 230 -371s-33 -371 -230 -371s-230 191 -230 371s33 371 230 371zM238 773l70 142h98l-108 -142h-60z" />
    <glyph glyph-name="Ocircumflex" unicode="&#xd4;" horiz-adv-x="556" 
d="M278 656c-122 0 -138 -134 -138 -299s16 -299 138 -299s138 134 138 299s-16 299 -138 299zM278 728c197 0 230 -191 230 -371s-33 -371 -230 -371s-230 191 -230 371s33 371 230 371zM139 773l101 142h77l100 -142h-78l-61 88l-61 -88h-78z" />
    <glyph glyph-name="Odieresis" unicode="&#xd6;" horiz-adv-x="556" 
d="M278 656c-122 0 -138 -134 -138 -299s16 -299 138 -299s138 134 138 299s-16 299 -138 299zM278 728c197 0 230 -191 230 -371s-33 -371 -230 -371s-230 191 -230 371s33 371 230 371zM321 794v101h78v-101h-78zM159 794v101h78v-101h-78z" />
    <glyph glyph-name="Ograve" unicode="&#xd2;" horiz-adv-x="556" 
d="M278 656c-122 0 -138 -134 -138 -299s16 -299 138 -299s138 134 138 299s-16 299 -138 299zM278 728c197 0 230 -191 230 -371s-33 -371 -230 -371s-230 191 -230 371s33 371 230 371zM151 915h98l70 -142h-60z" />
    <glyph glyph-name="Otilde" unicode="&#xd5;" horiz-adv-x="556" 
d="M278 656c-122 0 -138 -134 -138 -299s16 -299 138 -299s138 134 138 299s-16 299 -138 299zM278 728c197 0 230 -191 230 -371s-33 -371 -230 -371s-230 191 -230 371s33 371 230 371zM369 903h54c0 -50 -29 -111 -86 -111c-43 0 -94 38 -115 38c-27 0 -36 -27 -39 -45
h-54c0 59 40 111 93 111c19 0 40 -8 60 -19c20 -9 39 -19 52 -19c25 0 31 26 35 45z" />
    <glyph glyph-name="Scaron" unicode="&#x160;" horiz-adv-x="500" 
d="M449 529h-88c0 75 -27 127 -111 127c-75 0 -118 -40 -118 -116c0 -201 337 -81 337 -342c0 -165 -121 -212 -222 -212c-167 0 -216 86 -216 238h88c0 -80 6 -166 134 -166c70 0 124 50 124 126c0 202 -337 85 -337 347c0 66 28 197 209 197c137 0 197 -67 200 -199z
M393 915l-101 -142h-77l-100 142h78l61 -88l61 88h78z" />
    <glyph glyph-name="Uacute" unicode="&#xda;" horiz-adv-x="519" 
d="M50 212v502h88v-502c0 -105 33 -154 121 -154c93 0 122 54 122 154v502h88v-502c0 -137 -70 -226 -210 -226c-144 0 -209 78 -209 226zM223 773l70 142h98l-108 -142h-60z" />
    <glyph glyph-name="Ucircumflex" unicode="&#xdb;" horiz-adv-x="519" 
d="M50 212v502h88v-502c0 -105 33 -154 121 -154c93 0 122 54 122 154v502h88v-502c0 -137 -70 -226 -210 -226c-144 0 -209 78 -209 226zM122 773l101 142h77l100 -142h-78l-61 88l-61 -88h-78z" />
    <glyph glyph-name="Udieresis" unicode="&#xdc;" horiz-adv-x="519" 
d="M50 212v502h88v-502c0 -105 33 -154 121 -154c93 0 122 54 122 154v502h88v-502c0 -137 -70 -226 -210 -226c-144 0 -209 78 -209 226zM301 794v101h78v-101h-78zM139 794v101h78v-101h-78z" />
    <glyph glyph-name="Ugrave" unicode="&#xd9;" horiz-adv-x="519" 
d="M50 212v502h88v-502c0 -105 33 -154 121 -154c93 0 122 54 122 154v502h88v-502c0 -137 -70 -226 -210 -226c-144 0 -209 78 -209 226zM131 915h98l70 -142h-60z" />
    <glyph glyph-name="Yacute" unicode="&#xdd;" horiz-adv-x="462" 
d="M187 280l-189 434h97l136 -334l141 334h92l-189 -434v-280h-88v280zM196 773l70 142h98l-108 -142h-60z" />
    <glyph glyph-name="Ydieresis" unicode="&#x178;" horiz-adv-x="462" 
d="M187 280l-189 434h97l136 -334l141 334h92l-189 -434v-280h-88v280zM272 794v101h78v-101h-78zM110 794v101h78v-101h-78z" />
    <glyph glyph-name="Zcaron" unicode="&#x17d;" 
d="M23 0v74l321 562h-303v78h395v-81l-321 -555h325v-78h-417zM373 915l-101 -142h-77l-100 142h78l61 -88l61 88h78z" />
    <glyph glyph-name="aacute" unicode="&#xe1;" horiz-adv-x="444" 
d="M301 154v138c-33 -33 -105 -38 -143 -63c-27 -17 -41 -38 -41 -85c0 -55 19 -92 76 -92c56 0 108 46 108 102zM126 374h-84c0 121 52 176 180 176c163 0 163 -98 163 -154v-299c0 -23 -1 -43 26 -43c11 0 16 2 20 5v-60c-7 -1 -28 -5 -49 -5c-31 0 -73 0 -76 69h-2
c-27 -48 -78 -77 -129 -77c-100 0 -146 60 -146 156c0 76 32 127 101 148l113 34c62 19 61 37 61 81c0 51 -30 79 -86 79c-92 0 -92 -85 -92 -105v-5zM188 609l70 142h98l-108 -142h-60z" />
    <glyph glyph-name="acircumflex" unicode="&#xe2;" horiz-adv-x="444" 
d="M301 154v138c-33 -33 -105 -38 -143 -63c-27 -17 -41 -38 -41 -85c0 -55 19 -92 76 -92c56 0 108 46 108 102zM126 374h-84c0 121 52 176 180 176c163 0 163 -98 163 -154v-299c0 -23 -1 -43 26 -43c11 0 16 2 20 5v-60c-7 -1 -28 -5 -49 -5c-31 0 -73 0 -76 69h-2
c-27 -48 -78 -77 -129 -77c-100 0 -146 60 -146 156c0 76 32 127 101 148l113 34c62 19 61 37 61 81c0 51 -30 79 -86 79c-92 0 -92 -85 -92 -105v-5zM84 609l101 142h77l100 -142h-78l-61 88l-61 -88h-78z" />
    <glyph glyph-name="adieresis" unicode="&#xe4;" horiz-adv-x="444" 
d="M301 154v138c-33 -33 -105 -38 -143 -63c-27 -17 -41 -38 -41 -85c0 -55 19 -92 76 -92c56 0 108 46 108 102zM126 374h-84c0 121 52 176 180 176c163 0 163 -98 163 -154v-299c0 -23 -1 -43 26 -43c11 0 16 2 20 5v-60c-7 -1 -28 -5 -49 -5c-31 0 -73 0 -76 69h-2
c-27 -48 -78 -77 -129 -77c-100 0 -146 60 -146 156c0 76 32 127 101 148l113 34c62 19 61 37 61 81c0 51 -30 79 -86 79c-92 0 -92 -85 -92 -105v-5zM263 630v101h78v-101h-78zM101 630v101h78v-101h-78z" />
    <glyph glyph-name="agrave" unicode="&#xe0;" horiz-adv-x="444" 
d="M301 154v138c-33 -33 -105 -38 -143 -63c-27 -17 -41 -38 -41 -85c0 -55 19 -92 76 -92c56 0 108 46 108 102zM126 374h-84c0 121 52 176 180 176c163 0 163 -98 163 -154v-299c0 -23 -1 -43 26 -43c11 0 16 2 20 5v-60c-7 -1 -28 -5 -49 -5c-31 0 -73 0 -76 69h-2
c-27 -48 -78 -77 -129 -77c-100 0 -146 60 -146 156c0 76 32 127 101 148l113 34c62 19 61 37 61 81c0 51 -30 79 -86 79c-92 0 -92 -85 -92 -105v-5zM112 751h98l70 -142h-60z" />
    <glyph glyph-name="aring" unicode="&#xe5;" horiz-adv-x="444" 
d="M301 154v138c-33 -33 -105 -38 -143 -63c-27 -17 -41 -38 -41 -85c0 -55 19 -92 76 -92c56 0 108 46 108 102zM126 374h-84c0 121 52 176 180 176c163 0 163 -98 163 -154v-299c0 -23 -1 -43 26 -43c11 0 16 2 20 5v-60c-7 -1 -28 -5 -49 -5c-31 0 -73 0 -76 69h-2
c-27 -48 -78 -77 -129 -77c-100 0 -146 60 -146 156c0 76 32 127 101 148l113 34c62 19 61 37 61 81c0 51 -30 79 -86 79c-92 0 -92 -85 -92 -105v-5zM164 690c0 -31 26 -57 57 -57s57 26 57 57s-26 57 -57 57s-57 -26 -57 -57zM122 690c0 56 43 99 99 99s99 -43 99 -99
s-43 -99 -99 -99s-99 43 -99 99z" />
    <glyph glyph-name="atilde" unicode="&#xe3;" horiz-adv-x="444" 
d="M301 154v138c-33 -33 -105 -38 -143 -63c-27 -17 -41 -38 -41 -85c0 -55 19 -92 76 -92c56 0 108 46 108 102zM126 374h-84c0 121 52 176 180 176c163 0 163 -98 163 -154v-299c0 -23 -1 -43 26 -43c11 0 16 2 20 5v-60c-7 -1 -28 -5 -49 -5c-31 0 -73 0 -76 69h-2
c-27 -48 -78 -77 -129 -77c-100 0 -146 60 -146 156c0 76 32 127 101 148l113 34c62 19 61 37 61 81c0 51 -30 79 -86 79c-92 0 -92 -85 -92 -105v-5zM312 739h54c0 -50 -29 -111 -86 -111c-43 0 -94 38 -115 38c-27 0 -36 -27 -39 -45h-54c0 59 40 111 93 111
c19 0 40 -8 60 -19c20 -9 39 -19 52 -19c25 0 31 26 35 45z" />
    <glyph glyph-name="ccedilla" unicode="&#xe7;" horiz-adv-x="426" 
d="M109 -190l15 34c2 0 46 -12 64 -12c41 0 55 19 55 39c0 23 -23 37 -47 37c-17 0 -32 -4 -40 -7l-15 18l50 69c-52 5 -91 27 -116 66c-29 45 -43 114 -43 207c0 133 26 289 191 289c147 0 171 -116 171 -177h-84c0 52 -21 111 -85 111c-52 0 -105 -26 -105 -222
c0 -69 1 -210 102 -210c72 0 88 76 88 134h84c0 -66 -24 -141 -92 -181c-19 -11 -43 -17 -70 -18l-29 -41l2 -2c11 3 17 4 30 4c35 0 80 -16 80 -74c0 -47 -51 -84 -107 -84c-37 0 -76 9 -99 20z" />
    <glyph glyph-name="eacute" unicode="&#xe9;" horiz-adv-x="444" 
d="M407 258h-282c0 -83 0 -206 103 -206c80 0 91 83 91 124h84c0 -57 -33 -190 -180 -190c-132 0 -186 90 -186 275c0 133 26 289 191 289c164 0 179 -142 179 -258v-34zM128 324h191v29c0 60 -18 131 -93 131c-88 0 -98 -108 -98 -140v-20zM196 609l70 142h98l-108 -142
h-60z" />
    <glyph glyph-name="ecircumflex" unicode="&#xea;" horiz-adv-x="444" 
d="M407 258h-282c0 -83 0 -206 103 -206c80 0 91 83 91 124h84c0 -57 -33 -190 -180 -190c-132 0 -186 90 -186 275c0 133 26 289 191 289c164 0 179 -142 179 -258v-34zM128 324h191v29c0 60 -18 131 -93 131c-88 0 -98 -108 -98 -140v-20zM89 609l101 142h77l100 -142h-78
l-61 88l-61 -88h-78z" />
    <glyph glyph-name="edieresis" unicode="&#xeb;" horiz-adv-x="444" 
d="M407 258h-282c0 -83 0 -206 103 -206c80 0 91 83 91 124h84c0 -57 -33 -190 -180 -190c-132 0 -186 90 -186 275c0 133 26 289 191 289c164 0 179 -142 179 -258v-34zM128 324h191v29c0 60 -18 131 -93 131c-88 0 -98 -108 -98 -140v-20zM271 630v101h78v-101h-78z
M109 630v101h78v-101h-78z" />
    <glyph glyph-name="egrave" unicode="&#xe8;" horiz-adv-x="444" 
d="M407 258h-282c0 -83 0 -206 103 -206c80 0 91 83 91 124h84c0 -57 -33 -190 -180 -190c-132 0 -186 90 -186 275c0 133 26 289 191 289c164 0 179 -142 179 -258v-34zM128 324h191v29c0 60 -18 131 -93 131c-88 0 -98 -108 -98 -140v-20zM107 751h98l70 -142h-60z" />
    <glyph glyph-name="iacute" unicode="&#xed;" horiz-adv-x="204" 
d="M60 0v536h84v-536h-84zM60 609l70 142h98l-108 -142h-60z" />
    <glyph glyph-name="icircumflex" unicode="&#xee;" horiz-adv-x="204" 
d="M60 0v536h84v-536h-84zM-37 609l101 142h77l100 -142h-78l-61 88l-61 -88h-78z" />
    <glyph glyph-name="idieresis" unicode="&#xef;" horiz-adv-x="204" 
d="M60 0v536h84v-536h-84zM144 630v101h78v-101h-78zM-18 630v101h78v-101h-78z" />
    <glyph glyph-name="igrave" unicode="&#xec;" horiz-adv-x="204" 
d="M60 0v536h84v-536h-84zM-25 751h98l70 -142h-60z" />
    <glyph glyph-name="ntilde" unicode="&#xf1;" 
d="M55 0v536h80v-63h2c23 49 78 77 130 77c141 0 141 -106 141 -170v-380h-84v370c0 41 -3 108 -79 108c-45 0 -106 -31 -106 -108v-370h-84zM324 739h54c0 -50 -29 -111 -86 -111c-43 0 -94 38 -115 38c-27 0 -36 -27 -39 -45h-54c0 59 40 111 93 111c19 0 40 -8 60 -19
c20 -9 39 -19 52 -19c25 0 31 26 35 45z" />
    <glyph glyph-name="oacute" unicode="&#xf3;" horiz-adv-x="444" 
d="M29 268c0 151 38 282 193 282s193 -131 193 -282s-39 -282 -193 -282c-155 0 -193 131 -193 282zM220 52c89 0 107 100 107 216s-16 216 -107 216c-85 0 -103 -100 -103 -216s17 -216 103 -216zM189 609l70 142h98l-108 -142h-60z" />
    <glyph glyph-name="ocircumflex" unicode="&#xf4;" horiz-adv-x="444" 
d="M29 268c0 151 38 282 193 282s193 -131 193 -282s-39 -282 -193 -282c-155 0 -193 131 -193 282zM220 52c89 0 107 100 107 216s-16 216 -107 216c-85 0 -103 -100 -103 -216s17 -216 103 -216zM83 609l101 142h77l100 -142h-78l-61 88l-61 -88h-78z" />
    <glyph glyph-name="odieresis" unicode="&#xf6;" horiz-adv-x="444" 
d="M29 268c0 151 38 282 193 282s193 -131 193 -282s-39 -282 -193 -282c-155 0 -193 131 -193 282zM220 52c89 0 107 100 107 216s-16 216 -107 216c-85 0 -103 -100 -103 -216s17 -216 103 -216zM264 630v101h78v-101h-78zM102 630v101h78v-101h-78z" />
    <glyph glyph-name="ograve" unicode="&#xf2;" horiz-adv-x="444" 
d="M29 268c0 151 38 282 193 282s193 -131 193 -282s-39 -282 -193 -282c-155 0 -193 131 -193 282zM220 52c89 0 107 100 107 216s-16 216 -107 216c-85 0 -103 -100 -103 -216s17 -216 103 -216zM91 751h98l70 -142h-60z" />
    <glyph glyph-name="otilde" unicode="&#xf5;" horiz-adv-x="444" 
d="M29 268c0 151 38 282 193 282s193 -131 193 -282s-39 -282 -193 -282c-155 0 -193 131 -193 282zM220 52c89 0 107 100 107 216s-16 216 -107 216c-85 0 -103 -100 -103 -216s17 -216 103 -216zM315 739h54c0 -50 -29 -111 -86 -111c-43 0 -94 38 -115 38
c-27 0 -36 -27 -39 -45h-54c0 59 40 111 93 111c19 0 40 -8 60 -19c20 -9 39 -19 52 -19c25 0 31 26 35 45z" />
    <glyph glyph-name="scaron" unicode="&#x161;" horiz-adv-x="407" 
d="M369 379h-84c0 68 -18 105 -79 105c-27 0 -87 -7 -87 -82c0 -64 66 -76 132 -97c64 -21 131 -44 131 -151c0 -112 -73 -168 -173 -168c-182 0 -184 135 -184 190h84c0 -65 17 -124 100 -124c27 0 89 13 89 89c0 72 -67 88 -131 109c-65 22 -132 42 -132 152
c0 100 78 148 171 148c156 0 163 -108 163 -171zM344 751l-101 -142h-77l-100 142h78l61 -88l61 88h78z" />
    <glyph glyph-name="uacute" unicode="&#xfa;" 
d="M408 536v-536h-80v63h-2c-23 -49 -78 -77 -130 -77c-141 0 -141 106 -141 170v380h84v-370c0 -41 3 -108 79 -108c45 0 106 31 106 108v370h84zM195 609l70 142h98l-108 -142h-60z" />
    <glyph glyph-name="ucircumflex" unicode="&#xfb;" 
d="M408 536v-536h-80v63h-2c-23 -49 -78 -77 -130 -77c-141 0 -141 106 -141 170v380h84v-370c0 -41 3 -108 79 -108c45 0 106 31 106 108v370h84zM93 609l101 142h77l100 -142h-78l-61 88l-61 -88h-78z" />
    <glyph glyph-name="udieresis" unicode="&#xfc;" 
d="M408 536v-536h-80v63h-2c-23 -49 -78 -77 -130 -77c-141 0 -141 106 -141 170v380h84v-370c0 -41 3 -108 79 -108c45 0 106 31 106 108v370h84zM273 630v101h78v-101h-78zM111 630v101h78v-101h-78z" />
    <glyph glyph-name="ugrave" unicode="&#xf9;" 
d="M408 536v-536h-80v63h-2c-23 -49 -78 -77 -130 -77c-141 0 -141 106 -141 170v380h84v-370c0 -41 3 -108 79 -108c45 0 106 31 106 108v370h84zM99 751h98l70 -142h-60z" />
    <glyph glyph-name="yacute" unicode="&#xfd;" horiz-adv-x="406" 
d="M168 -11l-158 547h92l106 -430h2l94 430h92l-155 -572c-21 -74 -42 -140 -143 -140c-33 0 -46 2 -61 3v66c12 -2 28 -3 49 -3c39 0 55 23 66 52zM176 609l70 142h98l-108 -142h-60z" />
    <glyph glyph-name="ydieresis" unicode="&#xff;" horiz-adv-x="406" 
d="M168 -11l-158 547h92l106 -430h2l94 430h92l-155 -572c-21 -74 -42 -140 -143 -140c-33 0 -46 2 -61 3v66c12 -2 28 -3 49 -3c39 0 55 23 66 52zM252 630v101h78v-101h-78zM90 630v101h78v-101h-78z" />
    <glyph glyph-name="zcaron" unicode="&#x17e;" horiz-adv-x="389" 
d="M39 464v72h323v-70l-240 -394h238v-72h-333v66l243 398h-231zM337 751l-101 -142h-77l-100 142h78l61 -88l61 88h78z" />
    <glyph glyph-name="Euro" unicode="&#x20ac;" horiz-adv-x="480" 
d="M465 661l-32 -71c-36 31 -69 52 -117 52c-112 0 -132 -100 -140 -191h227l-21 -60h-210l-1 -55h195l-21 -60h-173c3 -93 19 -222 139 -222c57 0 101 27 144 62v-87c-48 -31 -94 -43 -151 -43c-177 0 -216 142 -224 290h-61l21 60h39l1 55h-62l21 60h44
c13 140 69 260 229 260c60 0 104 -18 153 -50z" />
    <glyph glyph-name="notequal" unicode="&#x2260;" horiz-adv-x="593" 
d="M550 114h-287l-76 -146l-62 32l59 114h-141v72h178l67 127h-245v71h283l77 148l62 -32l-61 -116h146v-71h-183l-67 -127h250v-72z" />
    <glyph glyph-name="infinity" unicode="&#x221e;" horiz-adv-x="759" 
d="M337 251c-37 34 -96 90 -150 90c-51 0 -80 -42 -80 -89c0 -51 31 -86 83 -86c54 0 111 49 147 85zM652 252c0 51 -29 90 -82 90c-56 0 -109 -56 -147 -91c42 -39 88 -85 150 -85c51 0 79 38 79 86zM717 255c0 -88 -55 -157 -147 -157c-76 0 -140 56 -190 109
c-57 -51 -110 -108 -191 -108c-89 0 -147 65 -147 153c0 85 54 156 145 156c81 0 139 -60 193 -114c53 53 108 116 189 116c90 0 148 -68 148 -155z" />
    <glyph glyph-name="lessequal" unicode="&#x2264;" horiz-adv-x="593" 
d="M550 -30h-507v72h507v-72zM550 82l-507 184v75l507 187v-78l-408 -146l408 -145v-77z" />
    <glyph glyph-name="greaterequal" unicode="&#x2265;" horiz-adv-x="593" 
d="M550 -30h-507v72h507v-72zM550 266l-507 -184v77l408 145l-408 146v78l507 -187v-75z" />
    <glyph glyph-name="partialdiff" unicode="&#x2202;" horiz-adv-x="511" 
d="M389 280c-35 47 -88 85 -148 85c-89 0 -134 -75 -134 -155c0 -77 43 -162 132 -162c111 0 150 143 150 232zM469 362c0 -153 -34 -374 -232 -374c-126 0 -204 105 -204 225c0 117 75 214 199 214c63 0 121 -29 161 -76c0 15 1 30 1 45c0 107 -41 262 -173 262
c-45 0 -79 -20 -114 -47l-42 50c44 39 93 60 153 60c196 0 251 -198 251 -359z" />
    <glyph glyph-name="summation" unicode="&#x2211;" horiz-adv-x="615" 
d="M589 -214h-564v64l322 440l-308 432v64h538v-72h-437l301 -424l-319 -432h467v-72z" />
    <glyph glyph-name="product" unicode="&#x220f;" horiz-adv-x="719" 
d="M650 -214h-78v928h-426v-928h-78v1000h582v-1000z" />
    <glyph glyph-name="pi" unicode="&#x3c0;" horiz-adv-x="570" 
d="M547 68v-57c-23 -11 -42 -17 -69 -17c-81 0 -86 55 -86 120v296h-246v-410h-75v410h-69v69h541v-69h-76v-299c0 -29 3 -53 38 -53c13 0 27 3 42 10z" />
    <glyph glyph-name="integral" unicode="&#x222b;" horiz-adv-x="554" 
d="M420 730c0 -24 -19 -38 -42 -38c-32 0 -40 43 -56 43c-41 0 -30 -126 -30 -141l1 -39v-511c0 -92 6 -257 -126 -257c-30 0 -69 16 -69 52c0 19 18 36 37 36c31 0 38 -42 52 -42c36 0 28 139 28 151v22v495c0 96 -21 285 126 285c35 0 79 -15 79 -56z" />
    <glyph glyph-name="Omega" unicode="&#x2126;" horiz-adv-x="748" 
d="M688 0h-256v183c116 23 176 111 176 227c0 138 -101 239 -240 239c-137 0 -241 -102 -241 -239c0 -113 61 -208 177 -227v-183h-257v67h193v72c-124 34 -193 149 -193 274c0 180 146 308 321 308s320 -126 320 -306c0 -127 -67 -241 -192 -276v-72h192v-67z" />
    <glyph glyph-name="radical" unicode="&#x221a;" horiz-adv-x="504" 
d="M514 786l-211 -1000h-75l-162 334l-47 -22l-28 60l112 52l151 -317l184 893h76z" />
    <glyph glyph-name="approxequal" unicode="&#x2248;" horiz-adv-x="593" 
d="M510 234h50c-8 -75 -44 -145 -129 -145s-206 72 -272 72c-43 0 -70 -39 -75 -78h-52c11 72 44 148 129 148c87 0 195 -71 274 -71c45 0 67 34 75 74zM511 415h50c-8 -75 -45 -146 -130 -146c-87 0 -204 71 -271 71c-43 0 -69 -38 -76 -77h-51c8 72 44 148 129 148
c86 0 195 -71 274 -71c45 0 67 35 75 75z" />
    <glyph glyph-name="Delta" unicode="&#x2206;" horiz-adv-x="674" 
d="M550 72l-217 556l-213 -556h430zM662 0h-649l279 712h83z" />
    <glyph glyph-name="lozenge" unicode="&#x25ca;" horiz-adv-x="593" 
d="M428 356l-132 315l-131 -315l131 -315zM504 356l-172 -391h-72l-171 391l171 391h72z" />
    <glyph glyph-name="commaaccent" unicode="&#xf004;" horiz-adv-x="240" 
d="M78 -141v91h83v-80c0 -54 -26 -76 -78 -80v26c17 5 31 10 34 43h-39z" />
    <glyph glyph-name="commaaccent" unicode="&#xf6c3;" horiz-adv-x="240" 
d="M78 -141v91h83v-80c0 -54 -26 -76 -78 -80v26c17 5 31 10 34 43h-39z" />
    <glyph glyph-name="commaaccent.alt" horiz-adv-x="240" 
d="M162 714v-91h-83v85c0 46 26 71 78 75v-26c-17 -5 -31 -10 -34 -43h39z" />
    <glyph glyph-name="caron.alt" horiz-adv-x="204" 
d="M52 572l26 142h87l-59 -142h-54z" />
    <glyph glyph-name="Amacron" unicode="&#x100;" horiz-adv-x="500" 
d="M254 613l-99 -345h192l-91 345h-2zM-8 0l206 714h118l192 -714h-92l-51 196h-228l-53 -196h-92zM125 817v54h264v-54h-264z" />
    <glyph glyph-name="Abreve" unicode="&#x102;" horiz-adv-x="500" 
d="M254 613l-99 -345h192l-91 345h-2zM-8 0l206 714h118l192 -714h-92l-51 196h-228l-53 -196h-92zM133 890h48c0 -36 41 -67 77 -67s77 31 77 67h48c0 -41 -25 -127 -125 -127s-125 86 -125 127z" />
    <glyph glyph-name="Aogonek" unicode="&#x104;" horiz-adv-x="500" 
d="M508 0h-39c-87 -64 -104 -96 -104 -125c0 -24 13 -38 40 -38s43 5 66 16l18 -35c-33 -20 -73 -28 -102 -28c-65 0 -94 30 -94 78c0 49 41 93 123 132l-51 196h-228l-53 -196h-92l206 714h118zM254 613l-99 -345h192l-91 345h-2z" />
    <glyph glyph-name="Cacute" unicode="&#x106;" horiz-adv-x="519" 
d="M403 245h92c-8 -135 -61 -259 -217 -259c-203 0 -230 191 -230 371s33 371 230 371c145 0 207 -82 211 -222h-92c-3 81 -28 150 -119 150c-122 0 -138 -134 -138 -299s16 -299 138 -299c107 0 122 100 125 187zM248 773l70 142h98l-108 -142h-60z" />
    <glyph glyph-name="Ccircumflex" unicode="&#x108;" horiz-adv-x="519" 
d="M403 245h92c-8 -135 -61 -259 -217 -259c-203 0 -230 191 -230 371s33 371 230 371c145 0 207 -82 211 -222h-92c-3 81 -28 150 -119 150c-122 0 -138 -134 -138 -299s16 -299 138 -299c107 0 122 100 125 187zM141 773l101 142h77l100 -142h-78l-61 88l-61 -88h-78z" />
    <glyph glyph-name="Ccaron" unicode="&#x10c;" horiz-adv-x="519" 
d="M403 245h92c-8 -135 -61 -259 -217 -259c-203 0 -230 191 -230 371s33 371 230 371c145 0 207 -82 211 -222h-92c-3 81 -28 150 -119 150c-122 0 -138 -134 -138 -299s16 -299 138 -299c107 0 122 100 125 187zM416 915l-101 -142h-77l-100 142h78l61 -88l61 88h78z" />
    <glyph glyph-name="Cdotaccent" unicode="&#x10a;" horiz-adv-x="519" 
d="M403 245h92c-8 -135 -61 -259 -217 -259c-203 0 -230 191 -230 371s33 371 230 371c145 0 207 -82 211 -222h-92c-3 81 -28 150 -119 150c-122 0 -138 -134 -138 -299s16 -299 138 -299c107 0 122 100 125 187zM240 794v101h78v-101h-78z" />
    <glyph glyph-name="Dcaron" unicode="&#x10e;" horiz-adv-x="556" 
d="M67 0v714h191c221 0 250 -160 250 -357c0 -180 -45 -357 -241 -357h-200zM155 642v-570h92c152 0 169 156 169 284c0 138 -9 286 -169 286h-92zM390 915l-101 -142h-77l-100 142h78l61 -88l61 88h78z" />
    <glyph glyph-name="Ecaron" unicode="&#x11a;" 
d="M58 0v714h369v-78h-281v-224h265v-78h-265v-256h293v-78h-381zM382 915l-101 -142h-77l-100 142h78l61 -88l61 88h78z" />
    <glyph glyph-name="Emacron" unicode="&#x112;" 
d="M58 0v714h369v-78h-281v-224h265v-78h-265v-256h293v-78h-381zM115 817v54h264v-54h-264z" />
    <glyph glyph-name="Ebreve" unicode="&#x114;" 
d="M58 0v714h369v-78h-281v-224h265v-78h-265v-256h293v-78h-381zM115 908h48c0 -36 41 -67 77 -67s77 31 77 67h48c0 -41 -25 -127 -125 -127s-125 86 -125 127z" />
    <glyph glyph-name="Edotaccent" unicode="&#x116;" 
d="M58 0v714h369v-78h-281v-224h265v-78h-265v-256h293v-78h-381zM205 794v101h78v-101h-78z" />
    <glyph glyph-name="Eogonek" unicode="&#x118;" 
d="M439 0h-20c-87 -64 -104 -96 -104 -125c0 -24 13 -38 40 -38s43 5 66 16l18 -35c-33 -20 -73 -28 -102 -28c-65 0 -94 30 -94 78c0 49 41 93 123 132h-308v714h369v-78h-281v-224h265v-78h-265v-256h293v-78z" />
    <glyph glyph-name="Gcircumflex" unicode="&#x11c;" horiz-adv-x="537" 
d="M489 516h-92c-5 75 -31 140 -119 140c-122 0 -138 -134 -138 -299s16 -299 138 -299s131 146 131 241h-141v72h221v-371h-66v97h-2c-19 -61 -75 -111 -154 -111c-187 0 -219 179 -219 371c0 180 33 371 230 371c204 0 211 -175 211 -212zM142 773l101 142h77l100 -142
h-78l-61 88l-61 -88h-78z" />
    <glyph glyph-name="Gbreve" unicode="&#x11e;" horiz-adv-x="537" 
d="M489 516h-92c-5 75 -31 140 -119 140c-122 0 -138 -134 -138 -299s16 -299 138 -299s131 146 131 241h-141v72h221v-371h-66v97h-2c-19 -61 -75 -111 -154 -111c-187 0 -219 179 -219 371c0 180 33 371 230 371c204 0 211 -175 211 -212zM157 908h48c0 -36 41 -67 77 -67
s77 31 77 67h48c0 -41 -25 -127 -125 -127s-125 86 -125 127z" />
    <glyph glyph-name="Gdotaccent" unicode="&#x120;" horiz-adv-x="537" 
d="M489 516h-92c-5 75 -31 140 -119 140c-122 0 -138 -134 -138 -299s16 -299 138 -299s131 146 131 241h-141v72h221v-371h-66v97h-2c-19 -61 -75 -111 -154 -111c-187 0 -219 179 -219 371c0 180 33 371 230 371c204 0 211 -175 211 -212zM244 794v101h78v-101h-78z" />
    <glyph glyph-name="Gcommaaccent" unicode="&#x122;" horiz-adv-x="537" 
d="M489 516h-92c-5 75 -31 140 -119 140c-122 0 -138 -134 -138 -299s16 -299 138 -299s131 146 131 241h-141v72h221v-371h-66v97h-2c-19 -61 -75 -111 -154 -111c-187 0 -219 179 -219 371c0 180 33 371 230 371c204 0 211 -175 211 -212zM233 -141v91h83v-80
c0 -54 -26 -76 -78 -80v26c17 5 31 10 34 43h-39z" />
    <glyph glyph-name="Hcircumflex" unicode="&#x124;" horiz-adv-x="537" 
d="M479 714v-714h-88v344h-245v-344h-88v714h88v-292h245v292h88zM131 773l101 142h77l100 -142h-78l-61 88l-61 -88h-78z" />
    <glyph glyph-name="Hbar" unicode="&#x126;" horiz-adv-x="537" 
d="M479 714v-714h-88v334h-245v-334h-88v714h88v-178h245v178h88zM146 412h245v75h-245v-75z" />
    <glyph glyph-name="Itilde" unicode="&#x128;" horiz-adv-x="204" 
d="M58 0v714h88v-714h-88zM195 903h54c0 -50 -29 -111 -86 -111c-43 0 -94 38 -115 38c-27 0 -36 -27 -39 -45h-54c0 59 40 111 93 111c19 0 40 -8 60 -19c20 -9 39 -19 52 -19c25 0 31 26 35 45z" />
    <glyph glyph-name="Imacron" unicode="&#x12a;" horiz-adv-x="204" 
d="M58 0v714h88v-714h-88zM-30 817v54h264v-54h-264z" />
    <glyph glyph-name="Idotaccent" unicode="&#x130;" horiz-adv-x="204" 
d="M58 0v714h88v-714h-88zM63 794v101h78v-101h-78z" />
    <glyph glyph-name="Iogonek" unicode="&#x12e;" horiz-adv-x="204" 
d="M146 714v-714c-75 -64 -88 -95 -88 -125c0 -24 11 -38 34 -38s36 5 56 16l15 -35c-28 -20 -62 -28 -87 -28c-55 0 -80 30 -80 78c0 49 35 93 105 132h-43v714h88z" />
    <glyph glyph-name="Jcircumflex" unicode="&#x134;" horiz-adv-x="426" 
d="M368 714v-509c0 -127 -32 -219 -179 -219c-119 0 -167 78 -167 163v59h84v-52c0 -59 22 -98 82 -98c80 0 92 51 92 150v506h88zM181 773l101 142h77l100 -142h-78l-61 88l-61 -88h-78z" />
    <glyph glyph-name="Kcommaaccent" unicode="&#x136;" horiz-adv-x="500" 
d="M58 0v714h88v-346h2l247 346h98l-216 -298l234 -416h-98l-193 344l-74 -101v-243h-88zM214 -141v91h83v-80c0 -54 -26 -76 -78 -80v26c17 5 31 10 34 43h-39z" />
    <glyph glyph-name="Lacute" unicode="&#x139;" horiz-adv-x="444" 
d="M58 0v714h88v-636h290v-78h-378zM70 773l70 142h98l-108 -142h-60z" />
    <glyph glyph-name="Lcaron" unicode="&#x13d;" horiz-adv-x="444" 
d="M58 0v714h88v-636h290v-78h-378zM221 572l26 142h87l-59 -142h-54z" />
    <glyph glyph-name="Lcommaaccent" unicode="&#x13b;" horiz-adv-x="444" 
d="M58 0v714h88v-636h290v-78h-378zM198 -141v91h83v-80c0 -54 -26 -76 -78 -80v26c17 5 31 10 34 43h-39z" />
    <glyph glyph-name="Nacute" unicode="&#x143;" horiz-adv-x="556" 
d="M58 0v714h114l236 -596h2v596h88v-714h-121l-229 578h-2v-578h-88zM245 773l70 142h98l-108 -142h-60z" />
    <glyph glyph-name="Ncaron" unicode="&#x147;" horiz-adv-x="556" 
d="M58 0v714h114l236 -596h2v596h88v-714h-121l-229 578h-2v-578h-88zM416 915l-101 -142h-77l-100 142h78l61 -88l61 88h78z" />
    <glyph glyph-name="Ncommaaccent" unicode="&#x145;" horiz-adv-x="556" 
d="M58 0v714h114l236 -596h2v596h88v-714h-121l-229 578h-2v-578h-88zM232 -141v91h83v-80c0 -54 -26 -76 -78 -80v26c17 5 31 10 34 43h-39z" />
    <glyph glyph-name="Omacron" unicode="&#x14c;" horiz-adv-x="556" 
d="M278 656c-122 0 -138 -134 -138 -299s16 -299 138 -299s138 134 138 299s-16 299 -138 299zM278 728c197 0 230 -191 230 -371s-33 -371 -230 -371s-230 191 -230 371s33 371 230 371zM147 817v54h264v-54h-264z" />
    <glyph glyph-name="Obreve" unicode="&#x14e;" horiz-adv-x="556" 
d="M278 656c-122 0 -138 -134 -138 -299s16 -299 138 -299s138 134 138 299s-16 299 -138 299zM278 728c197 0 230 -191 230 -371s-33 -371 -230 -371s-230 191 -230 371s33 371 230 371zM152 908h48c0 -36 41 -67 77 -67s77 31 77 67h48c0 -41 -25 -127 -125 -127
s-125 86 -125 127z" />
    <glyph glyph-name="Ohungarumlaut" unicode="&#x150;" horiz-adv-x="556" 
d="M278 656c-122 0 -138 -134 -138 -299s16 -299 138 -299s138 134 138 299s-16 299 -138 299zM278 728c197 0 230 -191 230 -371s-33 -371 -230 -371s-230 191 -230 371s33 371 230 371zM328 773l70 142h98l-108 -142h-60zM164 773l70 142h98l-108 -142h-60z" />
    <glyph glyph-name="Racute" unicode="&#x154;" horiz-adv-x="519" 
d="M146 642v-252h87c52 0 147 -1 147 138c0 71 -46 114 -129 114h-105zM58 0v714h231c113 0 183 -66 183 -179c0 -76 -27 -161 -110 -180v-2c63 -7 97 -58 101 -119l6 -122c3 -79 17 -99 38 -112h-106c-16 16 -21 68 -24 103l-6 111c-8 98 -61 104 -106 104h-119v-318h-88z
M196 773l70 142h98l-108 -142h-60z" />
    <glyph glyph-name="Rcaron" unicode="&#x158;" horiz-adv-x="519" 
d="M146 642v-252h87c52 0 147 -1 147 138c0 71 -46 114 -129 114h-105zM58 0v714h231c113 0 183 -66 183 -179c0 -76 -27 -161 -110 -180v-2c63 -7 97 -58 101 -119l6 -122c3 -79 17 -99 38 -112h-106c-16 16 -21 68 -24 103l-6 111c-8 98 -61 104 -106 104h-119v-318h-88z
M380 913l-101 -142h-77l-100 142h78l61 -88l61 88h78z" />
    <glyph glyph-name="Rcommaaccent" unicode="&#x156;" horiz-adv-x="519" 
d="M146 642v-252h87c52 0 147 -1 147 138c0 71 -46 114 -129 114h-105zM58 0v714h231c113 0 183 -66 183 -179c0 -76 -27 -161 -110 -180v-2c63 -7 97 -58 101 -119l6 -122c3 -79 17 -99 38 -112h-106c-16 16 -21 68 -24 103l-6 111c-8 98 -61 104 -106 104h-119v-318h-88z
M219 -141v91h83v-80c0 -54 -26 -76 -78 -80v26c17 5 31 10 34 43h-39z" />
    <glyph glyph-name="Sacute" unicode="&#x15a;" horiz-adv-x="500" 
d="M449 529h-88c0 75 -27 127 -111 127c-75 0 -118 -40 -118 -116c0 -201 337 -81 337 -342c0 -165 -121 -212 -222 -212c-167 0 -216 86 -216 238h88c0 -80 6 -166 134 -166c70 0 124 50 124 126c0 202 -337 85 -337 347c0 66 28 197 209 197c137 0 197 -67 200 -199z
M216 779l70 142h98l-108 -142h-60z" />
    <glyph glyph-name="Scircumflex" unicode="&#x15c;" horiz-adv-x="500" 
d="M449 529h-88c0 75 -27 127 -111 127c-75 0 -118 -40 -118 -116c0 -201 337 -81 337 -342c0 -165 -121 -212 -222 -212c-167 0 -216 86 -216 238h88c0 -80 6 -166 134 -166c70 0 124 50 124 126c0 202 -337 85 -337 347c0 66 28 197 209 197c137 0 197 -67 200 -199z
M115 773l101 142h77l100 -142h-78l-61 88l-61 -88h-78z" />
    <glyph glyph-name="Scedilla" unicode="&#x15e;" horiz-adv-x="500" 
d="M139 -190l15 34c2 0 46 -12 64 -12c41 0 55 19 55 39c0 23 -23 37 -47 37c-17 0 -32 -4 -40 -7l-15 18l49 68c-30 2 -56 7 -78 15c-82 32 -111 107 -111 222h88c0 -80 6 -166 134 -166c70 0 124 50 124 126c0 202 -337 85 -337 347c0 66 28 197 209 197
c137 0 197 -67 200 -199h-88c0 75 -27 127 -111 127c-75 0 -118 -40 -118 -116c0 -201 337 -81 337 -342c0 -123 -68 -183 -145 -202c-21 -5 -41 -9 -62 -10l-29 -40l2 -2c11 3 17 4 30 4c35 0 80 -16 80 -74c0 -47 -51 -84 -107 -84c-37 0 -76 9 -99 20z" />
    <glyph glyph-name="Scedilla" unicode="&#xf6c1;" horiz-adv-x="500" 
d="M139 -190l15 34c2 0 46 -12 64 -12c41 0 55 19 55 39c0 23 -23 37 -47 37c-17 0 -32 -4 -40 -7l-15 18l49 68c-30 2 -56 7 -78 15c-82 32 -111 107 -111 222h88c0 -80 6 -166 134 -166c70 0 124 50 124 126c0 202 -337 85 -337 347c0 66 28 197 209 197
c137 0 197 -67 200 -199h-88c0 75 -27 127 -111 127c-75 0 -118 -40 -118 -116c0 -201 337 -81 337 -342c0 -123 -68 -183 -145 -202c-21 -5 -41 -9 -62 -10l-29 -40l2 -2c11 3 17 4 30 4c35 0 80 -16 80 -74c0 -47 -51 -84 -107 -84c-37 0 -76 9 -99 20z" />
    <glyph glyph-name="Scommaaccent" unicode="&#x218;" horiz-adv-x="500" 
d="M449 529h-88c0 75 -27 127 -111 127c-75 0 -118 -40 -118 -116c0 -201 337 -81 337 -342c0 -165 -121 -212 -222 -212c-167 0 -216 86 -216 238h88c0 -80 6 -166 134 -166c70 0 124 50 124 126c0 202 -337 85 -337 347c0 66 28 197 209 197c137 0 197 -67 200 -199z
M207 -141v91h83v-80c0 -54 -26 -76 -78 -80v26c17 5 31 10 34 43h-39z" />
    <glyph glyph-name="Tcaron" unicode="&#x164;" 
d="M275 636v-636h-88v636h-179v78h447v-78h-180zM370 915l-101 -142h-77l-100 142h78l61 -88l61 88h78z" />
    <glyph glyph-name="Tcommaaccent" unicode="&#x162;" 
d="M275 636v-636h-88v636h-179v78h447v-78h-180zM189 -141v91h83v-80c0 -54 -26 -76 -78 -80v26c17 5 31 10 34 43h-39z" />
    <glyph glyph-name="Tbar" unicode="&#x166;" 
d="M275 437v-437h-88v437h-114v49h114v150h-179v78h447v-78h-180v-150h112v-49h-112z" />
    <glyph glyph-name="Utilde" unicode="&#x168;" horiz-adv-x="519" 
d="M50 212v502h88v-502c0 -105 33 -154 121 -154c93 0 122 54 122 154v502h88v-502c0 -137 -70 -226 -210 -226c-144 0 -209 78 -209 226zM353 903h54c0 -50 -29 -111 -86 -111c-43 0 -94 38 -115 38c-27 0 -36 -27 -39 -45h-54c0 59 40 111 93 111c19 0 40 -8 60 -19
c20 -9 39 -19 52 -19c25 0 31 26 35 45z" />
    <glyph glyph-name="Umacron" unicode="&#x16a;" horiz-adv-x="519" 
d="M50 212v502h88v-502c0 -105 33 -154 121 -154c93 0 122 54 122 154v502h88v-502c0 -137 -70 -226 -210 -226c-144 0 -209 78 -209 226zM128 817v54h264v-54h-264z" />
    <glyph glyph-name="Ubreve" unicode="&#x16c;" horiz-adv-x="519" 
d="M50 212v502h88v-502c0 -105 33 -154 121 -154c93 0 122 54 122 154v502h88v-502c0 -137 -70 -226 -210 -226c-144 0 -209 78 -209 226zM135 908h48c0 -36 41 -67 77 -67s77 31 77 67h48c0 -41 -25 -127 -125 -127s-125 86 -125 127z" />
    <glyph glyph-name="Uring" unicode="&#x16e;" horiz-adv-x="519" 
d="M50 212v502h88v-502c0 -105 33 -154 121 -154c93 0 122 54 122 154v502h88v-502c0 -137 -70 -226 -210 -226c-144 0 -209 78 -209 226zM203 837c0 -31 26 -57 57 -57s57 26 57 57s-26 57 -57 57s-57 -26 -57 -57zM161 837c0 56 43 99 99 99s99 -43 99 -99
s-43 -99 -99 -99s-99 43 -99 99z" />
    <glyph glyph-name="Uhungarumlaut" unicode="&#x170;" horiz-adv-x="519" 
d="M50 212v502h88v-502c0 -105 33 -154 121 -154c93 0 122 54 122 154v502h88v-502c0 -137 -70 -226 -210 -226c-144 0 -209 78 -209 226zM310 773l70 142h98l-108 -142h-60zM146 773l70 142h98l-108 -142h-60z" />
    <glyph glyph-name="Uogonek" unicode="&#x172;" horiz-adv-x="519" 
d="M50 212v502h88v-502c0 -105 33 -154 121 -154c93 0 122 54 122 154v502h88v-502c0 -69 -18 -124 -53 -165c-23 -27 -55 -45 -95 -54c-17 -13 -31 -25 -42 -35c-42 -39 -51 -59 -51 -83s13 -38 40 -38s43 5 66 16l18 -35c-33 -20 -73 -28 -102 -28c-65 0 -94 30 -94 78
c0 43 32 83 95 118c-68 1 -118 20 -151 57c-33 39 -50 95 -50 169z" />
    <glyph glyph-name="Wcircumflex" unicode="&#x174;" horiz-adv-x="722" 
d="M150 0l-142 714h88l109 -584h2l101 584h106l101 -584h2l109 584h88l-147 -714h-107l-98 578h-2l-103 -578h-107zM223 773l101 142h77l100 -142h-78l-61 88l-61 -88h-78z" />
    <glyph glyph-name="Ycircumflex" unicode="&#x176;" horiz-adv-x="462" 
d="M187 280l-189 434h97l136 -334l141 334h92l-189 -434v-280h-88v280zM92 773l101 142h77l100 -142h-78l-61 88l-61 -88h-78z" />
    <glyph glyph-name="Zacute" unicode="&#x179;" 
d="M23 0v74l321 562h-303v78h395v-81l-321 -555h325v-78h-417zM202 773l70 142h98l-108 -142h-60z" />
    <glyph glyph-name="Zdotaccent" unicode="&#x17b;" 
d="M23 0v74l321 562h-303v78h395v-81l-321 -555h325v-78h-417zM194 794v101h78v-101h-78z" />
    <glyph glyph-name="amacron" unicode="&#x101;" horiz-adv-x="444" 
d="M301 154v138c-33 -33 -105 -38 -143 -63c-27 -17 -41 -38 -41 -85c0 -55 19 -92 76 -92c56 0 108 46 108 102zM126 374h-84c0 121 52 176 180 176c163 0 163 -98 163 -154v-299c0 -23 -1 -43 26 -43c11 0 16 2 20 5v-60c-7 -1 -28 -5 -49 -5c-31 0 -73 0 -76 69h-2
c-27 -48 -78 -77 -129 -77c-100 0 -146 60 -146 156c0 76 32 127 101 148l113 34c62 19 61 37 61 81c0 51 -30 79 -86 79c-92 0 -92 -85 -92 -105v-5zM92 653v54h264v-54h-264z" />
    <glyph glyph-name="abreve" unicode="&#x103;" horiz-adv-x="444" 
d="M301 154v138c-33 -33 -105 -38 -143 -63c-27 -17 -41 -38 -41 -85c0 -55 19 -92 76 -92c56 0 108 46 108 102zM126 374h-84c0 121 52 176 180 176c163 0 163 -98 163 -154v-299c0 -23 -1 -43 26 -43c11 0 16 2 20 5v-60c-7 -1 -28 -5 -49 -5c-31 0 -73 0 -76 69h-2
c-27 -48 -78 -77 -129 -77c-100 0 -146 60 -146 156c0 76 32 127 101 148l113 34c62 19 61 37 61 81c0 51 -30 79 -86 79c-92 0 -92 -85 -92 -105v-5zM96 744h48c0 -36 41 -67 77 -67s77 31 77 67h48c0 -41 -25 -127 -125 -127s-125 86 -125 127z" />
    <glyph glyph-name="aogonek" unicode="&#x105;" horiz-adv-x="444" 
d="M126 374h-84c0 121 52 176 180 176c163 0 163 -98 163 -154v-299c0 -23 -1 -43 26 -43c11 0 16 2 20 5v-60c-3 -1 -10 -2 -19 -3l-8 -1c-19 -14 -34 -26 -46 -37c-42 -39 -51 -59 -51 -83s13 -38 40 -38s43 5 66 16l18 -35c-33 -20 -73 -28 -102 -28c-65 0 -94 30 -94 78
s38 91 115 128c-6 1 -12 3 -17 6c-13 9 -26 26 -27 61h-2c-27 -48 -78 -77 -129 -77c-100 0 -146 60 -146 156c0 76 32 127 101 148l113 34c62 19 61 37 61 81c0 51 -30 79 -86 79c-92 0 -92 -85 -92 -105v-5zM301 154v138c-33 -33 -105 -38 -143 -63
c-27 -17 -41 -38 -41 -85c0 -55 19 -92 76 -92c56 0 108 46 108 102z" />
    <glyph glyph-name="cacute" unicode="&#x107;" horiz-adv-x="426" 
d="M394 373h-84c0 52 -21 111 -85 111c-52 0 -105 -26 -105 -222c0 -69 1 -210 102 -210c72 0 88 76 88 134h84c0 -84 -42 -200 -176 -200c-132 0 -186 90 -186 275c0 133 26 289 191 289c147 0 171 -116 171 -177zM194 609l70 142h98l-108 -142h-60z" />
    <glyph glyph-name="ccircumflex" unicode="&#x109;" horiz-adv-x="426" 
d="M394 373h-84c0 52 -21 111 -85 111c-52 0 -105 -26 -105 -222c0 -69 1 -210 102 -210c72 0 88 76 88 134h84c0 -84 -42 -200 -176 -200c-132 0 -186 90 -186 275c0 133 26 289 191 289c147 0 171 -116 171 -177zM87 609l101 142h77l100 -142h-78l-61 88l-61 -88h-78z" />
    <glyph glyph-name="ccaron" unicode="&#x10d;" horiz-adv-x="426" 
d="M394 373h-84c0 52 -21 111 -85 111c-52 0 -105 -26 -105 -222c0 -69 1 -210 102 -210c72 0 88 76 88 134h84c0 -84 -42 -200 -176 -200c-132 0 -186 90 -186 275c0 133 26 289 191 289c147 0 171 -116 171 -177zM359 751l-101 -142h-77l-100 142h78l61 -88l61 88h78z" />
    <glyph glyph-name="cdotaccent" unicode="&#x10b;" horiz-adv-x="426" 
d="M394 373h-84c0 52 -21 111 -85 111c-52 0 -105 -26 -105 -222c0 -69 1 -210 102 -210c72 0 88 76 88 134h84c0 -84 -42 -200 -176 -200c-132 0 -186 90 -186 275c0 133 26 289 191 289c147 0 171 -116 171 -177zM186 630v101h78v-101h-78z" />
    <glyph glyph-name="dcaron" unicode="&#x10f;" horiz-adv-x="524" 
d="M408 714v-714h-80v66h-2c-11 -40 -58 -80 -116 -80c-127 0 -175 114 -175 282c0 112 17 282 169 282c48 0 99 -28 118 -75h2v239h84zM123 268c0 -128 21 -210 98 -210c92 0 108 87 108 210c0 104 -17 210 -108 210c-77 0 -98 -82 -98 -210zM451 572l26 142h87l-59 -142
h-54z" />
    <glyph glyph-name="dcroat" unicode="&#x111;" horiz-adv-x="478" 
d="M408 591v-591h-80v66h-2c-11 -40 -58 -80 -116 -80c-127 0 -175 114 -175 282c0 112 17 282 169 282c48 0 99 -28 118 -75h2v116h-102v49h102v74h84v-74h78v-49h-78zM123 268c0 -128 21 -210 98 -210c92 0 108 87 108 210c0 104 -17 210 -108 210c-77 0 -98 -82 -98 -210
z" />
    <glyph glyph-name="ecaron" unicode="&#x11b;" horiz-adv-x="444" 
d="M407 258h-282c0 -83 0 -206 103 -206c80 0 91 83 91 124h84c0 -57 -33 -190 -180 -190c-132 0 -186 90 -186 275c0 133 26 289 191 289c164 0 179 -142 179 -258v-34zM128 324h191v29c0 60 -18 131 -93 131c-88 0 -98 -108 -98 -140v-20zM367 751l-101 -142h-77l-100 142
h78l61 -88l61 88h78z" />
    <glyph glyph-name="emacron" unicode="&#x113;" horiz-adv-x="444" 
d="M407 258h-282c0 -83 0 -206 103 -206c80 0 91 83 91 124h84c0 -57 -33 -190 -180 -190c-132 0 -186 90 -186 275c0 133 26 289 191 289c164 0 179 -142 179 -258v-34zM128 324h191v29c0 60 -18 131 -93 131c-88 0 -98 -108 -98 -140v-20zM97 653v54h264v-54h-264z" />
    <glyph glyph-name="ebreve" unicode="&#x115;" horiz-adv-x="444" 
d="M407 258h-282c0 -83 0 -206 103 -206c80 0 91 83 91 124h84c0 -57 -33 -190 -180 -190c-132 0 -186 90 -186 275c0 133 26 289 191 289c164 0 179 -142 179 -258v-34zM128 324h191v29c0 60 -18 131 -93 131c-88 0 -98 -108 -98 -140v-20zM105 744h48c0 -36 41 -67 77 -67
s77 31 77 67h48c0 -41 -25 -127 -125 -127s-125 86 -125 127z" />
    <glyph glyph-name="edotaccent" unicode="&#x117;" horiz-adv-x="444" 
d="M407 258h-282c0 -83 0 -206 103 -206c80 0 91 83 91 124h84c0 -57 -33 -190 -180 -190c-132 0 -186 90 -186 275c0 133 26 289 191 289c164 0 179 -142 179 -258v-34zM128 324h191v29c0 60 -18 131 -93 131c-88 0 -98 -108 -98 -140v-20zM189 630v101h78v-101h-78z" />
    <glyph glyph-name="eogonek" unicode="&#x119;" horiz-adv-x="444" 
d="M407 258h-282c0 -83 0 -206 103 -206c80 0 91 83 91 124h84c0 -45 -20 -125 -90 -169c-6 -3 -12 -6 -19 -9c-21 -15 -38 -28 -50 -39c-36 -36 -48 -58 -48 -84c0 -24 13 -38 40 -38s43 5 66 16l18 -35c-33 -20 -73 -28 -102 -28c-65 0 -94 30 -94 78c0 43 31 82 93 118
c-63 1 -109 24 -137 68c-29 45 -43 114 -43 207c0 133 26 289 191 289c164 0 179 -142 179 -258v-34zM128 324h191v29c0 60 -18 131 -93 131c-88 0 -98 -108 -98 -140v-20z" />
    <glyph glyph-name="gcircumflex" unicode="&#x11d;" 
d="M408 536v-502c0 -160 -75 -218 -182 -218c-33 0 -163 0 -176 134h84c4 -49 42 -68 86 -68c108 0 104 83 104 120v70h-2c-19 -45 -68 -72 -121 -72c-156 0 -166 197 -166 268c0 145 39 282 175 282c59 0 105 -39 116 -82h2v68h80zM221 478c-77 0 -98 -82 -98 -210
c0 -87 13 -196 97 -196c92 0 109 86 109 196c0 104 -17 210 -108 210zM98 609l101 142h77l100 -142h-78l-61 88l-61 -88h-78z" />
    <glyph glyph-name="gbreve" unicode="&#x11f;" 
d="M408 536v-502c0 -160 -75 -218 -182 -218c-33 0 -163 0 -176 134h84c4 -49 42 -68 86 -68c108 0 104 83 104 120v70h-2c-19 -45 -68 -72 -121 -72c-156 0 -166 197 -166 268c0 145 39 282 175 282c59 0 105 -39 116 -82h2v68h80zM221 478c-77 0 -98 -82 -98 -210
c0 -87 13 -196 97 -196c92 0 109 86 109 196c0 104 -17 210 -108 210zM118 744h48c0 -36 41 -67 77 -67s77 31 77 67h48c0 -41 -25 -127 -125 -127s-125 86 -125 127z" />
    <glyph glyph-name="gdotaccent" unicode="&#x121;" 
d="M408 536v-502c0 -160 -75 -218 -182 -218c-33 0 -163 0 -176 134h84c4 -49 42 -68 86 -68c108 0 104 83 104 120v70h-2c-19 -45 -68 -72 -121 -72c-156 0 -166 197 -166 268c0 145 39 282 175 282c59 0 105 -39 116 -82h2v68h80zM221 478c-77 0 -98 -82 -98 -210
c0 -87 13 -196 97 -196c92 0 109 86 109 196c0 104 -17 210 -108 210zM200 630v101h78v-101h-78z" />
    <glyph glyph-name="gcommaaccent" unicode="&#x123;" 
d="M408 536v-502c0 -160 -75 -218 -182 -218c-33 0 -163 0 -176 134h84c4 -49 42 -68 86 -68c108 0 104 83 104 120v70h-2c-19 -45 -68 -72 -121 -72c-156 0 -166 197 -166 268c0 145 39 282 175 282c59 0 105 -39 116 -82h2v68h80zM221 478c-77 0 -98 -82 -98 -210
c0 -87 13 -196 97 -196c92 0 109 86 109 196c0 104 -17 210 -108 210zM270 714v-91h-83v85c0 46 26 71 78 75v-26c-17 -5 -31 -10 -34 -43h39z" />
    <glyph glyph-name="hcircumflex" unicode="&#x125;" 
d="M55 0v714h84v-239h2c22 44 81 75 129 75c139 0 138 -106 138 -170v-380h-84v370c0 41 -3 108 -79 108c-45 0 -106 -31 -106 -108v-370h-84zM93 773l101 142h77l100 -142h-78l-61 88l-61 -88h-78z" />
    <glyph glyph-name="hbar" unicode="&#x127;" horiz-adv-x="478" 
d="M-3 591v49h73v74h84v-74h107v-49h-107v-116h2c22 44 81 75 129 75c139 0 138 -106 138 -170v-380h-84v370c0 41 -3 108 -79 108c-45 0 -106 -31 -106 -108v-370h-84v591h-73z" />
    <glyph glyph-name="itilde" unicode="&#x129;" horiz-adv-x="204" 
d="M60 0v536h84v-536h-84zM195 739h54c0 -50 -29 -111 -86 -111c-43 0 -94 38 -115 38c-27 0 -36 -27 -39 -45h-54c0 59 40 111 93 111c19 0 40 -8 60 -19c20 -9 39 -19 52 -19c25 0 31 26 35 45z" />
    <glyph glyph-name="imacron" unicode="&#x12b;" horiz-adv-x="204" 
d="M60 0v536h84v-536h-84zM-30 653v54h264v-54h-264z" />
    <glyph glyph-name="iogonek" unicode="&#x12f;" horiz-adv-x="204" 
d="M144 536v-536c-76 -63 -90 -96 -90 -125c0 -24 12 -38 35 -38s37 5 57 16l15 -35c-29 -20 -63 -28 -88 -28c-56 0 -81 30 -81 78c0 49 35 93 106 132h-38v536h84zM60 618v96h84v-96h-84z" />
    <glyph glyph-name="dotlessj" unicode="&#xf6be;" horiz-adv-x="204" 
d="M144 536v-588c0 -88 -36 -132 -128 -132c-13 0 -26 2 -39 3v72c11 -1 20 -3 31 -3c52 0 52 39 52 90v558h84z" />
    <glyph glyph-name="dotlessj" unicode="&#xfb0f;" horiz-adv-x="204" 
d="M144 536v-588c0 -88 -36 -132 -128 -132c-13 0 -26 2 -39 3v72c11 -1 20 -3 31 -3c52 0 52 39 52 90v558h84z" />
    <glyph glyph-name="jcircumflex" unicode="&#x135;" horiz-adv-x="204" 
d="M144 536v-588c0 -88 -36 -132 -128 -132c-13 0 -26 2 -39 3v72c11 -1 20 -3 31 -3c52 0 52 39 52 90v558h84zM-40 609l101 142h77l100 -142h-78l-61 88l-61 -88h-78z" />
    <glyph glyph-name="kcommaaccent" unicode="&#x137;" horiz-adv-x="444" 
d="M264 334l191 -334h-98l-149 265l-69 -84v-181h-84v714h84v-425h2l188 247h98zM192 -141v91h83v-80c0 -54 -26 -76 -78 -80v26c17 5 31 10 34 43h-39z" />
    <glyph glyph-name="lacute" unicode="&#x13a;" horiz-adv-x="204" 
d="M60 0v714h84v-714h-84zM60 773l70 142h98l-108 -142h-60z" />
    <glyph glyph-name="lcaron" unicode="&#x13e;" horiz-adv-x="259" 
d="M60 0v714h84v-714h-84zM186 572l26 142h87l-59 -142h-54z" />
    <glyph glyph-name="lcommaaccent" unicode="&#x13c;" horiz-adv-x="204" 
d="M60 0v714h84v-714h-84zM61 -141v91h83v-80c0 -54 -26 -76 -78 -80v26c17 5 31 10 34 43h-39z" />
    <glyph glyph-name="nacute" unicode="&#x144;" 
d="M55 0v536h80v-63h2c23 49 78 77 130 77c141 0 141 -106 141 -170v-380h-84v370c0 41 -3 108 -79 108c-45 0 -106 -31 -106 -108v-370h-84zM188 609l70 142h98l-108 -142h-60z" />
    <glyph glyph-name="ncaron" unicode="&#x148;" 
d="M55 0v536h80v-63h2c23 49 78 77 130 77c141 0 141 -106 141 -170v-380h-84v370c0 41 -3 108 -79 108c-45 0 -106 -31 -106 -108v-370h-84zM369 751l-101 -142h-77l-100 142h78l61 -88l61 88h78z" />
    <glyph glyph-name="ncommaaccent" unicode="&#x146;" 
d="M55 0v536h80v-63h2c23 49 78 77 130 77c141 0 141 -106 141 -170v-380h-84v370c0 41 -3 108 -79 108c-45 0 -106 -31 -106 -108v-370h-84zM190 -141v91h83v-80c0 -54 -26 -76 -78 -80v26c17 5 31 10 34 43h-39z" />
    <glyph glyph-name="omacron" unicode="&#x14d;" horiz-adv-x="444" 
d="M29 268c0 151 38 282 193 282s193 -131 193 -282s-39 -282 -193 -282c-155 0 -193 131 -193 282zM220 52c89 0 107 100 107 216s-16 216 -107 216c-85 0 -103 -100 -103 -216s17 -216 103 -216zM91 653v54h264v-54h-264z" />
    <glyph glyph-name="obreve" unicode="&#x14f;" horiz-adv-x="444" 
d="M29 268c0 151 38 282 193 282s193 -131 193 -282s-39 -282 -193 -282c-155 0 -193 131 -193 282zM220 52c89 0 107 100 107 216s-16 216 -107 216c-85 0 -103 -100 -103 -216s17 -216 103 -216zM96 744h48c0 -36 41 -67 77 -67s77 31 77 67h48c0 -41 -25 -127 -125 -127
s-125 86 -125 127z" />
    <glyph glyph-name="ohungarumlaut" unicode="&#x151;" horiz-adv-x="444" 
d="M29 268c0 151 38 282 193 282s193 -131 193 -282s-39 -282 -193 -282c-155 0 -193 131 -193 282zM220 52c89 0 107 100 107 216s-16 216 -107 216c-85 0 -103 -100 -103 -216s17 -216 103 -216zM271 609l70 142h98l-108 -142h-60zM107 609l70 142h98l-108 -142h-60z" />
    <glyph glyph-name="racute" unicode="&#x155;" horiz-adv-x="296" 
d="M55 0v536h84v-80h2c24 51 55 94 116 94c17 0 29 -2 37 -6v-82c-8 1 -18 4 -45 4c-42 0 -110 -39 -110 -127v-339h-84zM78 609l70 142h98l-108 -142h-60z" />
    <glyph glyph-name="rcommaaccent" unicode="&#x157;" horiz-adv-x="296" 
d="M55 0v536h84v-80h2c24 51 55 94 116 94c17 0 29 -2 37 -6v-82c-8 1 -18 4 -45 4c-42 0 -110 -39 -110 -127v-339h-84zM57 -141v91h83v-80c0 -54 -26 -76 -78 -80v26c17 5 31 10 34 43h-39z" />
    <glyph glyph-name="rcaron" unicode="&#x159;" horiz-adv-x="296" 
d="M55 0v536h84v-80h2c24 51 55 94 116 94c17 0 29 -2 37 -6v-82c-8 1 -18 4 -45 4c-42 0 -110 -39 -110 -127v-339h-84zM304 751l-101 -142h-77l-100 142h78l61 -88l61 88h78z" />
    <glyph glyph-name="sacute" unicode="&#x15b;" horiz-adv-x="407" 
d="M369 379h-84c0 68 -18 105 -79 105c-27 0 -87 -7 -87 -82c0 -64 66 -76 132 -97c64 -21 131 -44 131 -151c0 -112 -73 -168 -173 -168c-182 0 -184 135 -184 190h84c0 -65 17 -124 100 -124c27 0 89 13 89 89c0 72 -67 88 -131 109c-65 22 -132 42 -132 152
c0 100 78 148 171 148c156 0 163 -108 163 -171zM173 609l70 142h98l-108 -142h-60z" />
    <glyph glyph-name="scircumflex" unicode="&#x15d;" horiz-adv-x="407" 
d="M369 379h-84c0 68 -18 105 -79 105c-27 0 -87 -7 -87 -82c0 -64 66 -76 132 -97c64 -21 131 -44 131 -151c0 -112 -73 -168 -173 -168c-182 0 -184 135 -184 190h84c0 -65 17 -124 100 -124c27 0 89 13 89 89c0 72 -67 88 -131 109c-65 22 -132 42 -132 152
c0 100 78 148 171 148c156 0 163 -108 163 -171zM72 609l101 142h77l100 -142h-78l-61 88l-61 -88h-78z" />
    <glyph glyph-name="scedilla" unicode="&#x15f;" horiz-adv-x="407" 
d="M369 379h-84c0 68 -18 105 -79 105c-27 0 -87 -7 -87 -82c0 -64 66 -76 132 -97c64 -21 131 -44 131 -151c0 -84 -41 -137 -104 -157c-19 -7 -40 -10 -61 -11l10 14h-42l-9 -12c-30 3 -54 9 -73 20c-76 45 -78 123 -78 168h84c0 -65 17 -124 100 -124c27 0 89 13 89 89
c0 72 -67 88 -131 109c-65 22 -132 42 -132 152c0 100 78 148 171 148c156 0 163 -108 163 -171zM94 -190l15 34c2 0 46 -12 64 -12c41 0 55 19 55 39c0 23 -23 37 -47 37c-17 0 -32 -4 -40 -7l-15 18l50 69c10 -1 21 -2 33 -2h8l-29 -40l2 -2c11 3 17 4 30 4
c35 0 80 -16 80 -74c0 -47 -51 -84 -107 -84c-37 0 -76 9 -99 20z" />
    <glyph glyph-name="scedilla" unicode="&#xf6c2;" horiz-adv-x="407" 
d="M369 379h-84c0 68 -18 105 -79 105c-27 0 -87 -7 -87 -82c0 -64 66 -76 132 -97c64 -21 131 -44 131 -151c0 -84 -41 -137 -104 -157c-19 -7 -40 -10 -61 -11l10 14h-42l-9 -12c-30 3 -54 9 -73 20c-76 45 -78 123 -78 168h84c0 -65 17 -124 100 -124c27 0 89 13 89 89
c0 72 -67 88 -131 109c-65 22 -132 42 -132 152c0 100 78 148 171 148c156 0 163 -108 163 -171zM94 -190l15 34c2 0 46 -12 64 -12c41 0 55 19 55 39c0 23 -23 37 -47 37c-17 0 -32 -4 -40 -7l-15 18l50 69c10 -1 21 -2 33 -2h8l-29 -40l2 -2c11 3 17 4 30 4
c35 0 80 -16 80 -74c0 -47 -51 -84 -107 -84c-37 0 -76 9 -99 20z" />
    <glyph glyph-name="scommaaccent" unicode="&#x219;" horiz-adv-x="407" 
d="M369 379h-84c0 68 -18 105 -79 105c-27 0 -87 -7 -87 -82c0 -64 66 -76 132 -97c64 -21 131 -44 131 -151c0 -112 -73 -168 -173 -168c-182 0 -184 135 -184 190h84c0 -65 17 -124 100 -124c27 0 89 13 89 89c0 72 -67 88 -131 109c-65 22 -132 42 -132 152
c0 100 78 148 171 148c156 0 163 -108 163 -171zM163 -141v91h83v-80c0 -54 -26 -76 -78 -80v26c17 5 31 10 34 43h-39z" />
    <glyph glyph-name="tcaron" unicode="&#x165;" horiz-adv-x="322" 
d="M245 572l26 142h87l-59 -142h-54zM80 536v156h84v-156h93v-66h-93v-344c0 -43 11 -60 55 -60c19 0 28 2 37 3v-69c-11 -3 -33 -6 -68 -6c-88 0 -108 36 -108 106v370h-78v66h78z" />
    <glyph glyph-name="tcommaaccent" unicode="&#x163;" horiz-adv-x="259" 
d="M80 536v156h84v-156h93v-66h-93v-344c0 -43 11 -60 55 -60c19 0 28 2 37 3v-69c-11 -3 -33 -6 -68 -6c-88 0 -108 36 -108 106v370h-78v66h78zM120 -141v91h83v-80c0 -54 -26 -76 -78 -80v26c17 5 31 10 34 43h-39z" />
    <glyph glyph-name="tbar" unicode="&#x167;" horiz-adv-x="259" 
d="M-6 297v49h86v124h-78v66h78v156h84v-156h93v-66h-93v-124h100v-49h-100v-171c0 -43 11 -60 55 -60c19 0 28 2 37 3v-69c-11 -3 -33 -6 -68 -6c-88 0 -108 36 -108 106v197h-86z" />
    <glyph glyph-name="utilde" unicode="&#x169;" 
d="M408 536v-536h-80v63h-2c-23 -49 -78 -77 -130 -77c-141 0 -141 106 -141 170v380h84v-370c0 -41 3 -108 79 -108c45 0 106 31 106 108v370h84zM326 739h54c0 -50 -29 -111 -86 -111c-43 0 -94 38 -115 38c-27 0 -36 -27 -39 -45h-54c0 59 40 111 93 111
c19 0 40 -8 60 -19c20 -9 39 -19 52 -19c25 0 31 26 35 45z" />
    <glyph glyph-name="umacron" unicode="&#x16b;" 
d="M408 536v-536h-80v63h-2c-23 -49 -78 -77 -130 -77c-141 0 -141 106 -141 170v380h84v-370c0 -41 3 -108 79 -108c45 0 106 31 106 108v370h84zM101 653v54h264v-54h-264z" />
    <glyph glyph-name="ubreve" unicode="&#x16d;" 
d="M408 536v-536h-80v63h-2c-23 -49 -78 -77 -130 -77c-141 0 -141 106 -141 170v380h84v-370c0 -41 3 -108 79 -108c45 0 106 31 106 108v370h84zM107 744h48c0 -36 41 -67 77 -67s77 31 77 67h48c0 -41 -25 -127 -125 -127s-125 86 -125 127z" />
    <glyph glyph-name="uring" unicode="&#x16f;" 
d="M408 536v-536h-80v63h-2c-23 -49 -78 -77 -130 -77c-141 0 -141 106 -141 170v380h84v-370c0 -41 3 -108 79 -108c45 0 106 31 106 108v370h84zM175 690c0 -31 26 -57 57 -57s57 26 57 57s-26 57 -57 57s-57 -26 -57 -57zM133 690c0 56 43 99 99 99s99 -43 99 -99
s-43 -99 -99 -99s-99 43 -99 99z" />
    <glyph glyph-name="uhungarumlaut" unicode="&#x171;" 
d="M408 536v-536h-80v63h-2c-23 -49 -78 -77 -130 -77c-141 0 -141 106 -141 170v380h84v-370c0 -41 3 -108 79 -108c45 0 106 31 106 108v370h84zM281 609l70 142h98l-108 -142h-60zM117 609l70 142h98l-108 -142h-60z" />
    <glyph glyph-name="uogonek" unicode="&#x173;" 
d="M408 536v-536h-32c-20 -16 -37 -34 -52 -53c-29 -39 -33 -54 -33 -74c0 -21 12 -36 36 -36c19 0 40 5 60 16l16 -35c-31 -20 -65 -28 -92 -28c-59 0 -84 31 -84 74c0 48 29 84 101 136v63h-2c-23 -49 -78 -77 -130 -77c-141 0 -141 106 -141 170v380h84v-370
c0 -41 3 -108 79 -108c45 0 106 31 106 108v370h84z" />
    <glyph glyph-name="wcircumflex" unicode="&#x175;" horiz-adv-x="648" 
d="M135 0l-125 536h88l86 -438h2l91 438h99l89 -438h2l83 438h88l-127 -536h-92l-94 438h-2l-90 -438h-98zM189 609l101 142h77l100 -142h-78l-61 88l-61 -88h-78z" />
    <glyph glyph-name="ycircumflex" unicode="&#x177;" horiz-adv-x="406" 
d="M168 -11l-158 547h92l106 -430h2l94 430h92l-155 -572c-21 -74 -42 -140 -143 -140c-33 0 -46 2 -61 3v66c12 -2 28 -3 49 -3c39 0 55 23 66 52zM70 609l101 142h77l100 -142h-78l-61 88l-61 -88h-78z" />
    <glyph glyph-name="zacute" unicode="&#x17a;" horiz-adv-x="389" 
d="M39 464v72h323v-70l-240 -394h238v-72h-333v66l243 398h-231zM162 609l70 142h98l-108 -142h-60z" />
    <glyph glyph-name="zdotaccent" unicode="&#x17c;" horiz-adv-x="389" 
d="M39 464v72h323v-70l-240 -394h238v-72h-333v66l243 398h-231zM159 630v101h78v-101h-78z" />
    <glyph glyph-name="Ldot" unicode="&#x13f;" horiz-adv-x="444" 
d="M58 0v714h88v-636h290v-78h-378zM237 435v101h78v-101h-78z" />
    <glyph glyph-name="ldot" unicode="&#x140;" horiz-adv-x="293" 
d="M60 0v714h84v-714h-84zM200 435v101h78v-101h-78z" />
    <glyph glyph-name="estimated" unicode="&#x212e;" horiz-adv-x="600" 
d="M561 259h-404v-181c39 -39 87 -59 145 -59c83 0 143 36 193 120l35 -21c-61 -95 -123 -135 -228 -135c-157 0 -258 122 -258 276c0 155 101 276 258 276c154 0 258 -114 259 -276zM157 295h291v145c-42 40 -91 60 -147 60c-57 0 -105 -21 -144 -60v-145z" />
    <glyph glyph-name="afii61289" unicode="&#x2113;" horiz-adv-x="500" 
d="M418 42c-41 -37 -85 -56 -133 -56c-76 0 -130 43 -130 129v109l-58 -61h-2l-27 40l87 84v258c0 111 58 176 133 176c67 0 113 -49 113 -130c0 -98 -61 -204 -173 -317v-147c0 -68 40 -86 74 -86c27 0 58 12 88 39h2zM340 586c0 50 -23 84 -52 84c-31 0 -60 -35 -60 -113
v-218c72 84 112 173 112 247z" />
    <glyph glyph-name=".null" horiz-adv-x="500" 
 />
    <glyph glyph-name=".null" horiz-adv-x="500" 
 />
    <glyph glyph-name="CR" unicode="&#xd;" horiz-adv-x="0" 
 />
    <glyph glyph-name="uniF8FF" unicode="&#xf8ff;" horiz-adv-x="512" 
d="M222 117h56v67h-56v-67zM225 234h46c0 35 2 59 6 72s18 30 43 52c51 47 63 77 63 120c0 79 -53 131 -124 131c-72 0 -126 -42 -135 -137l50 -8c8 68 41 95 82 95s76 -37 76 -85c0 -25 -7 -42 -50 -83c-22 -22 -37 -42 -46 -59s-13 -44 -13 -81zM462 50h-412v617h412v-617
zM512 718h-512v-718h512v718z" />
    <glyph glyph-name="uni00A0" unicode="&#xa0;" horiz-adv-x="240" 
 />
    <glyph glyph-name="uni00AD" unicode="&#xad;" horiz-adv-x="352" 
d="M54 245v78h244v-78h-244z" />
    <glyph glyph-name="grave.cap" horiz-adv-x="204" 
d="M-16 915h98l70 -142h-60z" />
    <glyph glyph-name="Dcroat" unicode="&#x110;" horiz-adv-x="556" 
d="M155 72h92c152 0 169 156 169 284c0 138 -9 286 -169 286h-92v-236h134v-66h-134v-268zM67 0v340h-58v66h58v308h191c221 0 250 -160 250 -357c0 -180 -45 -357 -241 -357h-200z" />
    <glyph glyph-name="uni021A" unicode="&#x21a;" 
d="M275 636v-636h-88v636h-179v78h447v-78h-180zM189 -141v91h83v-80c0 -54 -26 -76 -78 -80v26c17 5 31 10 34 43h-39z" />
    <glyph glyph-name="acute.cap" horiz-adv-x="204" 
d="M52 773l70 142h98l-108 -142h-60z" />
    <glyph glyph-name="circumflex.cap" horiz-adv-x="204" 
d="M-37 773l101 142h77l100 -142h-78l-61 88l-61 -88h-78z" />
    <glyph glyph-name="caron.cap" horiz-adv-x="204" 
d="M241 915l-101 -142h-77l-100 142h78l61 -88l61 88h78z" />
    <glyph glyph-name="tilde.cap" horiz-adv-x="204" 
d="M195 903h54c0 -50 -29 -111 -86 -111c-43 0 -94 38 -115 38c-27 0 -36 -27 -39 -45h-54c0 59 40 111 93 111c19 0 40 -8 60 -19c20 -9 39 -19 52 -19c25 0 31 26 35 45z" />
    <glyph glyph-name="dieresis.cap" horiz-adv-x="204" 
d="M144 794v101h78v-101h-78zM-18 794v101h78v-101h-78z" />
    <glyph glyph-name="macron.cap" horiz-adv-x="204" 
d="M-30 817v54h264v-54h-264z" />
    <glyph glyph-name="uni02C9" unicode="&#x2c9;" horiz-adv-x="204" 
d="M-30 653v54h264v-54h-264z" />
    <glyph glyph-name="breve.cap" horiz-adv-x="204" 
d="M-23 890h48c0 -36 41 -67 77 -67s77 31 77 67h48c0 -41 -25 -127 -125 -127s-125 86 -125 127z" />
    <glyph glyph-name="ring.cap" horiz-adv-x="204" 
d="M45 844c0 -31 26 -57 57 -57s57 26 57 57s-26 57 -57 57s-57 -26 -57 -57zM3 844c0 56 43 99 99 99s99 -43 99 -99s-43 -99 -99 -99s-99 43 -99 99z" />
    <glyph glyph-name="hungarumlaut.cap" horiz-adv-x="204" 
d="M114 773l70 142h98l-108 -142h-60zM-50 773l70 142h98l-108 -142h-60z" />
    <glyph glyph-name="dotaccent.cap" horiz-adv-x="204" 
d="M63 794v101h78v-101h-78z" />
    <glyph glyph-name="uni2219" unicode="&#x2219;" horiz-adv-x="240" 
d="M64 327c0 31 25 56 56 56s56 -25 56 -56s-25 -56 -56 -56s-56 25 -56 56z" />
    <glyph glyph-name="uni2215" unicode="&#x2215;" horiz-adv-x="167" 
d="M-164 -31l435 756h60l-435 -756h-60z" />
    <glyph glyph-name="uni03BC" unicode="&#x3bc;" 
d="M408 536v-536h-80v63h-2c-23 -49 -78 -77 -130 -77c-23 0 -42 3 -57 14v-176h-84v712h84v-370c0 -41 3 -108 79 -108c45 0 106 31 106 108v370h84z" />
    <glyph glyph-name="uni03A9" unicode="&#x3a9;" horiz-adv-x="748" 
d="M688 0h-256v183c116 23 176 111 176 227c0 138 -101 239 -240 239c-137 0 -241 -102 -241 -239c0 -113 61 -208 177 -227v-183h-257v67h193v72c-124 34 -193 149 -193 274c0 180 146 308 321 308s320 -126 320 -306c0 -127 -67 -241 -192 -276v-72h192v-67z" />
    <glyph glyph-name="uni0394" unicode="&#x394;" horiz-adv-x="674" 
d="M550 72l-217 556l-213 -556h430zM662 0h-649l279 712h83z" />
    <glyph glyph-name="uni021B" unicode="&#x21b;" horiz-adv-x="259" 
d="M80 536v156h84v-156h93v-66h-93v-344c0 -43 11 -60 55 -60c19 0 28 2 37 3v-69c-11 -3 -33 -6 -68 -6c-88 0 -108 36 -108 106v370h-78v66h78zM120 -141v91h83v-80c0 -54 -26 -76 -78 -80v26c17 5 31 10 34 43h-39z" />
    </font>
</defs>
</svg>
